<?xml version="1.0" encoding="utf-8"?>
<!-- Generator: Adobe Illustrator 18.0.0, SVG Export Plug-In . SVG Version: 6.00 Build 0)  -->
<!DOCTYPE svg PUBLIC "-//W3C//DTD SVG 1.1//EN" "http://www.w3.org/Graphics/SVG/1.1/DTD/svg11.dtd">
<svg version="1.1" id="Layer_1" xmlns="http://www.w3.org/2000/svg" xmlns:xlink="http://www.w3.org/1999/xlink" x="0px" y="0px"
	 viewBox="0 89.5 612 612.9" enable-background="new 0 89.5 612 612.9" xml:space="preserve">
<rect y="89.5" fill="#D64C2A" width="612" height="612"/>
<g>
	<defs>
		<filter id="Adobe_OpacityMaskFilter" filterUnits="userSpaceOnUse" x="117.1" y="171.7" width="384.3" height="384.2">
			<feColorMatrix  type="matrix" values="1 0 0 0 0  0 1 0 0 0  0 0 1 0 0  0 0 0 1 0"/>
		</filter>
	</defs>
	<mask maskUnits="userSpaceOnUse" x="117.1" y="171.7" width="384.3" height="384.2" id="SVGID_1_">
		<g filter="url(#Adobe_OpacityMaskFilter)">
			
				<radialGradient id="SVGID_2_" cx="196.4103" cy="611.6328" r="122.5291" gradientTransform="matrix(-8.120316e-02 -1.566 -1.4818 7.683858e-02 1230.2378 636.5223)" gradientUnits="userSpaceOnUse">
				<stop  offset="0" style="stop-color:#FFFFFF"/>
				<stop  offset="1" style="stop-color:#000000"/>
			</radialGradient>
			<polygon fill="url(#SVGID_2_)" points="309.4,402 360.8,171.7 450,223.1 328.8,413.3 501.5,312.3 501.5,415.2 328.8,435.9 
				450,504.4 360.8,555.9 309.4,447.2 257.8,555.9 168.7,504.4 289.8,435.9 117.1,415.2 117.1,312.3 289.8,413.3 168.7,223.1 
				257.8,171.7 			"/>
		</g>
	</mask>
	<polygon opacity="0.3" mask="url(#SVGID_1_)" fill="#F15C2C" enable-background="new    " points="309.4,402 360.8,171.7 
		450,223.1 328.8,413.3 501.5,312.3 501.5,415.2 328.8,435.9 450,504.4 360.8,555.9 309.4,447.2 257.8,555.9 168.7,504.4 
		289.8,435.9 117.1,415.2 117.1,312.3 289.8,413.3 168.7,223.1 257.8,171.7 	"/>
	<polygon opacity="0.3" fill="#F69325" enable-background="new    " points="309.4,402 360.8,171.7 320.7,405 450,223.1 
		328.8,413.3 501.5,312.3 332,424.6 501.5,415.2 328.8,435.9 450,504.4 320.7,444.1 360.8,555.9 309.4,447.2 257.8,555.9 
		298.1,444.1 168.7,504.4 289.8,435.9 117.1,415.2 286.8,424.6 117.1,312.3 289.8,413.3 168.7,223.1 298.1,405 257.8,171.7 	"/>
	<g>
		<path fill="#FEC96D" d="M312,472c33.9,0,67.1-2.7,98.8-7.8c3.1,1.6,6.3,2.5,9.6,2.5c0.9,0,2,0,3-0.3c1.6-0.3,2.8-0.3,3.9-0.3
			c0.9,0,1.7,0,2.7,0.2c1.1,0.2,2.4,0.2,3.6,0.2c4.4,0,9.1-0.9,16.2-2.8c21-6.1,23.8-19.1,25.6-27.6c2.8-13.8,1.9-24.1-3-31.5
			c-0.2-0.5-0.5-0.9-0.8-1.3c-0.8-1.1-1.7-2.2-2.8-3.1c-3.4-3.1-2.7-16.5,1.7-27.1c2.7-6.6,2.4-14.4-0.8-21.2c-3-6.3-8-11-14-12.9
			c-1.1-0.3-2.2-0.6-3.3-0.8c-0.2,0-0.8-0.2-1.1-0.2c-0.9-0.2-1.6-0.2-2-0.2c-0.2,0-1.3,0-1.4,0c-4.4,0-8.5,1.3-11.9,3.4
			c-2.5-4.7-5-9.3-7.8-13.6c16.5-20.1,8.3-42.3,1.4-51.9c0-0.2-0.2-0.2-0.2-0.2s-0.2-0.5-0.6-0.9c0-0.2-0.3-0.3-0.3-0.5
			c-0.3-0.3-0.6-0.8-0.9-1.3l-0.5-0.5c-0.5-0.5-0.8-0.9-1.4-1.4c0,0-0.3-0.3-0.5-0.5c-0.2-0.2-0.3-0.3-0.5-0.3
			c0.5-0.3,1.1-0.6,1.6-0.9c2.5-1.3,4.1-3.8,4.1-6.4c0-2.7-1.4-5.3-3.8-6.6c-1.4-0.8-7.4-3.6-20.7-3.6c-2.8,0-5.8,0.2-8.9,0.3
			c-5.3-3.6-11.4-5.3-18.3-5.3c-10,0-18,3.8-18.8,4.1c-1.7,0.9-6.4,3.8-7.4,9.3c-0.2,0.6-0.2,1.3-0.2,1.7c-0.3,0.2-0.5,0.3-0.8,0.6
			c-0.9,0.8-2,1.6-3.1,2.5c-10-2.5-20.7-3.9-31.4-3.9h-1.7c-13.6,0-26.8,1.7-39.4,4.7c-1.1-0.9-2-1.7-3.1-2.4
			c-0.2-0.2-0.3-0.3-0.5-0.5c0-0.5,0-1.1-0.2-1.6c-0.9-5.3-5.6-8.2-7.1-8.9c-0.2-0.2-0.6-0.3-0.8-0.3l-1.1-0.5
			c-0.8-0.3-1.4-0.5-2-0.8c-0.8-0.3-1.6-0.5-2.4-0.8c-4.2-1.3-8.3-1.9-12.2-1.9c-6.6,0-12.5,1.7-17.6,5c-3-0.2-5.8-0.3-8.5-0.3
			c-12.7,0-18.3,2.7-19.8,3.4c-2.4,1.4-3.8,3.9-3.8,6.7c0,2.7,1.7,5.2,4.1,6.4c0.3,0.2,0.6,0.3,1.1,0.6c-2.2,1.9-3.4,3.8-4.1,5
			c-5.8,8-12.7,26-2.8,43.6c-0.2,0.3-0.5,0.6-0.6,0.8c-0.6-1.6-1.3-3.1-2-4.7c-0.2-0.3-0.3-0.6-0.5-0.9c-0.8-1.4-1.4-2.7-2.2-3.9
			c-0.2-0.3-0.5-0.6-0.6-0.9c-0.9-1.4-1.7-2.5-2.5-3.6c-0.2-0.3-0.5-0.5-0.6-0.8c-1.1-1.3-1.9-2.4-2.8-3.3l-0.2-0.2
			c-10-10.3-24.1-16.3-38.7-16.3c-6.4,0-12.7,1.1-18.7,3.3c-23.4,8.6-37.6,31.8-34.8,56.6c0,0.3,0,0.5,0,0.8c0,0.2,0.2,0.5,0.2,0.8
			c0.2,1.3,0.5,2.7,0.8,4.2c0.2,0.6,0.2,0.9,0.3,1.3c0.5,1.9,1.1,3.8,1.7,5.8c0,0.2,0,0.2,0.2,0.3c0.3,0.8,0.3,1.3,0.6,1.7
			c7.8,21,28.1,35.1,50.5,35.1l0,0c3.4,0,7.1-0.3,10.5-1.1l4.7,10.8c-7.7,11-9.1,27.8-6,37.9c0.5,1.4,1.1,2.8,1.9,4.2v0.6
			c-0.2,3.4,2.2,6.6,5.5,7.5c0,0,0.6,0.2,1.6,0.5c8.2,6.7,19.1,9.9,26.3,9.9c1.4,0,2.7-0.2,3.9-0.3c2.2-0.3,4.5-1.1,7.2-2
			c25.1,4.1,63.7,8.8,109,8.9L312,472z"/>
		<path fill="#E2E3ED" d="M99.6,349.4c0,0.3,0.2,0.6,0.2,1.1c0.5,1.7,0.9,3.3,1.6,5c0,0.2,0.2,0.2,0.2,0.3c0.2,0.6,0.3,1.1,0.5,1.7
			c8.8,23.5,34.5,35.8,58.2,27.9l8.3,19.1c-0.2,0.9-0.3,2-0.5,3c-7.1,8.5-9.1,24.3-6.3,33.2c0.5,1.6,1.3,3.1,2.2,4.5
			c0,0.9-0.2,1.9-0.2,2.8c0,0,1.1,0.3,3.3,0.8c7.1,6.7,18.8,10.2,25.4,9.1c2-0.3,4.7-1.1,7.5-2.4c26.2,4.4,64.6,9.1,109.8,9.1
			c31.5,0.2,66.3-2,102.4-8.2c2.8,2,6.3,3.3,10,2.7c10-1.6,8.9,2,25.4-2.8c16.5-4.9,18.5-13.3,20.4-22c1.7-8,3.1-19.6-2.8-27
			c0.2,0,0.2,0.2,0.3,0.3c-0.6-0.8-1.3-1.4-1.9-2c-7.8-7.1-4.4-25.4-0.2-35.4c3.9-9.6-1.6-21.5-10-24.3c-0.8-0.3-1.6-0.5-2.4-0.6
			c-0.3,0-0.6,0-0.8-0.2c-0.5,0-0.9-0.2-1.4-0.2l0,0c-5.8-0.3-11.8,2.4-14.7,9.1c-4.5-9.7-9.7-19.3-15.8-28.4
			c0.3-0.2,0.8-0.3,1.1-0.6c0.2-0.2,0.3-0.2,0.6-0.3c0.6-0.5,1.3-0.9,1.7-1.4c18.5-21.6,1.6-44.1,1.6-44.1s0-0.2-0.2-0.3v-0.2
			c-0.2-0.2-0.2-0.3-0.3-0.6c0-0.2-0.2-0.2-0.2-0.3c-0.2-0.3-0.3-0.5-0.6-0.8c-0.2-0.2-0.2-0.3-0.3-0.5c-0.3-0.3-0.5-0.6-0.8-0.9
			c-0.2-0.2-0.2-0.2-0.3-0.3l0,0c-1.6-1.4-3.9-3-7.5-4.1c1.9-5.3,10.3-9.6,10.3-9.6s-7.2-4.2-28.1-2c-13.3-11.1-32-2.2-32-2.2
			s-5.6,3-2.4,6.9c-2.7,2.7-7.1,5.3-10.5,8.8c-10.3-3-21.5-4.7-33.9-4.7c-0.2,0-0.5,0-0.6,0c-0.2,0-0.3,0-0.5,0
			c-14.3,0-28.1,1.9-41.4,5.5c-3.4-3.3-7.7-5.8-10.2-8.5c3.3-3.6-2.2-6.4-2.2-6.4s-0.2,0-0.3-0.2h-0.2c-0.2,0-0.5-0.2-0.8-0.3
			c-0.2,0-0.2,0-0.3-0.2c-0.3-0.2-0.8-0.3-1.3-0.5c0,0,0,0-0.2,0c-0.5-0.2-1.1-0.3-1.9-0.6h-0.2l0,0c-6.1-1.7-16.9-3.3-25.4,3.8
			c-19.8-2-26.7,1.9-26.7,1.9s8,3.9,9.7,8.9c-7.5,2.2-9.7,7.2-9.7,7.2s-15.2,20.1,0.2,40c-4.7,5.8-9.1,12.2-13.2,19.1
			c-0.3-4.5-1.1-9.1-2.8-13.5c0-0.2-0.2-0.3-0.2-0.3c-0.2-0.6-0.3-1.1-0.5-1.7c-0.6-1.6-1.3-3-1.9-4.5c-0.2-0.3-0.3-0.6-0.5-0.9
			c-0.6-1.1-1.3-2.2-1.9-3.3c-0.2-0.3-0.5-0.6-0.6-0.9c-0.6-0.9-1.4-2-2-3c-0.3-0.3-0.5-0.6-0.8-0.9c-0.8-0.9-1.6-1.9-2.4-2.7
			l-0.2-0.2c0,0,0,0,0,0.2c-12.4-12.9-31.7-17.9-49.4-11.3c-20.7,7.7-32.6,28.4-29.9,49.4l0,0c0,0.2,0,0.2,0,0.3
			C98.9,346.7,99.3,347.9,99.6,349.4z M175.3,376.8c-1.3,3.9-2.4,8-3.3,12.1l-3.3-7.5C170.9,380.1,173.1,378.5,175.3,376.8z"/>
		<g>
			<path fill="#CA6C29" d="M455.5,446.9c2.8-19-20.1-178.4-140-178c-77.9,0.3-146.8,52.8-151.6,179.1
				C163.9,447.8,305.6,485.9,455.5,446.9z"/>
			<path fill="#CA6C29" d="M456.6,446.9c2.8-19-20.1-178.4-140-178C238.7,269.2,169.8,321.8,165,448
				C165,447.8,306.7,485.9,456.6,446.9z"/>
			<path opacity="0.4" fill="#BE9568" enable-background="new    " d="M308,313.3c-0.6-0.6,0.6-2.7,1.3-3.8c1.4,0.3,1.3,1.9,2,2.4
				c0.8,0.5,1.3-0.6,2-0.3c1.1,0.3,0.9,1.4,2.5,1.6c2,0.3,3.4-0.9,5-2c-0.2,0.5,0,1.4-0.2,2c2.4-0.9,6-2.4,5.6,1.6
				c2.7,0.8,4.5-0.9,6.9-0.6c0,3.3,4.2,1.3,6.1,1.1c-0.3,0.3-0.5,1.3-0.6,1.6c0.8,0.2,3.3,0.2,3.8,0.8c0.8,1.1-1.3,1.9-1.9,2.5
				c0.8,0.3,4.1-0.2,4.4,0.5c0.3,0.6-1.4,1.9-1.6,2.5c2.2,0.9,5.2,1.1,2.5,3.6c1.4,0.8,5.8,1.3,3,3.4c2,0.5,2.5,0,3,2
				c0.2,0.6-1.6,0.6-0.6,1.9c0.3,0.5,2.2,0.3,2.7,0.5c-0.6,0.6-1.4,1.1-1.4,2c0.2,1.4,1.9,1.1,2.4,2c0.3,1.1-0.8,1.4-1.1,2.4
				s-0.2,1.9-0.3,2.7c0,0.2,0.3,0.8,0.3,1.1s-0.9,0.6-0.9,0.8c0,1.6,0.5,1.4,1.7,2.8c0.2,0.2-0.3,0.8,0,1.1c0.5,0.6,1.1,0.6,1.7,1.1
				c0.8,0.8,2.2,1.3,0.6,2.2c1.6,1.1,0.2,2.2,0.8,3.4c0.8,1.6,3.4,1.7,5,1.7c-0.5,1.3,0.3,4.2-0.6,4.9c1.6,0.8,3.4,0.6,4.9,2.2
				c0.3,0.3,0,1.3,0.3,1.4c0.8,0.6,2,0.5,3,0.6c0.8,0,2.5-0.3,3.3,0.5c0.5,0.5-0.2,1.3,0,1.4c0.9,1.1,2.4,1.1,3.8,1.9
				c-0.8,0.5-2,0.5-2.4,1.4c-0.6,1.4,1.1,2.2,0.8,3.3c-0.3,0.9-1.4,0.6-2.2,1.4c-0.6,0.6-2.4,2.5-2.8,3.3c-0.6,0.8-0.6,2-1.3,2.8
				c-2.7,3.8-13.3,2.2-16.9,1.9c-12.5-1.3-24.6-1.9-37.2-0.9c-8.5,0.5-17.2,1.1-25.6,0c-4.7-0.6-9.4-1.4-14.1-1.1
				c-3,0.2-6.1,0.9-9.1,0.9c-1.6,0-2.8-0.5-4.4-0.5c-2.8,0-5.2,1.7-7.7,1.6c-1.9,0-4.2-0.6-6.1-0.9c-1.4-0.3-5.3-0.5-6.3-1.4
				c0.3-0.2,0.8-0.5,1.1-0.5c-0.6-0.6-1.7-1.3-2.4-2c0.3,0,0.6-0.2,0.9-0.3c0.3-1.3-0.8-1.7-1.4-2.7c0.5,0,0.9-0.3,1.6-0.3
				c-0.2-1.3-1.9-1.3-1.7-2.7c1.7,0.2,1.3-1.9,0.9-2.8c-0.2-0.6-0.9-0.8-1.3-1.4c-0.3-0.8,0.5-1.4-0.5-2.4c0.5,0.2,1.1-0.2,1.6-0.2
				c-0.5-2,1.6-1.6,3-1.9c-0.2-0.6,0.2-1.4,0-2c0.5,0.2,1.1-0.2,1.6-0.2c-0.8-1.6,0.8-1.7,2-1.9c0.3-2.8,5-4.1,7.2-4.9
				c0-0.2-0.2-0.6-0.2-0.8c3.1,0,2.7-2.5,3-4.7c0.2-0.5-0.5-1.3-0.2-1.6c0.3-0.5,1.4-0.2,1.6-0.6c0.5-1.1,1.1-1.6-0.3-2.5
				c3-0.6,1.3-2,1.3-4.1c1.9-0.8-0.5-2.8-0.8-3.9c0.5,0.2,1.3-0.2,1.7,0c0.5-1.7-1.4-2.5-1.3-4.1c3.8-0.2,2-0.3,1.4-2.8
				c0.3,0,0.9-0.2,1.3,0c-0.3-1.3-0.9-2.7-1.1-4.1c1.4,0,2.8,0,4.1,0.2c0.2-1.4-0.6-2.5-0.5-3.9c1.3-0.2,2.5,0,3.6,0.6
				c-0.5-3.1,2.7-2,4.2-2.7c1.3-0.6,0.8-2.2,1.7-3.1c1.1-0.9,2.2-0.3,3.8-0.3c-0.2-3.1,5.5,0.5,7.1,0.2c1.3-0.3,2.2-2.5,3.4-2.5
				c1.7-0.2,3.3,2,4.5,2.8c1.9-4.5,6.6-0.2,9.6-1.1c0-1.7,0.5-4.1,1.3-5.8c0.6,0.8,1.1,2,2.2,2.4c0.9-1.4,1.9-0.2,1.9,0.5"/>
			<path opacity="0.15" fill="#CA6C29" enable-background="new    " d="M366.9,461c0.8-0.8,2.4-1.1,3.3-1.7c1.4-0.9,1.6-2.4,2.4-3.3
				c0.6-0.6,2.4-1.1,2.7-1.6c1.1-1.6,0-4.1,1.1-5.8c0.9-1.6,2.5-0.9,3.6-2c0.5-0.5,0.5-2.2,0.8-2.8c0.5-0.9,1.4-1.4,1.9-2.5
				c0-0.2,0.5-2.5,0.6-2.7c0.3-3,0.3-4.5,1.4-6.9c0.2-0.3,0.8-2.4,0.8-2.5c0.2-0.9-0.6-2.4-0.6-3.3c0.5-3.3,6.4-2.2,6.9-5.2
				c-1.3-0.6-2.7-1.3-3.8-2.2c1.3-0.2,2.8,0,4.1-0.5c-0.8-1.3-2.5-2-3.6-2.7c1.6-1.6-0.6-3.3,2-4.7c-3-3.8,4.5-3.3-0.5-6.6
				c0.3,0,0.6-0.3,0.9-0.3c-0.3-1.6-1.3-3.4,1.1-3.3c-0.2-1.6,0.5-4.9-1.6-5.2c0.2-1.9,2.7-1.1,3.1-3c0.2-0.6-1.3-0.6-1.3-1.4
				c0.2-0.6,0.9-0.5,1.3-1.1c0.5-1.4,1.3-4.1,1.9-5.5c0.3-0.6,1.9-1.6,1.9-2.2c0-1.6-2.7-1.6-2.8-3.3c-0.2-1.3,1.6-1.6,1.7-2.7
				c0.2-1.4-1.1-1.6-1.1-2.5c0-1.1,0.6-1.7,0.8-2.7c-5.3-1.7-0.9-3-1.9-6c-0.5-1.6-3.1-1.4-3.8-2.5c-0.6-0.9-0.2-2.4,0.2-3.4
				c0.6-3.3,1.7-3.6-0.5-6.3c-1.4-1.7-1.3-1.9-1.9-3.9c-0.5-1.9-0.3-1.6-1.6-3.1c-1.6-2-0.8-0.9-0.9-3.3c0-0.9-0.8-1.9-0.8-2.8
				c-0.5-3.1,2.8-2.7,0.3-5.5c-1.1-1.3-3.3-1.9-3.3-3.4s1.6-1.3,1.7-2.5c0.2-1.9-6.4-4.4-2.5-5.3c0.2-2-2.7-2.7-2.5-4.4
				c0.2-1.1,2-1.3,1.9-2.5c-0.2-0.9-1.1-0.6-1.1-1.1c-0.2-0.6-0.8-0.5-0.9-1.6c0-0.5,1.4-0.8,1.4-1.7c-0.2-1.4-2.2-1.9-3.3-2.2
				c1.3-2-0.3-9.4-2.5-10.3c1.6-1.7-0.2-2.4,0-3.9c0.2-1.4,0.9-2,0.8-3.3c0-0.2-1.3-0.8-1.4-1.4c-0.2-0.8,0.9-1.7,0.8-2.7
				c-0.3-1.7-3-2.5-4.7-2.8c0.8-0.8,2.4-1.1,3.8-1.4c69.9,39.7,84.7,148,82.3,163.4c-30.3,7.8-60.4,12.7-88.9,15.2
				C366.6,461.6,366.6,461.3,366.9,461z"/>
			<path fill="#F1EFEE" d="M368.2,372.6c-7.2-13-31.8-19.1-50.6-20.2c-18.8-1.1-43.4,2.4-56.4,9.9c-13,7.5-10.2,19.1-7.8,31.8
				c2.4,12.7,18.8,33.9,56.4,29.2C347.3,418.5,382.3,397.6,368.2,372.6z"/>
			<path fill="#E2E3ED" d="M313.6,410.8c4.9-1.4,8.3-6.1,12.4-10.3c1.4-1.4,6.9,0,6.9-2c0.6-9.6,8.9-10.3,13.8-16.5
				c0.6-2-1.4-4.9,0-5.5c4.4-3.9,13-5.6,16-10.5c2.4,1.9,4.4,4.1,5.6,6.6c14.1,24.9-20.9,45.9-58.6,50.6c-14,1.7-25.1,0-33.6-3.8
				c0.6-0.2,1.3-0.3,1.7-0.5C289.5,414.9,301.2,414.9,313.6,410.8z"/>
			<path fill="#E2E3ED" d="M338.1,376.8c0,0-2.5,17.9-4.7,20.9l6.1-0.8l6.1-16.9l0.2-6.1l-1.9-1.1L338.1,376.8z"/>
			<path fill="#363939" d="M322.7,353c-0.3-2.4-8.9-7.7-22.1-6.3c-13.3,1.4-22.1,6.3-23,9.4c-0.9,3,16.3,15.8,21.2,15.8
				C301.8,371.8,323.6,361.1,322.7,353z"/>
			<path fill="#363939" d="M269.9,334.6c0,5,2,8.9,4.5,8.9c2.5,0,4.5-4.1,4.5-8.9c0-5-2-8.9-4.5-8.9
				C271.9,325.5,269.9,329.6,269.9,334.6z"/>
			<ellipse fill="#363939" cx="335.2" cy="334.6" rx="4.5" ry="8.9"/>
			<path fill="#C3C6DB" d="M347.9,375.9c0,0-5.5,22-9.6,23c-4.1,1.1-10,3.8-21.3,2c0,0,14.4-1.7,20.2-5.2c5.8-3.4,7.4-22.9,7.4-22.9
				L347.9,375.9z"/>
			<path fill="#363939" d="M332.4,367.1c18.3-0.5,25.9,21,25.9,21S348.7,375.4,332.4,367.1z"/>
			<path fill="#C3C6DB" d="M277.2,379.5c0,0-1.3,15.2,1.1,16.2c2.2,0.9,11,2.5,11,2.5s-11.9,1.1-13.8-0.8
				c-1.9-1.7-0.6-18.7-0.6-18.7L277.2,379.5z"/>
			<path fill="#363939" d="M343.1,372.4c0,0-35.6,21.8-44.4-1.7l-3.1-0.8c0,0,7.7,11.4,0.5,11c-7.2-0.5-27.3-4.2-29.8-5
				c6.4,3.8,37.2,12.9,35.9,5.3c4.5,2.5,24.9,7.8,42.7-8.5c0,0,0.5-0.5-0.3-0.9C343.9,371.6,343.1,372.4,343.1,372.4z"/>
			<path fill="#C3C6DB" d="M336.7,398.3c0.3,0.2,2.8,7.4-5.3,12.1s-24.6,12.4-51.9,3.9c-3.8-1.1-10.5-6.6-11.8-13
				c0,0,2.4,5.8,11.1,9.1c0,0-3.3-7.2-3.3-13.5l1.9,0.3c0,0,1.9,10,4.1,13c2.2,3.1,9.6,6,22.4,5c12.9-0.9,25.9-7.4,27.4-9.1
				c1.6-1.7,1.1-7.2,1.1-7.2L336.7,398.3z"/>
			<path fill="#F1EFEE" d="M453.5,345.6c-13.2-4.2-30.7,6.4-15.5,45.3c0,0-14.6-18-26-2.5c-7.5,10.5,0.2,18,0.2,18
				c-5.3-2.5-20.5,22-0.5,27.4c-8.6,0.9-8,9.4-7.4,12.1c0.6,2.8,8,14.4,18,12.9c10-1.6,8.9,2,25.4-2.8c16.5-4.9,18.5-13.3,20.4-22
				c1.9-8.6,3.4-21.8-4.4-28.9c-7.8-7.1-4.4-25.4-0.2-35.4C467.4,360.3,461.9,348.4,453.5,345.6z"/>
			<path fill="#E2E3ED" d="M411.6,434c-3-0.8-5.2-2-6.7-3.6c4.4,1.1,8.9,2.5,14,2.5c-4.2,2.5-9.1,4.5-13.8,5.5
				C405.8,436.1,407.8,434.3,411.6,434z"/>
			<path fill="#E2E3ED" d="M412.1,406.4c0,0-2.7-2.5-3.3-6.7c6,5.2,15.1,6.3,21.6,11.1c-8,2.2-15.8,0.3-23.4-1.9
				C408.8,406.9,410.7,405.8,412.1,406.4z"/>
			<g>
				<path fill="#D8932D" d="M144.4,346.7l7.5-3.3l40.3,92.4l0,0c0.3,1.1-0.9,2.7-3,3.4c-2,0.9-4.1,0.8-4.5-0.2l0,0L144.4,346.7z"/>
				<path fill="#F8C262" d="M143,345.9l7.5-3.3l40.3,92.4l0,0c0.3,1.1-0.9,2.7-3,3.4c-2,0.9-4.1,0.8-4.5-0.2l0,0L143,345.9z"/>
				<g>
					<path fill="#D8932D" d="M169.3,392.5c0,0,3.4,5,4.4,9.6C173.9,401.9,170.3,395,169.3,392.5z"/>
					<path fill="#D8932D" d="M161,380.7c0,0,5.3,9.7,6.4,14.3C167.3,395,161.8,383.4,161,380.7z"/>
					<path fill="#D8932D" d="M169.3,401.1c0,0,5.3,9.7,6.4,14.3C175.8,415.4,170.3,403.8,169.3,401.1z"/>
					<path fill="#D8932D" d="M161.7,370.2c0,0,5.3,9.7,6.4,14.3C168.1,384.5,162.6,372.9,161.7,370.2z"/>
				</g>
				<path fill="#FEDA00" d="M101.3,355.3c8.9,24,35.6,36.4,59.6,27.4c24-8.9,36.2-35.6,27.4-59.6c-8.9-24-35.6-36.4-59.6-27.4
					C104.6,304.7,92.4,331.3,101.3,355.3z"/>
				<path fill="#D4B32A" d="M101.9,357.3c8.9,24,35.6,36.4,59.6,27.4s36.2-35.6,27.4-59.6c-8.9-24-35.6-36.4-59.6-27.4
					C105.4,306.7,93,333.4,101.9,357.3z"/>
				<path fill="#FEDA00" d="M101.3,355.3c8.9,24,35.6,36.4,59.6,27.4c24-8.9,36.2-35.6,27.4-59.6c-8.9-24-35.6-36.4-59.6-27.4
					C104.6,304.7,92.4,331.3,101.3,355.3z"/>
				<path fill="#FECF0A" d="M122,369.6c2.8,4.1,7.5-2.8,10.3-4.1c5.5-3.4,14.4,4.9,19.9,0.6c6.1-4.9,12.4-0.6,17.9-4.9
					c6.9-4.9,2-11,3.4-17.9c0-0.6,2.8-1.4,3.4-2c1.4-2.8,2.8-5.5,4.1-7.5c7.8-10,3.3-19-3-27c4.4,4.5,7.8,9.9,10.2,16.2
					c8.9,24-3.4,50.6-27.4,59.6s-50.6-3.4-59.6-27.4c-1.3-3.4-2-6.9-2.5-10.3C108.4,349.2,115.7,359.9,122,369.6z"/>
				<path fill="#3E3E3E" d="M151.2,321.6c0.9,2.5,3.6,3.8,6.1,2.8c2.5-0.9,3.8-3.6,2.8-6.1c-0.9-2.5-3.6-3.8-6.1-2.8
					C151.5,316.4,150.2,319.1,151.2,321.6z"/>
				<path fill="#3E3E3E" d="M119.5,333.2c0.9,2.5,3.6,3.8,6.1,2.8c2.5-0.9,3.8-3.6,2.8-6.1c-0.9-2.5-3.6-3.8-6.1-2.8
					C120,328,118.5,330.8,119.5,333.2z"/>
				<g>
					<path fill="#3E3E3E" d="M143.9,375.2c4.2,0,8.5-0.8,12.5-2.2c9.1-3.3,16.3-10,20.2-18.8c4.1-8.8,4.4-18.5,1.1-27.6
						c-0.3-0.9-1.3-1.4-2.2-0.9c-0.9,0.3-1.4,1.3-0.9,2.2c3,8.2,2.7,17.1-0.9,24.9c-3.6,7.8-10.2,14-18.3,16.9s-17.1,2.7-24.9-0.9
						c-8-3.6-14-10.2-16.9-18.3c-0.3-0.9-1.3-1.4-2.2-0.9c-0.9,0.3-1.4,1.3-0.9,2.2c3.3,9.1,10,16.3,18.8,20.2
						C133.8,374.1,138.8,375.2,143.9,375.2z"/>
				</g>
				<path fill="#F1EFEE" d="M203.8,410.7c-10.7-0.5-11.6-10.5-26.2-8.9c-14.6,1.6-19.6,26.7-15.8,38.7c3.8,12.1,22,18.7,30.7,17.2
					c8.9-1.4,31.5-12.4,25.9-32C213.9,410.3,210.3,411,203.8,410.7z"/>
				<path fill="#E2E3ED" d="M204,411.6c-1.4,5.5-4.1,11-10.3,9.6c-2.8-0.6-6.9-2-6.1-4.9c2.2-7.4-0.2-11-4.9-14.7
					c10.3,0.8,12.1,8.6,21.5,8.9c0.9,0,1.9,0,2.7,0.2C205.7,411.1,204.5,410.7,204,411.6z"/>
			</g>
			<g>
				<path fill="#CA6C29" d="M397.2,279.1c16.5,7.1,14.3,46.6,3.3,30.1c-11-16.3-26.2-20.9-26.2-20.9S380.7,272.2,397.2,279.1z"/>
				<path opacity="0.62" fill="#CA6C29" enable-background="new    " d="M397.2,279.1c16.5,7.1,14.3,46.6,3.3,30.1
					c-11-16.3-26.2-20.9-26.2-20.9S380.7,272.2,397.2,279.1z"/>
				<path fill="#F1EFEE" d="M346.2,279.1c3.1-6.6,10.8-10.5,14.7-14.4c-3.4-3.8,2.4-6.9,2.4-6.9s18.7-8.9,32,2.2
					c20.9-2.2,28.1,2,28.1,2s-8.3,4.2-10.3,9.6c8,2.4,10.3,7.5,10.3,7.5s17.1,22.4-1.6,44.1c-10.2,9.9-25.1-3.4-25.1-7.2
					c15.2-21.6-3.1-33.7-14.3-32.6c-6.7,0.9-10.8,9.1-10.8,9.1S346.2,290.1,346.2,279.1z"/>
				<path fill="#E2E3ED" d="M400.8,317.4c4.9-6.1,4.9-13.8,11-19.3c3.4-2-0.6-7.5,1.4-10.3c1.4-2.8,6.1-2,7.5-4.1
					c1.6-1.9,1.1-5.5-0.3-8.3c2,1.9,2.8,3.6,2.8,3.6s17.1,22.4-1.6,44.1c-8,7.7-18.8,1.4-23-3.6
					C399.5,318.9,400.2,318.1,400.8,317.4z"/>
			</g>
			<g>
				<path fill="#CA6C29" d="M229.6,279.7c-15.7,6.7-13.5,44.1-3.1,28.5c10.5-15.5,24.8-19.8,24.8-19.8S245.2,273,229.6,279.7z"/>
				<path opacity="0.62" fill="#CA6C29" enable-background="new    " d="M229.6,279.7c-15.7,6.7-13.5,44.1-3.1,28.5
					c10.5-15.5,24.8-19.8,24.8-19.8S245.2,273,229.6,279.7z"/>
				<path fill="#F1EFEE" d="M278,279.6c-3-6.3-10.3-9.9-14-13.6c3.3-3.6-2.2-6.4-2.2-6.4s-17.7-8.5-30.3,2
					c-19.8-2-26.7,1.9-26.7,1.9s8,3.9,9.7,8.9c-7.5,2.2-9.7,7.2-9.7,7.2s-16.2,21.3,1.4,41.9c9.7,9.4,23.8-3.3,23.8-6.9
					c-14.4-20.5,3-32,13.5-31c6.3,0.8,10.2,8.6,10.2,8.6S278,290.1,278,279.6z"/>
				<path fill="#E2E3ED" d="M231.1,283c8.9-6.1,17.9-11,24.8-19.9c1.7-2.2,1.9-4.1,1.1-5.5c3,0.8,4.9,1.7,4.9,1.7s5.3,2.8,2.2,6.4
					c3.8,3.8,11.1,7.4,14,13.6c0,10.5-24.1,12.7-24.1,12.7s-3.9-7.8-10.2-8.6c-4.9-0.5-11.1,1.7-15.1,6.1
					C228.8,287.1,229.2,284.6,231.1,283z"/>
				<path fill="#F1EFEE" d="M218.7,301.7c-0.6-1.9,3.6-1.4,5.8-2.5c-0.2,4.4,1.3,9.6,5.5,15.5c0,2.4-5.8,8.3-12.5,9.9
					C221.4,317.5,221.1,310.3,218.7,301.7z"/>
			</g>
			<ellipse fill="#525556" cx="333.8" cy="330.8" rx="1.7" ry="3.4"/>
			<ellipse fill="#525556" cx="272.8" cy="330.8" rx="1.7" ry="3.4"/>
			<path fill="#525556" d="M315,350.4c-0.5-1.1-5.5-2.7-15.4-1.6c-9.9,0.9-18,4.1-18.3,6s12.9,1.1,17.4,1.1
				C302.6,355.9,315.6,352.3,315,350.4z"/>
			<path fill="#E2E3ED" d="M448.5,402.8c0,0-1.3,8.8-7.5,11C440.9,413.8,452.2,414.3,448.5,402.8z"/>
			<path fill="#E2E3ED" d="M439.8,418.3c0,0,2.8,10.3-6.1,15.7C440.5,431.5,445.3,426.5,439.8,418.3z"/>
			<path fill="#E2E3ED" d="M465.7,407.5c-24.8-16.8-15.2-35-11-46.3c2.7-7.2-1.9-13-5.8-16.5c1.6,0.2,3.1,0.3,4.5,0.8
				c8.5,2.8,14,14.6,10,24.3c-4.1,10-7.5,28.4,0.2,35.4C464.4,406,465.1,406.7,465.7,407.5z"/>
		</g>
	</g>
</g>
</svg>
