<?xml version="1.0" encoding="utf-8"?>
<!-- Generator: Adobe Illustrator 18.0.0, SVG Export Plug-In . SVG Version: 6.00 Build 0)  -->
<!DOCTYPE svg PUBLIC "-//W3C//DTD SVG 1.1//EN" "http://www.w3.org/Graphics/SVG/1.1/DTD/svg11.dtd">
<svg version="1.1" id="Layer_1" xmlns="http://www.w3.org/2000/svg" xmlns:xlink="http://www.w3.org/1999/xlink" x="0px" y="0px"
	 viewBox="0 89.5 612 612.9" enable-background="new 0 89.5 612 612.9" xml:space="preserve">
<rect y="89.5" fill="#7BC3C2" width="612" height="612"/>
<g>
	<defs>
		<filter id="Adobe_OpacityMaskFilter" filterUnits="userSpaceOnUse" x="106.3" y="177.5" width="395.1" height="407.2">
			<feColorMatrix  type="matrix" values="1 0 0 0 0  0 1 0 0 0  0 0 1 0 0  0 0 0 1 0"/>
		</filter>
	</defs>
	<mask maskUnits="userSpaceOnUse" x="106.3" y="177.5" width="395.1" height="407.2" id="SVGID_1_">
		<g filter="url(#Adobe_OpacityMaskFilter)">
			
				<radialGradient id="SVGID_2_" cx="639.7975" cy="621.4953" r="111.8274" gradientTransform="matrix(-9.149162e-02 -1.8183 -1.6695 8.922496e-02 1398.5721 1501.906)" gradientUnits="userSpaceOnUse">
				<stop  offset="0" style="stop-color:#FFFFFF"/>
				<stop  offset="1" style="stop-color:#000000"/>
			</radialGradient>
			<polygon fill="url(#SVGID_2_)" points="303.9,421.6 356.7,177.5 448.5,232.1 324,433.6 501.5,326.6 501.5,435.6 324,457.5 
				448.5,530.1 356.7,584.7 303.9,469.5 250.9,584.7 159.3,530.1 283.8,457.5 106.3,435.6 106.3,326.6 283.8,433.6 159.3,232.1 
				250.9,177.5 			"/>
		</g>
	</mask>
	<polygon opacity="0.3" mask="url(#SVGID_1_)" fill="#1176BA" enable-background="new    " points="303.9,421.6 356.7,177.5 
		448.5,232.1 324,433.6 501.5,326.6 501.5,435.6 324,457.5 448.5,530.1 356.7,584.7 303.9,469.5 250.9,584.7 159.3,530.1 
		283.8,457.5 106.3,435.6 106.3,326.6 283.8,433.6 159.3,232.1 250.9,177.5 	"/>
	<polygon fill="#5FC7D6" points="303.9,421.6 356.7,177.5 315.5,424.8 448.5,232.1 324,433.6 501.5,326.6 327.1,445.5 501.5,435.6 
		324,457.5 448.5,530.1 315.5,466.2 356.7,584.7 303.9,469.5 250.9,584.7 292.3,466.2 159.3,530.1 283.8,457.5 106.3,435.6 
		280.7,445.5 106.3,326.6 283.8,433.6 159.3,232.1 292.3,424.8 250.9,177.5 	"/>
	<g>
		<polygon opacity="0.3" fill="#1176BA" enable-background="new    " points="158.8,303.3 141.9,286.6 165.3,283.2 175.8,262 
			186.3,283.2 209.8,286.6 192.9,303.3 196.8,326.6 175.8,315.5 154.9,326.6 		"/>
		<polygon fill="#FFFFFF" points="175.8,273.6 183,287.9 198.7,290.2 187.2,301.4 190,317.2 175.8,309.7 161.7,317.2 164.3,301.4 
			152.9,290.2 168.7,287.9 		"/>
		<polygon opacity="0.3" fill="#1176BA" enable-background="new    " points="417.9,303.3 400.9,286.6 424.3,283.2 434.8,262 
			445.3,283.2 468.8,286.6 451.9,303.3 455.8,326.6 434.8,315.5 413.8,326.6 		"/>
		<polygon fill="#FFFFFF" points="434.8,273.6 441.9,287.9 457.7,290.2 446.3,301.4 449.1,317.2 434.8,309.7 420.7,317.2 
			423.4,301.4 411.9,290.2 427.8,287.9 		"/>
		<polygon opacity="0.3" fill="#1176BA" enable-background="new    " points="134.7,358.4 123.9,347.8 138.8,345.6 145.5,332.1 
			152.3,345.6 167.2,347.8 156.3,358.4 158.8,373.3 145.5,366.3 132.2,373.3 		"/>
		<polygon fill="#FFFFFF" points="145.5,339.5 150.1,348.7 160.1,350.1 152.9,357.2 154.6,367.4 145.5,362.5 136.4,367.4 
			138.1,357.2 130.9,350.1 141,348.7 		"/>
		<polygon opacity="0.3" fill="#1176BA" enable-background="new    " points="450.7,355.9 439.8,345.4 454.9,343.2 461.5,329.8 
			468.2,343.2 483.1,345.4 472.3,355.9 475,371 461.5,363.9 448.1,371 		"/>
		<polygon fill="#FFFFFF" points="461.5,337.1 466,346.2 476.1,347.8 468.8,354.8 470.6,364.9 461.5,360.2 452.5,364.9 454.3,354.8 
			446.9,347.8 456.9,346.2 		"/>
		<g>
			<g opacity="0.3">
				<polygon fill="#1176BA" points="246.3,304.3 237.7,263 235.4,267.3 242.3,295.1 192.6,256.4 181.9,205.2 224.2,205.2 227,208.9 
					229.9,204.8 268,204.3 317.1,367.5 				"/>
				<polygon fill="#1176BA" points="254.5,204.2 309.4,204.2 314.5,237.7 320.7,203.5 372.4,204.3 313.9,388.1 				"/>
				<polygon fill="#1176BA" points="317.5,341.2 358.9,204.6 434.2,204.5 420.2,259.7 370.7,304 370.5,305 332.1,349.2 				"/>
			</g>
			<path opacity="0.18" fill="#185A73" enable-background="new    " d="M447.4,535.8c0-15.4-57.4-27.8-128.3-27.8
				s-128.3,12.4-128.3,27.8c0,7.4,13.3,14.1,35.1,19.1c-0.2,0.8-0.5,1.6-0.5,2.2c0,9.3,16.9,16.6,37.8,16.6c16,0,29.6-4.4,35.1-10.5
				c6.7,0.2,13.6,0.3,20.5,0.3c6,0,11.8-0.2,17.6-0.3c1.9,10,19.3,18,40.3,18c22.4,0,40.5-8.9,40.5-19.9c0-2.5-0.9-4.9-2.7-7.2
				C435,549.4,447.4,542.8,447.4,535.8z"/>
			<g>
				<polygon fill="#FFFFFF" points="192.6,213.7 220,213.7 227.7,223.4 234.4,213.2 261.5,213.1 300,340.7 254.2,299.8 241.3,238.3 
					233,253.7 219.1,237.6 227.8,273 200.4,251.5 				"/>
				<polygon fill="#FFFFFF" points="266.4,212.8 302,212.8 313.9,290.1 327.7,212.3 360.6,212.8 313.9,360 				"/>
				<polygon fill="#FFFFFF" points="365.2,213.1 423.2,213.1 412.5,255 370.7,292.7 384.5,246.5 396.7,246.6 399.4,237.2 
					381.8,237.2 362.8,300.7 325.7,343.5 				"/>
			</g>
			<g>
				<path fill="#AFE0E5" d="M277.2,557.9c-0.9,0-2,0-3-0.2c-0.2,0-0.5,0-0.6,0h-0.3c-0.6,0-1.3,0-1.9-0.2c-0.3,0-0.6,0-0.9,0h-0.2
					c-0.6,0-1.1-0.2-1.7-0.2c-0.3,0-0.8-0.2-1.1-0.2c-0.6,0-1.1-0.2-1.6-0.2c-0.3,0-0.6-0.2-1.1-0.2c-0.6-0.2-1.1-0.2-1.6-0.3h-0.2
					c-0.3,0-0.6-0.2-0.8-0.2c-0.6-0.2-1.1-0.3-1.7-0.3h-0.2c-0.2,0-0.5-0.2-0.6-0.2c-0.8-0.2-1.6-0.5-2.2-0.6h-0.2
					c-0.8-0.3-1.6-0.5-2.4-0.8c-0.2,0-0.3-0.2-0.6-0.2h-0.2c-0.5-0.2-1.1-0.5-1.6-0.6c-0.2-0.2-0.5-0.2-0.6-0.3H252
					c-0.5-0.2-0.9-0.5-1.4-0.6c-0.3-0.2-0.5-0.3-0.8-0.5c-0.5-0.2-0.8-0.5-1.3-0.6c-0.3-0.2-0.5-0.3-0.8-0.5
					c-0.5-0.3-0.8-0.5-1.3-0.8l0,0c-0.2-0.2-0.5-0.3-0.6-0.5c-0.5-0.3-0.8-0.6-1.3-0.9h-0.2c-0.2-0.2-0.3-0.3-0.5-0.3
					c-0.5-0.3-0.9-0.8-1.4-1.3l-0.2-0.2c-0.6-0.5-1.1-0.9-1.7-1.6c-0.2-0.2,3.4,3,3.3,2.8c-0.3-0.5-4.4-4.1-4.7-4.4
					c-0.2-0.2-0.3-0.3-0.5-0.6v-0.2c-0.3-0.3-0.6-0.6-0.8-1.1c-0.2-0.2-0.3-0.5-0.5-0.6c-0.3-0.3-0.5-0.6-0.8-1.1
					c-0.2-0.3-0.3-0.5-0.5-0.8c-0.2-0.3-0.5-0.8-0.6-1.1v-0.2c-0.2-0.2-0.3-0.3-0.3-0.6c-0.2-0.3-0.5-0.8-0.6-1.3v-0.2
					c-0.2-0.2-0.2-0.3-0.3-0.5c-0.3-0.5-0.5-0.9-0.6-1.6c0-0.2-0.2-0.3-0.2-0.3c-0.3-0.6-0.5-1.3-0.8-1.9c0-0.2-0.2-0.3-0.2-0.5
					c-0.2-0.5-0.3-0.9-0.5-1.4c0-0.2-0.2-0.3-0.2-0.6v-0.2c-0.2-0.5-0.2-0.8-0.3-1.3c0-0.2-0.2-0.5-0.2-0.8
					c-0.2-0.5-0.2-0.8-0.3-1.3c0-0.3-0.2-0.5-0.2-0.8c0-0.5-0.2-0.8-0.2-1.3c0,0-0.2-0.5-0.2-0.8c0-0.5-0.2-0.9-0.2-1.3v-0.2
					c0-0.2,0-0.3,0-0.6c0-0.5-0.2-1.1-0.2-1.7v-0.3c0-0.2,0-0.2,0-0.3c-0.2-2.7,0-5.5,0.3-8.3c0.5-3.6,0.9-7.1,1.4-10.2
					c-9.4-11.1-16.8-23.5-21.5-36.5h-0.2c-0.6,0.2-1.1,0.2-1.7,0.2h-0.5c-0.5,0-0.9,0-1.4,0c0,0-0.3,0-0.5,0c-0.5,0-0.9,0-1.6-0.2
					c-0.2,0-0.3,0-0.5,0c-0.5,0-1.1-0.2-1.6-0.2c0,0-0.2,0-0.3,0c-0.5-0.2-0.9-0.2-1.3-0.3c-0.2,0-0.3,0-0.5-0.2
					c-0.5-0.2-0.9-0.3-1.4-0.5l-0.3-0.2c-0.5-0.2-0.8-0.3-1.1-0.5l-0.5,0.8c-0.5-0.2-0.9-0.3-1.3-0.6c0,0-0.2-0.2-0.3-0.2l4.1-8.3
					l-4.1,8.3c-0.3-0.2-0.6-0.3-0.9-0.5l-0.3-0.2c-0.3-0.2-0.8-0.5-1.1-0.6c0,0-0.3-0.3-0.5-0.3c-0.3-0.2-0.5-0.3-0.8-0.6l-0.3-0.2
					c-0.3-0.2-0.5-0.3-0.6-0.6c-0.2,0-0.2-0.2-0.3-0.2c-5.8-4.9-8-11.3-5.6-16.6l0,0c0,0-0.2-0.2-0.3-0.2l-0.3-0.2l-0.5-0.2
					c-0.2,0-0.2,0-0.3-0.2h-0.2c-0.2,0-0.3,0-0.5-0.2h-0.2c-0.2,0-0.3,0-0.5-0.2h-0.2c-0.2,0-0.3,0-0.5,0h-0.3c-0.2,0-0.3,0-0.6,0
					H181c-0.3,0-0.6,0-0.9,0c-8.9-0.2-20.2-3.4-25.7-12.4c-1.9-3-3-6.3-3-9.6c0-0.3,0-0.6,0-0.9c0-1.3,0.2-2.5,0.6-3.6
					c1.6-6,6.4-11,14.3-15.1c5.6-3,12.1-4.5,19.1-4.5c8,0,15.7,2,22,4.2c0.9-3.9,2.2-7.8,3.4-11.6c-0.6-0.5-1.3-1.1-2-1.6
					c-6-4.2-13-12.1-14.4-25.2c-2-11.4,0.3-22.7,3.8-29.8c-0.2-1.6,0.2-3.1,0.8-4.5c0.8-1.9,2-3.6,3.4-5c0.5-2.2,1.6-4.2,3.4-5.8
					c4.9-3.6,9.9-4.4,12.9-4.9c0.5,0,0.9-0.2,1.3-0.2c5-2,10.7-3.1,16.2-3.1c11,0,20.9,4.2,26.8,11.3c9.1-4.5,19.4-7.7,31.7-9.6
					c4.5-0.6,9.3-1.1,13.8-1.1c9.1,0,18,1.4,26.8,4.1c6.4-13,19.8-17.9,30.6-17.9c0.5,0,0.8,0,1.1,0c2.8,0.2,5.6,1.6,7.2,3.9
					c0.5,0.6,0.8,1.3,1.1,1.9c16.9,0.9,27,12.9,30.3,20.1c1.3,2.5,7.2,15.7,2,28.9c-1.6,3.9-4.5,8.9-10.3,13c1.6,2.4,3,4.9,4.2,7.2
					c0,0,0.5,0.9,0.6,1.3c0.9,0,2-0.2,3-0.2c13.3,0,19.3,7.1,22.3,10.3l0.9,1.1c0.3-0.2,1.1-0.3,1.1-0.3c0.3-0.2,0.6-0.2,0.9-0.3
					h0.2c0.3-0.2,0.6-0.2,0.9-0.3h0.2c1.9-0.5,3.6-0.9,5.2-0.9c0.2,0,0.2,0,0.3,0c0.3,0,0.8,0,1.1,0h0.3c0.2,0,0.2,0,0.3,0
					c0.8,0,1.6,0,2.2,0.2c0.5,0,0.9,0.2,1.4,0.3c1.1,0.3,2.7,0.8,4.2,1.6c0.3,0.2,0.6,0.3,0.9,0.5c4.9,3,8,8.3,9.4,15.8
					c0.6,3.1,0.6,6.3,0,9.4c7.7,6.4,13.6,14.9,16.9,24.5c5.8,16.6,3.3,35.4-6.9,49.9l-1.1,1.4c-0.2,0.2-0.3,0.3-0.5,0.6
					c-6.6,8.6-15.5,15.2-25.9,18.8c-0.2,0-0.3,0.2-0.5,0.2c-0.2,0.2-0.5,0.2-0.6,0.2l-0.3,0.2c-0.6,0.2-1.3,0.5-1.9,0.5
					c-4.9,1.4-9.9,2-15.1,2c-2.7,0-5.3-0.2-7.8-0.6v0.2c-2.8,9.7-11.6,39.4-36.5,40.3c-0.5,0-0.9,0-1.4,0c-12.5,0-26-6.4-36.2-17.2
					l-0.2-0.2c-0.5-0.5-0.9-0.9-1.3-1.4l-0.2-0.2c-0.5,0-1.6,0.2-1.6,0.2c-0.9,0.2-1.7,0.2-2.5,0.3h-0.5c-0.8,0.2-1.4,0.2-2.2,0.2
					h-0.6c-0.6,0-1.4,0.2-2.2,0.2h-0.6c-0.6,0-1.4,0.2-2,0.2h-0.6c-0.8,0-1.4,0.2-2.2,0.2c0,0-1.7,0.2-2.4,0.2
					c-0.2,0.5-0.2,0.8-0.3,1.3c0,0.2-0.2,0.3-0.2,0.6v0.2c-0.2,0.5-0.3,0.9-0.5,1.4c0,0.2-0.2,0.5-0.3,0.6v0.2
					c-0.2,0.5-0.3,0.8-0.5,1.3c0,0.2-0.2,0.5-0.3,0.8v0.2c-0.2,0.5-0.3,0.8-0.5,1.3c-0.2,0.3-0.3,0.6-0.5,0.8
					c-0.2,0.5-0.5,0.8-0.6,1.1s-0.3,0.6-0.5,0.8c-0.2,0.3-0.5,0.8-0.6,1.1l-0.2,0.2c-0.2,0.2-0.3,0.5-0.3,0.6
					c-0.3,0.5-0.6,0.8-0.9,1.3c-0.2,0.2-0.3,0.5-0.5,0.6c-0.5,0.6-0.9,1.3-1.4,1.7c-0.2,0.2-0.3,0.3-0.3,0.5l0,0
					c-0.5,0.5-0.8,0.9-1.3,1.3c-0.2,0.2-0.3,0.3-0.5,0.5l-0.2,0.2c-0.3,0.3-0.8,0.6-1.1,0.9c-0.2,0.2-0.5,0.3-0.6,0.6l0,0
					c-0.3,0.3-0.8,0.6-1.1,0.9c-0.3,0.2-0.5,0.5-0.8,0.6c-0.3,0.3-0.8,0.5-1.1,0.8c-0.3,0.2-0.6,0.3-0.9,0.6
					c-0.5,0.3-0.8,0.5-1.3,0.8l-0.2,0.2c-0.3,0.2-0.5,0.3-0.8,0.3c-0.5,0.3-0.9,0.5-1.6,0.8h-0.2c-0.2,0.2-0.5,0.2-0.6,0.3
					c-0.8,0.3-1.6,0.6-2.4,0.9c-0.2,0-0.3,0.2-0.5,0.2c-0.6,0.3-1.3,0.5-1.9,0.6c-0.3,0-0.5,0.2-0.8,0.2H294
					c-0.5,0.2-1.1,0.3-1.6,0.5c-0.3,0-0.6,0.2-0.9,0.2h-0.2c-0.5,0.2-1.1,0.2-1.6,0.3c-0.3,0-0.8,0.2-1.1,0.2
					c-0.6,0.2-1.1,0.2-1.6,0.3c-0.3,0-0.8,0.2-1.1,0.2c-0.6,0-1.1,0.2-1.7,0.2h-0.2c-0.3,0-0.6,0-0.9,0.2c-0.6,0-1.3,0.2-1.9,0.2
					H281c-0.3,0-0.5,0-0.8,0c-0.8,0-1.4,0-2.2,0C277.7,557.9,277.5,557.9,277.2,557.9z"/>
				<g>
					<path fill="#E2E3ED" d="M376.6,537.2c-20.2,0.8-42.5-20.4-42.7-42.8c-0.2-22.4,9.7-41.9,40.1-37.2
						c30.6,4.7,36.8,22.1,31.8,41.2C401.1,517.6,392.9,536.6,376.6,537.2z"/>
					<path fill="#E2E3ED" d="M374.3,485.6c8.6-7.8,21-13.2,31.5-8.2c-3.6-9.7-13.2-17.2-31.7-20.2c-30.6-4.7-40.3,14.7-40.1,37.2
						c0,6.3,1.7,12.5,4.7,18c0-0.3,0.2-0.5,0.3-0.8C350,501.6,363,495.5,374.3,485.6z"/>
					<path fill="#D7DAE7" d="M406,477.3c-10.7-4.9-23,0.5-31.5,8.2c-11.3,10-24.3,16.2-35.1,26c-0.2,0.3-0.3,0.5-0.3,0.8
						c2,3.8,4.4,7.2,7.4,10.2c3.8,0.5,7.7,0.2,11.3-0.2c1.7,0,3.4-2.2,5.2-2.7c3.4-0.9,6.9,0,10-1.7c6.1-2.7,11.8-5.2,18.2-7.4
						c5.2-2.2,10.5-5.6,11.8-12.2c0,2.4,0.8,4.1,2,5c0.5-1.7,0.9-3.4,1.4-5.2C408,490.9,408.2,483.7,406,477.3z"/>
					<path fill="#F1EFEE" d="M218,415.2c0,0-27-17.6-47.4-6.9c-20.4,10.7-5.2,23.8,9.7,24.1c15.1,0.2,15.8,10.3,13.6,14
						c-2.2,3.4,12.4,18,27,2.2C235.5,432.6,218,415.2,218,415.2z"/>
					<path fill="#E2E3ED" d="M220.9,448.5c1.4-1.4,2.4-3,3.3-4.4c-7.7,5.6-17.6,8.2-27,8.3C202.1,456.1,211.5,458.6,220.9,448.5z"/>
					<path fill="#E2E3ED" d="M202.3,438.3c2.2-3.9-2.2-6.6-6.1-6.6c-11.4-0.3-26.3-5.6-35.6-13.2c0.2,10.2,11.8,13.6,19.8,13.8
						c12.1,0.2,15.1,6.9,14.6,11.3C198,442.8,200.7,441.2,202.3,438.3z"/>
					<path fill="#CA6C29" d="M296.2,318.9c58.6-8.8,104.9,45.8,111.5,98s5,77.6-23.8,90c-28.9,12.2-108.4,22-132.7,0.3
						c-24.1-21.5-50.3-62.7-31.5-116S265.5,323.6,296.2,318.9z"/>
					<path opacity="0.4" fill="#BE9568" enable-background="new    " d="M306.1,356.1c0.2,0.8,0,1.3-0.6,1.4
						c-3.1-1.4-9.3-7.2-9.3-0.9c-2.5-0.9-5.3-2.4-8.3-1.7c0,6.1-5.5,0.9-8.6,3.3c-1.9,1.4-2.2,9.4-2,11.6c-2.5,0.2-5.2,0-7.7,0.2
						c-0.5,3.3,2.8,3.1,3,5c0.6,4.7-0.8,2.4-2.8,6.4c-2.2,4.2-1.1,6-1.7,11.1c-4.1,0.2-6.6,3.6-3.1,6.4c-6.7,0.3-5,5.2-6,9.3
						c7.2,2,1.6,3.9,1.9,7.8c0.6,5.5,0.9,2.5,4.1,6c2.8,3.3,5.3,15.5,10.3,10.8c6.9,6.7,10.3,5.6,19.4,3.3c2.4-0.6,3.9-2.4,6.6-2.5
						c2.4-0.2,4.4,1.7,7.2,1.3c3.3-0.5,7.2-3,11-3.6c6-1.1,8.3-0.2,13.8-0.2c4.2,0,5-2.4,9.7-0.6c4.9,1.7,3.1,3.4,8.6,1.6
						c4.5-1.6,4.1-4.7,8.9-1.6c2.4-5.3,2.5-8.3,6.3-12.5c3.4-3.8,9.3-10.5,0.9-13c0.2-1.6-0.8-10.8-1.4-12.2c-1.9-4.1-2-4.4-7.7-3.9
						c-0.3-6,2.8-16.3-5.2-16.9c-0.2-2.4,0.8-6.7-0.3-8.9c-1.3-2.4-3.8-2-4.9-3.6c-1.4-1.7-1.3-5.8-2.8-6.9
						c-4.7-3.6-6.3,2.2-8.8,2.5c-5,0.8-2-2.7-6.7-5.8c-4.5-3-7.5,0.6-9.7,1.9c-0.5,0.3,0.2,2.7-1.3,3.3c-1.4,0.6-1.9-1.6-3.3-1.4
						c-3.3,0.6-7.4-1.3-6.4,3.6c-1.9-1.3-1.7,0.6-2.7,0.9"/>
					<path opacity="0.1" fill="#764C29" enable-background="new    " d="M407.7,417.1c-1.9-15.4-7.4-31-15.5-45.2
						c-0.6,1.1-2.8,1.4-2.2,3.3c0.9,2.2,3.9,1.7,4.9,4.4c-1.3-0.5-1.7,0.9-2.7,0.9c1.7,3.4,3.4,6.9,2.2,10.8c-0.9,2.7-1.7,6.1,0,8.3
						c1.3,2.2,2.7,3.9,3.9,6.1c1.7,2.7,3.4,5.6,3,8.6c-1.3,12.2,1.7,25.7-9.6,34.8c-2.2,1.7,2.7,8.3,0.5,11.8
						c-0.9,2.2-5.6,1.3-6.6-1.7c-3,4.7-0.5,10.3-1.7,16.2c-0.5,1.7,1.3,5.2,0.5,8.3c-0.9,5.2-5.2,1.3-8.6,0.5c0,1.3,0,3-0.9,3.9
						c-1.3,2.2-3.9,1.7-6.6,3c-1.7,1.3-6.1,1.3-7.4-2.2c-0.9,4.4-2.7,6.9-7.4,5.6c-0.9,3-3.4,4.7-6.6,3.9c-0.9-0.5-1.7-1.3-1.7-2.7
						c-1.7,2.2-3.4,5.2-6.6,3.9c0,0,0-0.9,0-1.3c-2.7,1.3-1.7,4.7-3,5.6c-2.2,1.3-2.2-2.7-3-4.4c-0.9,2.7,0,6.6-3,6.9
						c-1.3,0.5-1.3-2.2-2.2-3.4c0.5,2.2-0.5,4.4-1.7,5.2c-2.7,1.3-4.4-0.9-6.6-2.2c0,1.7,0,3.4,0,5.2c-3-2.2-7.4-5.2-10.5-1.7
						c-0.5,0.9-1.3,1.7-1.3,2.7c-0.3,2.8,0,5.5,0.6,8c28.9-0.5,60.1-6.4,75.9-13.2C412.7,494.7,414.1,469.3,407.7,417.1z"/>
					<path opacity="0.1" fill="#764C29" enable-background="new    " d="M431.7,493.6c-24.1,8.5-50.5-4.4-59-28.5
						c-8.3-24.1,4.4-50.5,28.5-59c24.1-8.5,50.5,4.4,59,28.5C468.7,458.8,455.8,485.1,431.7,493.6z"/>
					<path opacity="0.1" fill="#764C29" enable-background="new    " d="M275.7,493.8c3.9,0,8.3,0.5,11.8-0.9
						c2.2-1.3,3.4-4.4,2.2-6.9c-0.9-1.3-2.7-1.7-3-2.7c-1.3-2.2,2.2-2.2,3.9-2.7c-3.4-0.9-6.1-0.9-7.4-5.2c0-0.9-3.9-0.5-6.1-1.7
						c0.5-0.5-0.5-0.9,0.5-0.9c-3,0-5.6-0.5-7.8-2.7c-1.3-1.7,3.4-2.7,1.3-3.4c-2.2-1.3-4.7-1.3-3.9-3.9c0.5-0.9,2.2-0.9,1.3-1.3
						c-3-1.3-9.6,0-9.1-3.9c0-2.2,3.9-2.2,4.9-4.7c-1.3-0.5-2.7-0.9-2.7-1.3c0-3.9-0.9-4.4-3.9-6.9c-1.3-1.3,1.7-3.9,2.2-6.6
						c-2.2,0-5.6,0.9-6.6-0.9c-0.9-3.4,0-5.6-3.4-8.3c-1.7-1.7,1.3-5.2,2.2-7.8c-2.2-0.9-5.6-0.9-6.6-2.7c-1.7-3.4,0.5-7.4,3.4-9.6
						c-2.2-1.3-7.4-1.7-4.9-4.7c0.8-0.9,3.9-1.7,3-3.4c-0.5-2.2-5.6-0.9-4.4-3.9c0.5-0.9,2.2-0.9,3-1.3c0,0,0-0.9,0-1.3
						c-0.9-0.5-2.2-0.5-2.7-1.3c-0.9-3.9,5.2-3.9,3.9-6.1c-1.3-1.7-3-3.9-2.2-6.1c0.9-0.9,1.7-2.2,1.3-3c0-0.9-2.2-0.9-2.2-1.7
						c-0.9-3,3.9-2.7,4.4-5.2c-0.9,0-1.7,0.5-2.2-0.5c0-0.9,0-1.7,0.5-2.2c1.3-0.5,3.4-0.5,3.9-1.7c1.3-1.7-3.4,0-2.7-2.7
						c0.9-1.3,3-0.9,2.7-2.7c0,0-0.9,0-1.3,0c-1.7-3.4,3.9-6.6,3.9-9.1c-0.9-5.2,2.2-6.9,5.2-9.6c-2.7-0.5-3.9-3.4-2.7-5.6
						c2.2-4.4,7.8-4.7,11.3-8.3c0-0.3-0.2-0.5-0.3-0.8c-18.5,9.6-34.5,27.8-47,63.3c-18.8,53.5,7.4,94.6,31.5,116
						c2,1.7,4.4,3.3,7.1,4.7c3-0.9,6-2.4,9.1-3.1C264.4,501.6,268.3,494.2,275.7,493.8z"/>
					<path fill="#F1EFEE" d="M309.2,384.3c34.2-3.9,44.4,8.6,44.4,21.3c0,12.5-8.6,28.7-39.5,33.1c-14.3,2-40-12.2-39-29.5
						C275.7,391.7,286.2,387,309.2,384.3z"/>
					<path fill="#E2E3ED" d="M303.1,423.8c-1.3-3.4-6.9-2.2-10.5-3.9c-1.7-1.3-2.7-3.9-3.4-4.4c-7.2-4.9-10-11.4-10.7-19.3
						c-2.2,3.3-3.3,7.4-3.6,12.7c-0.9,17.4,24.8,31.5,39,29.5c4.9-0.6,9.1-1.7,12.9-2.8c-2.4-0.6-4.4-2.5-6.4-2.8
						C313,432.1,306.1,432.1,303.1,423.8z"/>
					<path fill="#363939" d="M291.3,390c-0.5-5.8,38.1-11.8,42.8-4.9c4.5,7.1-16,17.7-19,18.2C312.2,403.8,292.3,403,291.3,390z"/>
					<g>
						<path fill="#363939" d="M290.6,374.8c0.5,4.7-1.1,8.6-3.4,8.9c-2.4,0.3-4.7-3.3-5.3-8c-0.5-4.7,1.1-8.6,3.4-8.9
							C287.7,366.4,289.9,370,290.6,374.8z"/>
					</g>
					<path fill="#525556" d="M288,371.9c0.2,1.9-0.5,3.4-1.4,3.6c-0.9,0.2-1.9-1.4-2.2-3.3c-0.2-1.9,0.5-3.4,1.4-3.6
						C286.9,368.5,287.9,370,288,371.9z"/>
					<g>
						<path fill="#363939" d="M340.9,371.3c0.5,4.7-1.1,8.6-3.4,8.9c-2.4,0.3-4.7-3.3-5.3-8c-0.5-4.7,1.1-8.6,3.4-8.9
							C338.1,363,340.4,366.6,340.9,371.3z"/>
					</g>
					<path fill="#525556" d="M338.5,368.3c0.2,1.9-0.5,3.4-1.4,3.6c-0.9,0.2-1.9-1.4-2.2-3.3c-0.2-1.9,0.5-3.4,1.4-3.6
						C337.3,365,338.2,366.4,338.5,368.3z"/>
					<g>
						<path opacity="0.1" fill="#764C29" enable-background="new    " d="M245.9,341.4l-3.9,6.7c75.4,19.6,120.3-10.3,120.3-10.3
							c-1.1-2-2.7-4.4-4.5-6.6C338.7,335.9,310.3,356.7,245.9,341.4z"/>
						<path fill="#F1EFEE" d="M255.9,335.7c43.7-3.6,31.8,5.5,102.4-8.9c0,0-1.3-6.3,4.5,4.2c0,0-45.5,31.4-114.6,15.4L255.9,335.7z
							"/>
						<path fill="#BE202E" d="M259.2,332.1l-3.3,5.6c46.6,5.5,80-5,107.4-12.1c-5.5-3.4-2-5.6-2-5.6
							C291,334.3,259.2,332.1,259.2,332.1z"/>
						<path fill="#2A3B8F" d="M249.5,342.3l-3.6,5.5c69.1,16,108.5-7.5,108.5-7.5c-0.9-1.7-0.8-4.4-2.5-6.1
							C334.5,337.9,308.4,354.7,249.5,342.3z"/>
						<path fill="#2A3B8F" d="M249.5,342.3l-3.6,5.5c69.1,16,108.5-7.5,108.5-7.5c-0.9-1.7-0.8-4.4-2.5-6.1
							C334.5,337.9,308.4,354.7,249.5,342.3z"/>
						<path opacity="0.4" fill="#949292" enable-background="new    " d="M284.4,331.3c0,0,3,9.6-6.7,21.5c0,0-25.1-2.8-31.8-5.2
							v-3.3l12.9-12.4C258.6,332.1,281,331.5,284.4,331.3z"/>
					</g>
					<g>
						<g>
							<line fill="none" x1="228.3" y1="359.1" x2="243.7" y2="344.5"/>
						</g>
						<g>
							<g>
								<path fill="#CA6C29" d="M247.4,347.8c0,0-11.8,4.2-11.6,15.5c-9.6,5.6-15.1-7.7-15.1-7.7l2.5-9.6l14.3-8.2L247.4,347.8z"/>
							</g>
							<g opacity="0.29">
								<path fill="#5F3A18" d="M247.4,347.8c0,0-11.8,4.2-11.6,15.5c-9.6,5.6-15.1-7.7-15.1-7.7l2.5-9.6l14.3-8.2L247.4,347.8z"/>
							</g>
							<g>
								<path fill="#F1EFEE" d="M258.3,329c-4.7-10.7-21.2-14.7-35-9.1c-2.5,0.9-7.4,0.5-11.8,3.8c0.8,1.3,0.3,2.4,0,3.6
									c-1.3,0.2-3.1,1.4-4.1,3.4c0.9,0.2,0.6,2.2,0.2,3c-5.3,8-10.3,35.3,11.6,48.9c9.1,2.7,23.5-22.4,13.6-22.7
									c-9.9-0.3-3.8-27.3,12.1-12.7C250.3,350.6,265.3,344.3,258.3,329z"/>
							</g>
							<g>
								<path fill="#E2E3ED" d="M206.4,341.7c0.9,4.5-0.2,9.4-0.2,9.4l5,2.8l2,8.5c0,0,7.1-3.1,10.2-2.4c3.1,0.8,3.4,6.6,3.4,6.6
									l4.4,0.5l3,3.4l-10.7,13.2C223.6,383.5,194.7,376.9,206.4,341.7z"/>
							</g>
						</g>
					</g>
					<g>
						<g>
							<path fill="#CA6C29" d="M370.2,349.4c6.3-1.7,17.9-20.1,0.3-26.3c-17.6-6.3-17.9,15.2-17.9,15.2S365.7,335.1,370.2,349.4z"/>
						</g>
						<g>
							<g opacity="0.29">
								<path fill="#5F3A18" d="M354.7,338.4c0,0,11.8-2.4,15.1,11.4c8.5,8.3,16-8,16-8l-5-14.7l-18.2-0.9L354.7,338.4z"/>
							</g>
							<g>
								<path fill="#F1EFEE" d="M341.5,323.2c4.1-19.1,23.2-19.1,25.1-19c1.9,0.2-3.4,6.7,4.1,5.8c19.4-1.6,26.7,14.7,26.7,14.7
									s14.3,27.1-16.8,35.6c-15.7,1.7-15.1-10.8-15.1-10.8s15.8-4.2,10.7-14.4c-2.2-4.4-9.6-5.3-13.5-3.3
									c-5.3,2.7-7.4,9.4-9.1,8.3C344.3,338.5,338.7,332.4,341.5,323.2z"/>
							</g>
							<g>
								<path fill="#E2E3ED" d="M349,339c13.5-17.6,22-9.3,24.5-6.4c-13-3.6-19,7.5-19,7.5S351.6,340.1,349,339z"/>
							</g>
						</g>
					</g>
					<g>
						<g>
							<defs>
								<path id="SVGID_3_" d="M436.7,494.7c-24.1,8.5-50.5-4.4-59-28.5c-8.5-24.1,4.4-50.5,28.5-59c24.1-8.5,50.5,4.4,59,28.5
									C473.5,459.9,460.8,486.4,436.7,494.7z"/>
							</defs>
							<clipPath id="SVGID_4_">
								<use xlink:href="#SVGID_3_"  overflow="visible"/>
							</clipPath>
							<path clip-path="url(#SVGID_4_)" fill="#9F4B24" d="M436.4,494.9c-24.1,8.5-50.5-4.4-59-28.5c-8.5-24.1,4.4-50.5,28.5-59
								c24.1-8.5,50.5,4.4,59,28.5C473.2,460.1,460.4,486.6,436.4,494.9z"/>
						</g>
						<g>
							<defs>
								<path id="SVGID_5_" d="M436.7,494.7c-24.1,8.5-50.5-4.4-59-28.5c-8.5-24.1,4.4-50.5,28.5-59c24.1-8.5,50.5,4.4,59,28.5
									C473.5,459.9,460.8,486.4,436.7,494.7z"/>
							</defs>
							<clipPath id="SVGID_6_">
								<use xlink:href="#SVGID_5_"  overflow="visible"/>
							</clipPath>
							<g clip-path="url(#SVGID_6_)">
								<polygon fill="#010101" points="377.7,467.9 377.1,466.3 465.4,435.6 466,437.2 								"/>
							</g>
						</g>
						<g>
							<defs>
								<path id="SVGID_7_" d="M436.7,494.7c-24.1,8.5-50.5-4.4-59-28.5c-8.5-24.1,4.4-50.5,28.5-59c24.1-8.5,50.5,4.4,59,28.5
									C473.5,459.9,460.8,486.4,436.7,494.7z"/>
							</defs>
							<clipPath id="SVGID_8_">
								<use xlink:href="#SVGID_7_"  overflow="visible"/>
							</clipPath>
							<g clip-path="url(#SVGID_8_)">
								
									<rect x="373.3" y="451.4" transform="matrix(-0.3286 -0.9445 0.9445 -0.3286 130.971 997.5368)" fill="#010101" width="93.5" height="1.7"/>
							</g>
						</g>
						<g>
							<defs>
								<path id="SVGID_9_" d="M436.7,494.7c-24.1,8.5-50.5-4.4-59-28.5c-8.5-24.1,4.4-50.5,28.5-59c24.1-8.5,50.5,4.4,59,28.5
									C473.5,459.9,460.8,486.4,436.7,494.7z"/>
							</defs>
							<clipPath id="SVGID_10_">
								<use xlink:href="#SVGID_9_"  overflow="visible"/>
							</clipPath>
							<g clip-path="url(#SVGID_10_)">
								<path fill="#010101" d="M437.3,445.8c-4.9-14-6.3-28.4-3.8-40.3c2.5-12.1,8.6-20.4,17.1-23.4c8.6-3,18.5-0.2,27.9,7.7
									s17.2,19.9,22.1,33.9c4.9,14,6.3,28.4,3.8,40.3c-2.5,12.1-8.6,20.4-17.1,23.4s-18.5,0.2-27.9-7.7S442.2,459.7,437.3,445.8z
									 M499.1,424.3c-9.7-28.1-31.2-46.4-47.8-40.6s-22.1,33.4-12.2,61.5c9.7,28.2,31.2,46.4,47.8,40.6S509,452.4,499.1,424.3z"/>
							</g>
						</g>
						<g>
							<defs>
								<path id="SVGID_11_" d="M436.7,494.7c-24.1,8.5-50.5-4.4-59-28.5c-8.5-24.1,4.4-50.5,28.5-59c24.1-8.5,50.5,4.4,59,28.5
									C473.5,459.9,460.8,486.4,436.7,494.7z"/>
							</defs>
							<clipPath id="SVGID_12_">
								<use xlink:href="#SVGID_11_"  overflow="visible"/>
							</clipPath>
							<g clip-path="url(#SVGID_12_)">
								<path fill="#010101" d="M338.9,480.1c-4.9-14-6.1-28.4-3.8-40.3c2.5-12.1,8.6-20.4,17.1-23.4c8.6-3,18.5-0.2,27.9,7.7
									c9.4,7.8,17.2,19.9,22.1,33.9c4.9,14,6.3,28.4,3.8,40.3c-2.5,12.1-8.6,20.4-17.1,23.4c-8.5,3-18.5,0.2-27.9-7.7
									C351.6,506.2,343.7,494.1,338.9,480.1z M400.6,458.6c-9.7-28.2-31.2-46.4-47.8-40.6s-22.1,33.4-12.2,61.5
									c9.7,28.2,31.2,46.4,47.8,40.6C404.9,514.3,410.5,486.7,400.6,458.6z"/>
							</g>
						</g>
					</g>
					<path fill="#F1EFEE" d="M399.4,381c-12.7,2-25.4,24.1-22,32.5c8,19.6,26,0.3,36.5-1.4c14.1-2.4,14.1,7.5,23.5,6
						s11.8-11,10.5-17.2c-3.4-18.7-16.9-7.2-21.2-8.2C419.8,391.1,419.9,377.6,399.4,381z"/>
					<path fill="#E2E3ED" d="M429.5,395.1c3-2.2,5.6-4.4,9.1-5.2l0,0c-4.7,0-9.6,3.1-11.8,2.7c-2.5-0.5-4.1-2.7-6.1-5
						c0.9,2,1.6,4.4,2.8,6.3C424.3,395.6,427.3,396.5,429.5,395.1z"/>
					<path fill="#E2E3ED" d="M423.8,406.9c-3-1.3-6.1,0-8.6,0.9c-2.7,1.3-4.7,2.7-6.9,3.9c-9.7,4.9-25.2,6.7-31.4-3
						c-0.2,1.9,0,3.4,0.5,4.7c8,19.6,26,0.3,36.5-1.4c14.1-2.4,14.1,7.5,23.5,6c4.7-0.8,7.7-3.4,9.3-6.7
						C439.7,414.7,430.7,409.9,423.8,406.9z"/>
					<path fill="#F1EFEE" d="M263.6,469.8c19.9-3.6,45,14.1,48.3,36.4c3.3,22.1-3.6,42.8-34.5,42.5c-30.9-0.3-39.5-16.8-37.5-36.4
						C242.1,492.7,247.6,472.6,263.6,469.8z"/>
					<path fill="#E2E3ED" d="M277.2,548.6c27.1,0.3,35.8-15.5,35.3-34.5c-5.3,2.2-6.7,8.5-13,10c-3,0.9-3.4,5.6-6.9,6.9
						c-6.1,1.7-10.8,4.7-17.4,6.1c-15.2,3.1-28.4-5.3-35.6-17.9C240.2,535.6,250.3,548.3,277.2,548.6z"/>
					<path fill="#525556" d="M330.4,386.5c0.2,2.2-6.3,5.5-14.9,6.3c-8.6,0.6-13.6-1.9-13.8-4.1c-0.2-2.2,4.1-4.2,12.9-4.9
						C323,383.2,330.2,384.5,330.4,386.5z"/>
					<g>
						<path fill="#9C1B43" d="M301.2,417.1c0,0-6.1,6.4-14.3,6.3c-8.3-0.2-5,15.4,5,13c10-2.4,21.5-3.8,27.1-17.4l-2.7-1.9l-7.2,2.7
							L301.2,417.1z"/>
						<g>
							<path fill="#781033" d="M292.6,429.8c-0.3,0-0.6-0.3-0.6-0.6s0.3-0.6,0.6-0.6s11.8-1.3,15.7-9.3c0.2-0.3,0.6-0.5,0.9-0.3
								c0.3,0.2,0.5,0.6,0.3,0.9C305.1,428.5,292.8,429.8,292.6,429.8z"/>
						</g>
					</g>
					<path fill="#363939" d="M314.2,404.1l0.5,11.9c0,0-2.8,3.1-6.1,3c-3.3-0.3-5.6-2.2-6.3-2.7c-1.4-0.9-2.5,1.1-1.7,1.7
						c0.8,0.6,3.4,3.1,8,3.1s7.1-2.5,7.1-2.5s3,2.4,6.6,2.5c2.8,0.2,6.3-1.1,9.1-4.9c0.8-1.9-1.1-1.6-1.1-1.6s-3,4.5-7.2,4.2
						c-4.1-0.2-5.5-3.1-5.5-3.1l-0.5-11.9L314.2,404.1z"/>
					<path fill="#CC547F" d="M283.3,430.6c-0.9-5,1.1-6.6,3.3-6.7C286.5,424,283.5,425.6,283.3,430.6z"/>
				</g>
			</g>
		</g>
	</g>
</g>
</svg>
