<?xml version="1.0" encoding="utf-8"?>
<!-- Generator: Adobe Illustrator 18.0.0, SVG Export Plug-In . SVG Version: 6.00 Build 0)  -->
<!DOCTYPE svg PUBLIC "-//W3C//DTD SVG 1.1//EN" "http://www.w3.org/Graphics/SVG/1.1/DTD/svg11.dtd">
<svg version="1.1" id="Layer_1" xmlns="http://www.w3.org/2000/svg" xmlns:xlink="http://www.w3.org/1999/xlink" x="0px" y="0px"
	 viewBox="0 89.5 612 612.9" enable-background="new 0 89.5 612 612.9" xml:space="preserve">
<rect y="89.5" fill="#7BC3C2" width="612" height="612"/>
<g>
	<g>
		<defs>
			<filter id="Adobe_OpacityMaskFilter" filterUnits="userSpaceOnUse" x="114.8" y="188.5" width="368.3" height="368.3">
				<feColorMatrix  type="matrix" values="1 0 0 0 0  0 1 0 0 0  0 0 1 0 0  0 0 0 1 0"/>
			</filter>
		</defs>
		<mask maskUnits="userSpaceOnUse" x="114.8" y="188.5" width="368.3" height="368.3" id="SVGID_1_">
			<g filter="url(#Adobe_OpacityMaskFilter)">
				
					<radialGradient id="SVGID_2_" cx="189.8331" cy="606.2984" r="117.4518" gradientTransform="matrix(-8.120316e-02 -1.566 -1.4818 7.683858e-02 1211.4862 634.9972)" gradientUnits="userSpaceOnUse">
					<stop  offset="0" style="stop-color:#FFFFFF"/>
					<stop  offset="1" style="stop-color:#000000"/>
				</radialGradient>
				<polygon fill="url(#SVGID_2_)" points="299,409.2 348.3,188.5 433.7,237.9 317.7,420.1 483.1,323.3 483.1,422 317.7,441.7 
					433.7,507.4 348.3,556.8 299,452.5 249.6,556.8 164.2,507.4 280.2,441.7 114.8,422 114.8,323.3 280.2,420.1 164.2,237.9 
					249.6,188.5 				"/>
			</g>
		</mask>
		<g mask="url(#SVGID_1_)">
			<polygon fill="#D5D5D5" points="299,409.2 348.3,188.5 433.7,237.9 317.7,420.1 483.1,323.3 483.1,422 317.7,441.7 433.7,507.4 
				348.3,556.8 299,452.5 249.6,556.8 164.2,507.4 280.2,441.7 114.8,422 114.8,323.3 280.2,420.1 164.2,237.9 249.6,188.5 			"/>
		</g>
		<g opacity="0.3">
			<g>
				<polygon fill="#185A73" points="299,409.2 348.3,188.5 309.8,412.2 433.7,237.9 317.7,420.1 483.1,323.3 320.5,430.9 483.1,422 
					317.7,441.7 433.7,507.4 309.8,449.7 348.3,556.8 299,452.5 249.6,556.8 288.2,449.7 164.2,507.4 280.2,441.7 114.8,422 
					277.4,430.9 114.8,323.3 280.2,420.1 164.2,237.9 288.2,412.2 249.6,188.5 				"/>
			</g>
		</g>
	</g>
	<g opacity="0.2">
		<path fill="#185A73" d="M420.7,482c0,15.5-82,49.7-109.1,49.7c-61.8,0-112-12.5-112-28.2c0-15.5,50.2-28.2,112-28.2
			C373.3,475.4,420.7,466.5,420.7,482z"/>
	</g>
	<g>
		<g>
			<g>
				<path fill="#AFE0E5" d="M250.3,524.2c-0.5,0-1.4,0-1.9-0.2c-12.4-1.6-17.6-7.5-19.9-12.1c-2.4-4.9-2.4-10.7-0.3-16.9
					c-8.3-4.9-15.4-13.5-21.5-26c-0.2-0.3-0.3-0.5-0.5-0.8c-0.3-0.2-1.1-0.6-1.4-0.9c-0.9-0.6-1.9-1.3-2.8-2
					c-0.5-0.5-0.9-0.8-1.3-1.3c-0.6-0.6-1.3-1.4-1.9-2.2c-0.3-0.3-0.5-0.6-0.6-0.9c-29.2,29.3-30.3,30.1-30.9,30.6
					c-1.7,1.4-4.2,2.2-6.4,2.2c-0.9,0-2.4-0.2-3.1-0.5c-0.5-0.2-0.9-0.3-1.3-0.5c-0.8-0.3-1.6-0.8-2.4-1.3c-0.2,0-0.5-0.3-0.6-0.5
					c-0.6-0.5-1.3-0.9-2-1.6c-0.2,0-0.5-0.5-0.6-0.5c-0.5-0.3-0.9-0.8-1.6-1.4c-4.9-4.7-12.4-13.2-12.4-20.4c0-3,1.1-5.8,3.1-8
					c1.3-1.4,3.6-3.9,6.7-7.2c7.8-8.6,20.1-22,30.7-32.6c-3.1-3.1-6.1-6.1-7.8-7.7c-6.6-6-4.7-15.1-0.2-25.7
					c-1.6,1.4-3.6,2.4-5.8,2.7c-0.3,0-0.6,0-0.9,0c-3.1,0-6-1.4-7.8-3.9l-10.2-13.5c-2.5-3.4-2.7-8.2-0.2-11.6
					c8.8-12.5,19.1-16.6,26.7-17.7c0-0.8,0-4.1,0-4.1c0.2-2.7,0.2-4.7,0.3-6.6c0,0,0.3-3.6,0.5-4.1c-6.7-1.7-12.2-5.5-15.5-11
					c-1.9-3-2.8-6.3-3.1-9.6c-0.3-0.3-0.5-0.6-0.8-0.9c-1.7-2.5-2.4-5.6-1.7-8.8c0-0.2-0.2-0.3-0.2-0.3c-0.2-0.2-0.3-0.8-0.5-1.6
					c-0.2-0.6-0.3-1.7-0.3-2.4c0-0.5,0-1.3,0-2c0-0.3,0.2-1.1,0.3-1.4c0.3-1.1,0.5-1.7,0.8-2.4c0.2-0.3,0.5-1.1,0.8-1.6
					c0.5-0.8,0.8-1.3,1.3-1.9c0.2-0.3,0.8-1.1,1.1-1.3c0.3-0.3,0.6-0.6,1.1-1.1c0.2-0.2,0.8-0.6,0.9-0.8c0.6-0.5,1.3-1.1,2-1.6
					c6.6-4.5,13.3-6.9,20.1-6.9c6.6,0,12.9,2.2,18.3,6.4c0,0,1.6-1.1,2.2-1.6c0.6-0.3,0.9-0.6,1.3-0.8c0.8-0.5,1.6-0.9,2.4-1.3
					l5.5,8.3l-4.7-8.8c0.5-0.3,0.9-0.5,1.6-0.8l0.6-0.3c1.9-0.8,3.8-1.6,5.8-2.2c1.6-0.5,3.4-1.1,5.3-1.6l12.9-4.1l4.2,9.1l-3.1-9.4
					l1.3-0.3l3.9,9.1l-3-9.4l7.8-2.4l6.3-1.7l5.3-1.4l3.1-0.8l2.7-0.6c0.9-0.2,4.5-0.9,4.5-0.9s3.3-0.5,4.4-0.6
					c0.8-0.2,1.6-0.2,2.4-0.3l2,9.7l-0.9-9.9l0.6-0.2l1.9-0.2c0.8,0,1.6-0.2,2.4-0.2l1.6,9.9l-0.5-9.9c0.8,0,1.7,0,2.5,0
					c0.8,0,1.4,0,2.2,0h0.2c4.1-10.7,12.9-17.7,24.9-19.4c0.6-0.2,1.3-0.3,1.9-0.3c1.3-0.2,2.7-0.2,4.1-0.2h1.7
					c9.7,0.3,14.9,6.1,15.7,11.6c2.5,2.5,3.6,6,3.1,9.4c1.7,3.1,2.7,6.9,2.5,10.7c0,5.8-2.4,11.3-6.4,16.2c0.6,0.6,1.4,1.4,2,2
					c4.4-4.9,8.9-9.7,13.2-14.3c0,0,7.5-8,10.2-10.7c3.4-3.6,6.3-6.4,7.8-8.3l8,6l-7.4-6.6l0.6-0.6c1.6-1.9,5.3-6.6,11.6-6.6
					c5.8,0,9.7,4.1,13,7.2c0.8,0.8,1.4,1.3,2,1.9c1.1,0.9,2.2,2,3.3,3.3c0.3,0.3,0.6,0.6,0.8,0.9c0.3,0.5,0.6,1.1,0.9,1.7
					c0.3,0.8,0.8,1.9,1.1,3.1c0.2,0.6,0.3,1.9,0.3,2.5c0,1.6-0.3,2.8-0.8,4.1c-0.2,0.5-0.3,1.1-0.6,1.7c-0.3,0.8-0.9,1.9-1.7,3
					c-0.2,0.3-0.5,0.6-0.6,0.9c-0.9,1.3-1.9,2.4-3.1,3.8c-1.9,2-10.3,11.1-10.3,11.1l-26.2,27.8c2.2,0.6,7.5,2.4,7.5,2.4l16.5,5.5
					l-1.9,9.9l3.1-9.4l1.7,0.6c3.8-2.7,9.3-6.4,16.2-6.4c4.4,0,8.6,1.6,12.2,4.5c1.9,1.6,3.6,3.4,5.3,5.6c0.3,0.3,0.6,0.6,0.8,0.9
					c0.2,0.2,1.6,2.2,1.9,2.7c0.6,0.9,1.3,2,1.9,3l0.8,1.3c0.8,1.6,1.6,3.1,2,4.7v0.2c0.5,1.6,0.9,3.1,1.3,4.5
					c0,0.3,0.2,1.3,0.2,1.4c0.2,1.3,0.3,2.5,0.2,3.8c0,0.6,0,1.3-0.2,1.9c-0.2,1.6-0.5,3-1.1,4.2c-0.2,0.5-0.5,1.1-0.8,1.7
					c-1.3,2.4-2.8,4.1-4.7,5.5c-0.8,0.5-1.7,1.1-3,1.7l-0.6,0.3c-1.1,0.5-2.2,1.1-3.4,1.7c-1.7,0.8-3,1.3-4.4,1.7l-0.6,0.2
					c-1.4,0.5-3,0.9-4.7,1.3l-0.8,0.2c-3.3,0.8-6.6,1.1-9.7,1.1H386c-2.2-0.2-4.2-0.5-6.3-0.9c0,0,0,0-0.2,0c-0.8,0.8-1.6,1.6-2,2.2
					c2.8,2.2,5,5,6.3,7.7c0.5,0.9,0.8,1.9,1.1,2.8c0,0.3,0.3,0.8,0.3,1.1c0.2,0.5,0.2,0.8,0.3,1.3c8,6.4,18.7,11.4,28.2,13.6
					c3.4-0.9,6.7-1.4,9.7-1.4c11.1,0,19,6.6,20.9,17.6c0.9,5.6-1.6,12.9-7.4,21c-0.2,0.2-0.3,0.5-0.5,0.6c-0.2,0.2-1.3,1.6-1.3,1.6
					c-0.9,1.3-1.7,2-2.5,3l-0.8,0.9c-1.1,1.1-2.2,2.4-3.3,3.4c0,0-0.5,0.5-0.6,0.6c-1.3,1.1-2.2,2-3.1,2.8l-0.9,0.8
					c-1.4,1.1-2.7,2-4.1,3c-0.2,0.2-0.5,0.3-0.6,0.3c-1.1,0.8-2.4,1.4-3.6,2.2l-0.9,0.5c-1.6,0.8-3,1.4-4.4,1.9c0,0-0.6,0.2-0.6,0.3
					c-1.7,0.5-3.4,0.9-5.2,1.1c-0.2,0-0.9,0.2-1.3,0.2c-0.8,0-1.6,0.2-2.2,0.2c-0.8,0-1.6,0-2.4-0.2c-0.5,0-0.8,0-1.3-0.2
					c-2.2-0.3-4.1-0.9-5.8-1.7c-0.3-0.2-1.1-0.5-1.4-0.8c-0.5-0.3-0.9-0.5-1.6-0.9c-2.4-0.2-4.7-1.1-6.4-2.7
					c-0.9-0.9-4.9-3.8-8.5-3.8c-0.6,0-1.1,0.2-1.7,0.3c-0.5,0.2-1.1,0.3-1.9,0.6l-4.2-8.9l3.4,9.3l-8.3,3.3l-10.8,4.4L325.4,471
					c-12.9,5.5-26,11.1-36.2,15.4l0,0c-0.8,7.5-4.7,15.2-11.4,22.3C270.8,516.2,259.2,524.2,250.3,524.2z"/>
			</g>
			<g>
				<path fill="#C32026" d="M427.3,434.8c0.3-0.3,0.5-0.6,0.8-0.9c0.2-0.2,0.3-0.3,0.5-0.6l0,0c4.1-5.6,6.7-11.1,6.1-14.1
					c-1.7-10.2-10.3-11.6-23.4-6.6c0.5-0.9,0.8-1.4,0.8-1.4c-12.5-2.7-25.1-9.1-34-16.6c-0.9-0.8-1.9-1.7-2.8-2.5
					c0.2-0.2,0.2-0.2,0.2-0.2c0.2-0.3,0.3-0.8,0.3-1.3c0-0.2,0-0.3,0-0.5c0-0.3,0-0.8-0.2-1.1c0-0.2,0-0.3-0.2-0.5
					c-0.2-0.5-0.3-0.9-0.5-1.4c-1.6-3.1-4.7-6-7.5-5.2c-4.4-9.4,6.3-17.4,10.5-20.2c1.3,0.6,2.5,1.1,3.9,1.6h0.2
					c1.4,0.3,3,0.6,4.4,0.6c0.2,0,0.5,0,0.6,0c3,0.2,6-0.2,8.8-0.8c0.2,0,0.5-0.2,0.6-0.2c1.4-0.3,2.7-0.6,3.9-1.1
					c0.2,0,0.3-0.2,0.5-0.2c1.1-0.3,2.2-0.8,3.3-1.3c0.2,0,0.3-0.2,0.3-0.2c1.1-0.5,2-0.9,2.8-1.4c0.2-0.2,0.3-0.2,0.5-0.3
					c0.8-0.5,1.4-0.8,2-1.3c0.6-0.5,1.1-1.1,1.6-1.9c0.2-0.2,0.2-0.5,0.3-0.8c0.2-0.5,0.3-1.1,0.5-1.7c0-0.3,0-0.6,0-0.9
					c0-0.6,0-1.4-0.2-2.2c0-0.3,0-0.6-0.2-0.9c-0.2-1.1-0.5-2.2-0.9-3.3c0,0,0,0,0-0.2c-0.5-1.1-0.9-2.4-1.6-3.4
					c-0.2-0.3-0.3-0.6-0.6-1.1c-0.5-0.8-0.9-1.6-1.4-2.4c-0.3-0.5-0.5-0.8-0.8-1.3c-0.2-0.3-0.5-0.6-0.6-0.9c0,0,0,0,0,0.2
					c-1.4-1.9-3-3.6-4.7-5c-8.6-7.2-17.6,5-21.2,5c-0.6-0.2-1.4-0.5-2.4-0.8c-0.2,0-0.5-0.2-0.6-0.2c-0.9-0.3-1.9-0.6-2.8-0.9
					c-0.5-0.2-0.8-0.3-1.3-0.5c-1.1-0.3-2.2-0.8-3.3-1.1s-2.4-0.8-3.4-1.1c-0.5-0.2-0.8-0.3-1.3-0.5c-1.1-0.3-2.2-0.8-3.3-1.1
					c-0.3-0.2-0.6-0.2-0.9-0.3c-1.4-0.5-2.8-0.9-4.2-1.4c-0.3-0.2-0.6-0.2-0.9-0.3c-3-0.9-6-1.9-8.6-2.7h-0.2l0,0
					c-1.1-0.3-2.2-0.6-3.3-0.9c-0.8-3.8-2-7.1-3.1-9.6c0.9-1.1,2.4-2.4,3.8-4.1l0,0c2.2-2.4,4.9-5,7.7-8.2l0,0
					c1.1-1.3,2.4-2.5,3.4-3.8l0,0c1.3-1.3,2.5-2.7,3.8-4.1c3-3.1,6-6.3,8.8-9.3c0.5-0.5,0.8-0.8,1.3-1.3c0.5-0.5,0.9-0.9,1.3-1.4
					c0.6-0.6,1.3-1.4,1.9-2l0,0c4.1-4.2,7.4-7.8,9.3-10c0.9-1.1,1.7-2,2.4-2.8c0.2-0.3,0.3-0.5,0.5-0.6c0.3-0.5,0.6-1.1,0.9-1.4
					c0.2-0.3,0.2-0.5,0.2-0.6c0.2-0.3,0.2-0.8,0.2-1.1c0-0.2,0-0.3,0-0.6s-0.2-0.6-0.3-0.9c0-0.2,0-0.2-0.2-0.3l0,0
					c-0.9-1.4-2.7-2.7-4.9-4.9c-5-5.2-6.3-5.6-9.9-1.3c-0.2,0.3-0.5,0.6-0.9,0.9c-0.2,0.2-0.5,0.5-0.6,0.6c-3,3.3-9.6,9.9-16.9,17.6
					l0,0c-0.5,0.5-0.9,0.9-1.4,1.4c-5.2,5.5-10.7,11.3-15.7,17.1l0,0c-0.8,0.8-1.6,1.7-2.2,2.5l0,0c-0.8,0.9-1.6,1.9-2.4,2.8
					c-1.4-1.7-3-3.6-4.7-5.3l0,0l-0.2-0.2l-0.3-0.3l0,0c-3.6-3.9-7.7-8-11.9-11.8c15.8-8.6,13-21.8,6-25.9c0,0,5-0.9,2.7-2.7
					c-2.4-1.9-5.3-2.4-5.3-2.4s0.2-1.1,1.9-1.6s1.3-4.4-5.3-4.7c-1.6,0-3.1,0-4.5,0.2v0.2c-13.6,1.3-19,11-20.1,20.7
					c-0.9-0.2-1.7-0.3-2.7-0.5c-0.8-0.2-1.6-0.3-2.4-0.3c-0.8,0-1.6-0.2-2.5-0.2c-0.8,0-1.6-0.2-2.4-0.2c-0.8,0-1.7,0-2.7,0.2
					c-0.8,0-1.6,0-2.5,0.2c-0.5,0-1.1,0.2-1.6,0.2l0,0c-0.2,0-0.5,0-0.8,0.2c-0.2,0-0.3,0-0.5,0c-0.8,0.2-1.7,0.2-2.5,0.3
					c-0.9,0.2-1.9,0.3-2.8,0.5c-0.2,0-0.3,0-0.5,0c-0.3,0-0.5,0-0.8,0.2c-0.5,0.2-0.9,0.2-1.4,0.3c-0.9,0.2-1.9,0.3-2.8,0.6
					c-0.9,0.2-1.7,0.3-2.7,0.6c-0.2,0-0.2,0-0.3,0s-0.3,0-0.3,0c-0.8,0.2-1.6,0.3-2.2,0.6c-0.9,0.2-1.9,0.5-2.7,0.6
					s-1.6,0.5-2.5,0.6c-0.3,0-0.5,0.2-0.8,0.2c-0.8,0.2-1.6,0.5-2.5,0.6c-0.9,0.3-1.9,0.5-2.8,0.8c-0.6,0.2-1.1,0.3-1.7,0.5
					c-0.3,0.2-0.8,0.2-1.1,0.3c-0.9,0.3-1.7,0.5-2.7,0.8c-0.9,0.3-1.7,0.6-2.7,0.8c-0.3,0.2-0.8,0.2-1.1,0.3c-0.2,0-0.3,0-0.3,0.2
					c-0.5,0.2-0.8,0.3-1.1,0.3c-0.9,0.3-1.7,0.6-2.7,0.9c-1.1,0.3-2.2,0.8-3.3,1.1c-1.9,0.6-3.6,1.1-5.3,1.7
					c-0.5,0.2-0.8,0.3-1.3,0.5c-0.2,0-0.3,0-0.3,0.2c-1.9,0.6-3.8,1.3-5.5,1.7c-1.6,0.5-3.1,1.1-4.7,1.7c-0.2,0.2-0.3,0.2-0.5,0.3
					c-0.5,0.2-0.9,0.5-1.4,0.8c-0.8,0.3-1.6,0.8-2.4,1.3c-0.3,0.2-0.6,0.5-0.9,0.6c-0.5,0.3-0.9,0.6-1.4,0.9
					c-0.5,0.3-0.9,0.6-1.4,1.1c-0.5,0.3-0.9,0.8-1.4,1.3c-0.3,0.3-0.8,0.6-1.3,1.1c-0.3,0.3-0.6,0.6-0.9,0.8
					c-0.5,0.5-0.9,1.1-1.4,1.6l-0.2,0.2c-6.7-8.8-18.2-14.9-32.6-5c-0.6,0.5-1.1,0.8-1.4,1.3l0,0c0,0,0,0-0.2,0.2
					c-0.3,0.3-0.5,0.5-0.6,0.8c-0.2,0.2-0.3,0.3-0.5,0.6c-0.2,0.3-0.3,0.5-0.5,0.6s-0.2,0.3-0.3,0.5c-0.2,0.2-0.2,0.5-0.2,0.6
					s0,0.3-0.2,0.5c0,0.2,0,0.3,0,0.5c0,0.2,0,0.3,0,0.3c0,0.2,0,0.3,0.2,0.3c0,0.2,0.2,0.2,0.2,0.3l0.2,0.2
					c0.2,0.2,0.2,0.2,0.3,0.2c0,0,0.2,0,0.2,0.2c0.2,0,0.5,0,0.6,0c1.7-0.6,2.5,0.3,2.5,0.3s-2.4,2-3.3,4.9s3.6,0.9,3.6,0.9
					c-3.8,7.4,1.1,19.9,19.1,18.7c-0.2,0.8-0.3,1.6-0.5,2.4c-0.2,1.1-0.5,2.2-0.6,3.3c-0.2,0.8-0.3,1.6-0.3,2.5
					c-0.2,1.1-0.3,2.4-0.5,3.4c-0.2,0.8-0.2,1.6-0.3,2.4c-0.2,1.9-0.3,3.6-0.3,5.5c0,0.5,0,0.9,0,1.3l0,0c0,0.2,0,0.2,0,0.3
					s0,0.3,0,0.3l0,0v0.2c0,0,0,0,0,0.2c0,1.1,0,2.2,0,3.4c0,2,0,4.1,0.2,6.1c0,0,0,0,0-0.2c0,0.3,0,0.8,0,1.1c0,0.6,0,1.1,0.2,1.7
					c-4.1-0.9-17.7-2.7-28.9,13.3l10.2,13.5c0,0,8.5-17.6,19.6-19.1c0.2,0.8,0.2,1.7,0.3,2.5c0,0.5,0.2,0.8,0.3,1.3l0.2-0.2
					c0,0.3,0.2,0.5,0.2,0.8l0,0c0,0.2,0,0.2,0,0.3l0,0c0.8,3.1,1.9,6.1,3.4,8.6c0,0.2,0,0.2-0.2,0.3l0,0c-1.1,2.4-2.7,5.5-4.2,8.6
					l0,0c-4.4,9.1-8.9,19.6-6,22.4c3.9,3.4,12.9,12.9,15.2,15.2c-15.4,14.3-38.3,40-44.4,46.6c-1.7,1.7,4.1,9.4,8.8,14l0,0
					c0.2,0.2,0.2,0.2,0.3,0.3c0.5,0.5,0.8,0.8,1.3,1.1c0.2,0.2,0.2,0.2,0.3,0.3c0.5,0.5,0.9,0.8,1.4,1.1c0.2,0,0.2,0.2,0.3,0.2
					c0.3,0.2,0.6,0.3,0.8,0.5c0.2,0,0.2,0,0.3,0.2c0.3,0.2,0.5,0.2,0.6,0c1.3-1.1,27.4-27.3,42.3-42.2c0.5,0.8,0.8,1.6,1.3,2.4
					c-0.2,0-0.3,0-0.5,0.2c-2.7,0.6-1.4,6,1.6,10.3l0,0c0.2,0.2,0.2,0.3,0.3,0.5c0.2,0.3,0.5,0.6,0.6,0.9c0.5,0.5,0.8,0.9,1.3,1.4
					c0.3,0.3,0.5,0.5,0.8,0.8c0.5,0.5,0.9,0.8,1.6,1.1c0.3,0.2,0.5,0.3,0.8,0.5c0.8,0.5,1.6,0.8,2.4,0.8h0.2
					c0.5,1.1,0.9,2.4,1.6,3.4l0,0c8.5,17.6,17.6,24.5,27,25.9c-0.2,0.3-0.3,0.6-0.5,0.8c-0.2,0.2-0.2,0.3-0.3,0.3l0,0
					c-5.2,8.2-9.7,21,8.3,23.4c6.9,0.9,30.7-15.1,29.8-31.7c0,0,0,0,0-0.2c0-0.6-0.2-1.1-0.2-1.7l-0.2-0.9c1.1-0.5,2.2-0.9,3.4-1.4
					l0,0c0.2,0,0.2-0.2,0.3-0.2c0,0,0.2,0,0.2-0.2c0.8-0.3,1.6-0.6,2.2-0.9l0,0c14.7-6.1,36.1-15.2,53.6-22.7
					c0.2-0.2,0.5-0.2,0.6-0.3c2.2-0.9,4.2-1.7,6.3-2.7c0.6-0.3,1.3-0.5,1.9-0.8c1.4-0.6,2.7-1.1,4.1-1.7c0.6-0.3,1.3-0.5,1.9-0.8
					c1.3-0.5,2.4-0.9,3.6-1.4c0.5-0.2,1.1-0.5,1.6-0.6c1.1-0.5,2.2-0.8,3.1-1.3c0.5-0.2,0.8-0.3,1.3-0.5c0.9-0.3,1.9-0.6,2.7-0.9
					c0.3-0.2,0.6-0.3,0.8-0.3c0.9-0.3,1.9-0.6,2.4-0.8c10.3-3.1,19.8,5.8,19.8,5.8c0.2-0.3,0.5-0.5,0.6-0.9l0,0
					c0.2-0.3,0.5-0.6,0.8-1.1c0.5,0.6,1.1,1.3,1.6,1.9c0.3,0.3,0.5,0.5,0.8,0.6c0.8,0.6,1.6,1.3,2.4,1.6c0.2,0.2,0.3,0.2,0.6,0.3
					c0.9,0.5,2,0.8,3.1,0.9c0.3,0,0.5,0,0.8,0c0.9,0.2,1.7,0.2,2.7,0c0.3,0,0.5,0,0.8,0c1.1-0.2,2.2-0.5,3.4-0.8
					c0.2,0,0.3-0.2,0.5-0.2c0.9-0.3,2-0.8,3-1.3c0.3-0.2,0.6-0.3,0.9-0.5c1.1-0.6,2-1.1,3.1-1.9c0.2,0,0.2-0.2,0.3-0.2
					c1.1-0.8,2.2-1.6,3.3-2.5c0.3-0.3,0.6-0.5,0.9-0.8c0.8-0.8,1.7-1.4,2.5-2.2c0.3-0.2,0.5-0.5,0.8-0.6c0.9-0.9,1.9-2,2.8-3
					c0.2-0.3,0.5-0.5,0.6-0.8C425.9,436.4,426.7,435.6,427.3,434.8z M208.5,386.5l-0.2,0.2c0,0,0-0.2-0.2-0.2
					C208.2,386.5,208.4,386.5,208.5,386.5z"/>
			</g>
			<g>
				<path fill="#AFE0E5" d="M411.8,406.1c-1.7,0-3.4-0.5-4.9-1.3c-2.4-1.4-4.2-3.6-4.9-6.4c0-0.2-3.9-20.4-3.9-20.4
					c-0.3-0.9-0.5-2-0.5-3.1c0.2-3.6,2-6.9,5.3-8.5l6.4-3.3c1.4-0.8,3-1.1,4.5-1.1c0.8,0,1.7,0.2,2.5,0.3c0.9,0.2,1.7,0.6,2.7,1.1
					l17.1,9.9c2.8,1.6,4.7,4.5,5,7.8l0.5,7.2c0.3,4.4-2.4,8.5-6.4,10l-19.9,7.2C414.1,405.8,413,406.1,411.8,406.1z"/>
			</g>
			<g>
				<path fill="#C32026" d="M407.5,375.1C407.5,375.1,407.7,375.1,407.5,375.1l4.1,20.9l0,0v0.3h0.2l0,0l19.9-7.2l-0.5-7.4l-0.8-0.5
					l0,0l-1.1-0.6l-6.3-3.6l0,0l-0.5-0.3l0,0l-7.2-4.1l0,0l-1.3-0.8l0,0H414L407.5,375.1z"/>
			</g>
			<g>
				<path fill="#AFE0E5" d="M163.9,358.3c-1.4,0-3-0.3-4.2-0.9l-20.9-10.5c-1.1-0.3-2-0.9-3-1.7c-2.7-2.4-4.1-5.8-3.4-9.3l1.4-8
					c0.5-2.4,1.7-4.5,3.6-6c0.8-0.6,1.6-1.3,2.5-1.6l20.5-8.5c1.3-0.5,2.5-0.8,3.8-0.8c1.9,0,3.8,0.5,5.5,1.6l6.9,4.5
					c3.8,2.4,5.3,7.1,4.1,11.3l-7.2,22.9c-0.3,1.1-0.9,2.2-1.6,3.1c-1.1,1.4-2.4,2.4-3.9,3.1C166.5,358,165.1,358.3,163.9,358.3z"/>
			</g>
			<g>
				<path fill="#C32026" d="M163.7,348.3L163.7,348.3l0.3,0.2v-0.2l0,0l7.2-22.9l-6.9-4.5l-20.5,8.5v0.2h-0.2l-1.4,8h0.2
					L163.7,348.3z"/>
			</g>
		</g>
		<g>
			<g>
				<path fill="#262728" d="M197.3,414.7c-14.6,11.9-43.1,44.2-50.2,51.7c-2.7,2.7,12.2,19,14.1,17.4s52.5-52.5,52.5-52.5
					L197.3,414.7z"/>
			</g>
			<g opacity="0.2">
				<path fill="#525050" d="M194.7,419.3c0,0-30.3,31.4-34.3,35.6c-4.2,4.2-13.6,11-8.3,18.2c0,0-3.3-4.7,8.5-15.1
					c11.8-10.3,35.6-36.5,35.6-36.5L194.7,419.3z"/>
			</g>
			<g opacity="0.3">
				<path fill="#202021" d="M213.6,431.5l-6-6.1c-6.7,8.2-29.9,35.6-51.7,55c2.5,2.4,4.7,4.1,5.3,3.4
					C163.1,482.5,213.6,431.5,213.6,431.5z"/>
			</g>
			<g>
				<path fill="#F1EFEE" d="M410.2,412.9c13.5-5.3,22.6-4.1,24.3,6.3c1.9,10.3-31,48.3-45,26.2L410.2,412.9z"/>
			</g>
			<g>
				<path fill="#E2E3ED" d="M428.4,433.2c-17.4,7.1-29.2,5.6-34.2,4.4l-4.9,7.5C399.4,460.8,418.5,446.7,428.4,433.2z"/>
			</g>
			<g>
				<path fill="#F1EFEE" d="M244.3,486.7c-5.5,6.7-16.3,24.8,5.3,27.4c7.2,0.9,32.5-16.2,29.8-33.4l-0.9-4.5L244.3,486.7z"/>
			</g>
			<g>
				<path fill="#E2E3ED" d="M279.6,482.6c0-0.6-0.2-1.1-0.2-1.7l-0.9-4.5l-34.2,10.3c-0.9,1.1-1.9,2.5-3,4.1c1.9,5,6.1,9.9,15.1,8.8
					C266.1,498.6,274.2,490.2,279.6,482.6z"/>
			</g>
			<g>
				<path fill="#202021" d="M326.8,304.2c14.7-18.2,40-42.8,43.6-47.2c3.6-4.4,4.9-3.9,9.9,1.3c5,5.2,8.6,5.2,1.3,13.2
					c-7.2,7.8-36.5,38.7-42.5,45L326.8,304.2z"/>
			</g>
			<g>
				<g>
					<path fill="#3E3E3E" d="M343.9,311.2c2.2-2.4,4.9-5,7.7-8.2l-16.8-8.5c-0.8,0.8-1.6,1.7-2.2,2.5L343.9,311.2z"/>
				</g>
				<g>
					<path fill="#3E3E3E" d="M380.2,258.2c-5-5.2-6.3-5.6-9.9-1.3c-0.5,0.5-1.1,1.3-1.9,2.2c1.7,5.2,4.5,14.7,6.1,19.8
						c3-3.1,5.5-5.8,6.9-7.5C388.9,263.4,385.3,263.4,380.2,258.2z"/>
				</g>
				<g>
					<path fill="#3E3E3E" d="M351.9,276.3c-0.8,0.8-1.6,1.6-2.4,2.5l5.5,20.7c5.6-6.1,11.9-12.5,17.1-18L351.9,276.3z"/>
				</g>
			</g>
			<g opacity="0.3">
				<path fill="#202021" d="M332.3,309.7l6.7,6.7c6-6.4,35.1-37.2,42.5-45c4.2-4.7,4.9-6.6,3.8-8.5
					C372.4,272.8,343.1,295.9,332.3,309.7z"/>
			</g>
			<g>
				<path fill="#262728" d="M338.5,323.6c10.3,2.2,34.3,10.8,41.4,13c7.2,2.2,6.3,16.2-0.5,23.8c0,0-17.6,9.4-12.2,21.2
					c5.5,11.8,25.2,25.2,44.7,29.3c0,0-19,32.5-23,37.5c0,0-9.4-9.1-19.8-5.8c-10.3,3.1-75.3,32-95.6,39.7
					c-20.2,7.7-42.3,20.2-60.8-23.8c0,0-23.4-37.8-24.3-59.9l25.2-14.9l109.9-23.8l16.6-23.8L338.5,323.6z"/>
			</g>
			<g opacity="0.2">
				<path fill="#2A2B2B" d="M373.2,389.8c-18.2,8-97.4,42.7-96.9,42.8c0.5,0.2-51.3,16.2-66.5,20.9c1.7,3.1,2.8,4.9,2.8,4.9
					c0.8,1.9,1.6,3.8,2.5,5.5c7.7-1.7,57.4-13.3,64.8-17.2c5.6-3,1.4,3,0.3,6.4c-2.4,2.5-9.7,7.7-7.4,10.3l-0.2,0.2
					c4.5,6.3,7.8,11.3,10,15.1c0.9-0.3,1.9-0.8,2.8-1.1c-1.3-8.3-3.6-17.1-4.7-20.5c0.6-0.6,1.4-1.3,2-1.9
					c6.9-1.1,24.1-4.1,29.2-12.4c5.5-8.9,8.3-12.7,8.3-12.7s43.4-17.2,58.2-35C376.6,393.4,374.8,391.7,373.2,389.8z"/>
			</g>
			<g opacity="0.2">
				<path fill="#2A2B2B" d="M334,456.9c16.5-7.1,30.7-13,35.3-14.4c10.3-3.1,19.8,5.8,19.8,5.8c0.2-0.3,0.5-0.5,0.6-0.9
					C373.3,422.4,347.2,443,334,456.9z"/>
			</g>
			<g>
				<path fill="#F1EFEE" d="M369.6,353.7c-3.8-6.3,6.7-17.1,10.3-17.1c3.6,0,12.7-12.2,21.2-5c8.6,7.2,14.4,21.6,8.6,25.7
					C403.9,361.4,379.9,371.3,369.6,353.7z"/>
			</g>
			<g>
				<path fill="#E2E3ED" d="M409.7,357.3c4.7-3.3,1.9-13.2-3.9-20.7c-1.7,12.9-15.2,20.4-28.4,24.8C389,367.5,405,360.6,409.7,357.3
					z"/>
			</g>
			<g>
				<path fill="#2A2B2B" d="M182.5,352.6c0,0-16.8-6-30.1,13l10.2,13.5c0,0,9.6-19.6,21.5-19.3L182.5,352.6z"/>
			</g>
			<g>
				<path fill="#C32026" d="M298.1,432.6c-1.1,0-10.5,21.3-14.4,25.2c0,0,11.9,4.2,13,4.5c0,0,13-16.5,9.7-30.4L298.1,432.6z"/>
			</g>
			<g opacity="0.2">
				<path fill="#C32026" d="M296.5,462.4h0.2c0,0,13-16.5,9.7-30.4l-7.5,0.5C298.7,437.8,298.4,451.7,296.5,462.4z"/>
			</g>
			<g opacity="0.7">
				<path fill="#A21D21" d="M306.9,435.3c0-1.1-0.2-2-0.5-3.1c-0.3,0-0.6,0-0.9,0l-7.2,0.5c-0.2,0.2-0.3,0.3-0.5,0.5
					c-0.5,0.6-1.1,1.7-1.7,3C298.1,437,304.5,436.2,306.9,435.3z"/>
			</g>
			<g>
				<path fill="#C32026" d="M312.8,428.7c0,0,8,12.2,7.1,24.1c0,0-4.5,1.7-12.5,2.8c0,0,3.1-13-1.1-23.5L312.8,428.7z"/>
			</g>
			<g opacity="0.7">
				<path fill="#A21D21" d="M312.8,428.7l-6.6,3.4c0.3,0.9,0.8,2,0.9,3c1.3-0.5,4.5-1.6,6.9-3.9
					C313.4,429.5,312.8,428.7,312.8,428.7z"/>
			</g>
			<g>
				<path fill="#3E3E3E" d="M365.7,381.7c-5.3-11.8,12.2-21.2,12.2-21.2c6.7-7.7,7.7-21.6,0.5-23.8c-5.6-1.7-21.6-7.5-33.4-11
					c-2.4,13.2-15.8,47.5-85.6,109.1l58.8-19.3l35.8-18.7l15.5-9.4C367.7,385.4,366.4,383.5,365.7,381.7z"/>
			</g>
			<g>
				<path fill="#030303" d="M366,381.8c-5.5-11.8,12.2-21.2,12.2-21.2c6.7-7.7,7.7-21.6,0.5-23.8c-5.6-1.7-21.6-7.5-33.2-11
					c-2.4,13.2-15.8,47.5-85.6,109.1l58.8-19.3l35.8-18.7l15.5-9.4C368,385.6,366.8,383.7,366,381.8z"/>
			</g>
			<g>
				<path fill="#202021" d="M367.4,381.8c-5.5-11.8,12.2-21.2,12.2-21.2c6.7-7.7,7.7-21.6,0.5-23.8c-5.6-1.7-21.6-7.5-33.4-11
					c-2.4,13.2-15.8,47.5-85.6,109.1l58.8-19.3l35.8-18.7l15.5-9.4C369.6,385.6,368.2,383.7,367.4,381.8z"/>
			</g>
			<g opacity="0.3">
				<path fill="#2A2B2B" d="M345.1,339.2c-0.2-4.9,1.9-10.2-3-12.5c3.1,16.2-2,40.1-54.3,52.1c-39.4,9.1-66.3,12.1-83.6,8
					c-2.4,4.9-4.2,8.9-4.2,8.9c0.5,0,0.9,0,1.4,0C382.4,395.5,345.4,349,345.1,339.2z"/>
			</g>
			<g>
				<path fill="#2A2B2B" d="M187.5,371.3c-3.6,8.2-15.8,29.3-11.3,33.4s15.8,15.8,15.8,15.8s19.4-18.5,21.6-26.7
					c0,0-6.7-7.7-6.7-10.3L187.5,371.3z"/>
			</g>
			<g opacity="0.2">
				<path fill="#2A2B2B" d="M209.5,388.6c-1.4-1.9-2.5-3.9-2.5-5l-19.4-12.2c-1.1,2.7-3.3,6.6-5.3,11
					C186.4,386.5,194.9,391.5,209.5,388.6z"/>
			</g>
			<g opacity="0.2">
				<path fill="#2A2B2B" d="M379.6,360.5c0.6-0.8,1.3-1.6,1.9-2.4c-5.3,0-20.7,0.9-24.3,10c-3.8,9.6,3.3,18.5,11.6,16
					c-0.5-0.8-0.9-1.6-1.3-2.4C361.9,370,379.6,360.5,379.6,360.5z"/>
			</g>
			<g>
				<path fill="#C32026" d="M307.3,415.5l60.1-33.7c4.2-1.3,9.9,6.6,8,9.9c0,0-17.1,19.6-62.6,37L307.3,415.5z"/>
			</g>
			<g opacity="0.2">
				<path fill="#C32026" d="M310.5,423l2.4,5.6c45.5-17.4,62.6-37,62.6-37c0.6-1.3,0.3-3.1-0.6-4.9c-16.3,4.2-47.5,26-55.2,31.5
					C317.8,419.6,314.5,421.2,310.5,423z"/>
			</g>
			<g>
				<path fill="#C32026" d="M204.2,444.1c-4.7,0.9,2.2,15.7,9.3,16.3c0,0,59.9-14.9,84-24.9l-3.3-14.6
					C294.3,421,282.4,427.4,204.2,444.1z"/>
			</g>
			<g opacity="0.2">
				<path fill="#C32026" d="M205.7,454.4c2,3.1,4.9,5.8,7.8,6.1c0,0,59.9-14.9,84-24.9l-1.6-6.9c-16.3,6-36.7,12.4-48.9,14.9
					C231.1,446.9,213.3,451.1,205.7,454.4z"/>
			</g>
			<g>
				<path fill="#A21D21" d="M288.8,423c0.8,3.6,2.7,11.1,4.9,14c1.4-0.5,2.7-0.9,3.8-1.6l-4.5-14C292,422,290.7,422.4,288.8,423z"/>
			</g>
			<g>
				<path fill="#B42024" d="M292,429c-2.4-7.7-2.4-10.2,5.8-12.5c8.2-2.4,11.3-4.2,14.4,2.7s5.8,11.9-4.7,14.4
					C297,435.9,294.6,437.9,292,429z"/>
			</g>
			<g>
				<path fill="#C32026" d="M310.5,416.3c-2.7-3.4-6-1.9-12.7,0.2c-8.2,2.5-8,5-5.8,12.5c2,7.1,4.1,7.2,9.9,5.8
					C305.1,428.9,308.6,420.9,310.5,416.3z"/>
			</g>
			<g>
				<path fill="#F1EFEE" d="M199.6,403.8c8.9-6.6,14.9-14,23.4-10.3c8.6,3.6,1.4,14,4.1,19c2.7,5,4.5,8.6-1.4,12.2
					c-5.8,3.6-25.2,7.2-29.3,0.9C192.4,419.1,189.3,411.4,199.6,403.8z"/>
			</g>
			<g>
				<path fill="#E2E3ED" d="M227,397.6c-3.6,3.1-6.3,7.1-7.8,11.6c4.2,1.1,8.6,5.3,6.4,7.5c-7.8,9.6-19.3,8.5-30.4,6.9
					c0.3,0.6,0.8,1.3,1.1,1.9c4.1,6.3,23.4,2.7,29.3-0.9c5.8-3.6,4.1-7.2,1.4-12.2C225.2,408.8,228.5,402.4,227,397.6z"/>
			</g>
			<g>
				<path fill="#262728" d="M213.6,280.7c22-6.3,63-23.5,82-11.8c19,11.8,37.9,32.9,43.3,43.7c5.5,10.8,21.2,49.1-49.5,65.4
					c-70.7,16.2-101.9,13-106.8-16.3C177.5,332.6,182.5,289.8,213.6,280.7z"/>
			</g>
			<g>
				<path fill="#222423" d="M181,339.2c-0.2,8,0.5,15.7,1.6,22.7c0,0.5,0.2,0.8,0.3,1.3c29.8-23.5,39.2-44.2,38.4-52.1L181,339.2z"
					/>
			</g>
			<g>
				<path fill="#3E3E3E" d="M181.3,340.6c-0.2,8,0.5,15.7,1.6,22.7c0,0.5,0.2,0.8,0.3,1.3c29.8-23.5,39.2-44.2,38.4-52.1
					L181.3,340.6z"/>
			</g>
			<g>
				<path fill="#0C0C0C" d="M181.3,340.4c-0.2,8,0.5,15.7,1.6,22.7c0,0.5,0.2,0.8,0.3,1.3c29.8-23.5,39.2-44.2,38.4-52.1
					L181.3,340.4z"/>
			</g>
			<g>
				<path fill="#262728" d="M181,339.8c-0.2,8,0.5,15.7,1.6,22.7c0,0.5,0.2,0.8,0.3,1.3c29.8-23.5,39.2-44.2,38.4-52.1L181,339.8z"
					/>
			</g>
			<g>
				<path fill="#CA6C29" d="M217.5,320.7c17.6-6.9,46.7-21.2,84.8-24.5c16.6-1.4,20.4,0,25.2,7.5c4.9,7.5-1.1,12.4-13.2,15.8
					c-12.1,3.4-26.2,6.1-41.4,9.3s-27.6,11-38.9,13.2c-11.3,2.4-20.4,5.2-31,1.7L217.5,320.7z"/>
			</g>
			<g>
				<path fill="#4F5152" d="M257.2,341.4c0,0,5.5-8.3,14.7-9.6c9.3-1.1,18.2,3.1,18.2,3.1s-8.6-9.3-19-6.1
					C260.6,332.1,261.7,335.2,257.2,341.4z"/>
			</g>
			<g>
				<path fill="#363939" d="M222.2,328.8l13.2-2.5c0,0,4.2,7.4-2.5,9.3c-6.7,2-7.1-5-7.1-5L222.2,328.8z"/>
			</g>
			<g>
				<path fill="#363939" d="M291.5,311.9l13.2-2.5c0,0,4.2,7.4-2.5,9.3c-6.7,2-7.1-5-7.1-5L291.5,311.9z"/>
			</g>
			<g>
				<path fill="#333535" d="M284.1,370.8c2.5-2.8,17.4-17.7,22.7-29c0,0,1.7,10.2-0.2,15.1c0,0,12.4-15.2,13.3-22
					c0,0-1.9,22.9-19.4,34.2c0,0,2-8,1.9-13.5C302.5,355.6,302,363.9,284.1,370.8z"/>
			</g>
			<g>
				<path fill="#3E3E3E" d="M213.9,282.1c-26.7,7.7-34,40.1-32.6,67.6c11.6-13.6,51.4-41.7,73.9-52.2c17.4-8.2,30.7-22.1,36.8-29.2
					C271.6,260.9,234.3,276.1,213.9,282.1z"/>
			</g>
			<g>
				<path fill="#0C0C0C" d="M213.6,281.9c-26.7,7.7-34,40.1-32.6,67.6c11.6-13.6,51.4-41.7,73.9-52.2c17.4-8.2,30.7-22.1,36.8-29.2
					C271.4,260.6,234.1,276,213.6,281.9z"/>
			</g>
			<g>
				<path fill="#333333" d="M213.6,280.7c-26.7,7.7-34,40.1-32.6,67.6c11.6-13.6,51.4-41.7,73.9-52.2c17.4-8.2,30.7-22.1,36.8-29.2
					C271.4,259.5,234.1,274.9,213.6,280.7z"/>
			</g>
			<g opacity="0.1">
				<path fill="#262728" d="M237.1,288c12.5-0.8,27.4-13.5,34.5-22.7c-19.6,1.9-43.3,11.1-58,15.4c-12.5,3.6-20.9,12.9-26,24.3
					C201.5,295.1,224.7,288.8,237.1,288z"/>
			</g>
			<g>
				<path fill="#F1EFEE" d="M196.8,293.4c-6.6-9.4-18.3-16.8-33.6-6.3c-5.5,3.8-3.8,7.4-2,6.9c1.7-0.6,2.5,0.3,2.5,0.3
					s-2.4,2-3.3,4.9c-0.9,2.8,3.6,0.9,3.6,0.9c-3.8,7.4,1.1,20.1,19.4,18.7C183.6,318.5,195.1,309.2,196.8,293.4z"/>
			</g>
			<g>
				<path fill="#E2E3ED" d="M174.4,308.7c0-1.1,2.2-4.2,1.1-6.4c-2.2-2.2-5.3-1.1-8.6-1.1c1.1-2.2,2.2-5.3,1.1-7.5
					c-1.1,0-3.1,0-4.2,0c-1.1-1.7-1.9-3.6-1.9-5.5c-3.6,3.3-2.2,6.1-0.5,5.6c1.7-0.6,2.5,0.3,2.5,0.3s-2.4,2-3.3,4.9
					c-0.9,2.8,3.6,0.9,3.6,0.9c-3.8,7.4,1.1,20.1,19.4,18.7c0,0,3.3-2.7,6.6-7.5C184.7,311.6,179.2,312.3,174.4,308.7z"/>
			</g>
			<g opacity="0.62">
				<path fill="#CA6C29" d="M190,311.2c-4.9-1.3-13.5-4.7-9.4-11.3c4.1-6.6,11.3-2.2,14.7,0.5C194,304.8,191.9,308.4,190,311.2z"/>
			</g>
			<g opacity="0.62">
				<path fill="#CA6C29" d="M190,311.2c-4.9-1.3-13.5-4.7-9.4-11.3c4.1-6.6,11.3-2.2,14.7,0.5C194,304.8,191.9,308.4,190,311.2z"/>
			</g>
			<g opacity="0.4">
				<path fill="#BE9568" d="M313.1,317.5c1.4-0.8,3.8-1.1,4.5-2.4c-1.4-0.2-3,0-4.5,0c0.2-0.9,1.4-1.4,2.2-1.9
					c-1.1-0.2-2.4-0.2-3.3,0.3c0.3-1.1,1.9-1.7,2.5-2.7c-1.3-0.2-2.7,0.3-3.9,0.8c0.6-0.8,1.6-1.6,2-2.4c-0.8-0.3-1.9-0.2-2.8,0.2
					c0-1.1,0.9-1.7,0.9-2.7c-1.6-0.3-2.8,0.8-4.2,1.3c0-0.8,0.5-1.6,0.9-2.2c-2-0.2-3.6,0.8-5.5,0.9c0.2-0.3-0.2-0.9,0-1.3
					c-1.9-0.2-3.3,0.3-4.9,1.3c0.9-0.6,1.9-1.1,2.4-2c-1.6-0.8-3.6,0.6-5.3,0.9c0-0.9,0.9-1.4,0.8-2.5c-3-0.6-6.3,2.5-8.9,3.3
					c0.5-0.6,0.9-1.3,0.9-2c-2,0-4.2,1.4-6.1,2.2c-0.2-0.9,0.5-1.7,0.5-2.7c-2.4-0.3-5.5,2-7.5,2.8c0.2-0.8,0.5-1.9,0.5-2.8
					c-2-0.3-4.4,0.8-6.4,1.9c0.9-0.8,1.6-1.7,1.7-2.4c-2.4-0.3-5.2,1.4-6.7,3.1c0.2-0.8,0.5-1.6,0.5-2.5c-2,0-3.6,2.4-5.2,3.3
					c0.3-0.3,0.6-0.6,1.1-0.9c-1.7,0.8-4.5,4.4-6.4,2.7l2.2-0.6c-1.7,0-3.4-0.5-5.2-0.6c-0.5,0.2-1.1,0.3-1.6,0.5
					c0.5,0.9,2.2,1.1,2.5,2.4c-1.3,0.5-2.8,0.2-4.1,0.3c0,0.8,0.6,1.3,1.4,1.4c-0.9,0.6-5.6-0.2-4.7,2c-1.6,0.5-5.6-0.8-6.7,0.6
					c-0.9,1.1,0.3,1.4,1.3,1.6c-1.6,0.2-6.9-0.8-7.8,0.6c-1.1,1.4,2.5,1.3,3.4,1.6c-0.2,0.2-10,1.9-5.8,3.1
					c-1.6,0.9-4.1,0.5-5.8,1.6c0.9,0.3,1.9,0.3,3,0.5c-0.2,1.1-3,1.3-4.1,2c0.2,0.2,0.3,0.3,0.5,0.5c-0.6,1.4-2.8,1.1-3.4,2.5
					c0.5,0.2,2.4,0.3,2.5,0.9c0.3,0.9-1.4,1.6-1.7,2.4c0.8,0.3,1.6,0,2.2,0.6c-1.3,0.8-5.3,1.3-5.3,3.1c3.3,0.2,3.3,0,1.7,2.8
					c0.9,0.3,2,0,3.1,0.5c0,1.4-3,1.9-2.7,2.7c0.2,1.1,3.3,0.6,4.1,0.6c0.2,0.9-0.3,1.6-0.9,2.2c4.2-0.6,8.6-1.7,13.3-2.7
					c11.3-2.4,23.5-10,38.9-13.2c15.2-3.1,29.3-5.8,41.4-9.3c1.1-0.3,2.2-0.6,3.1-0.9c0.2-0.2,0.3-0.3,0.5-0.5
					C316.6,317.4,314.5,318,313.1,317.5z"/>
			</g>
			<g>
				<path fill="#4F5152" d="M235.8,329.6c0.3,1.6-0.2,3-0.9,3.1c-0.8,0.2-1.7-0.9-2-2.5s0.2-3,0.9-3.1
					C234.6,327.1,235.5,328.2,235.8,329.6z"/>
			</g>
			<g>
				<path fill="#4F5152" d="M305,312.8c0.3,1.6-0.2,3-0.9,3.1c-0.8,0.2-1.7-0.9-2-2.5s0.2-3,0.9-3.1
					C303.7,310.2,304.7,311.2,305,312.8z"/>
			</g>
			<g>
				<g>
					<path fill="#F1EFEE" d="M288,268.6c0.5-11.4,6.4-24,24.9-23.4c6.7,0.3,7.2,4.2,5.3,4.7c-1.9,0.5-1.9,1.6-1.9,1.6s3,0.5,5.3,2.4
						c2.4,1.9-2.7,2.7-2.7,2.7c7.2,4.2,9.9,17.4-6.4,26.2C312.7,282.6,298.1,281,288,268.6z"/>
				</g>
				<g>
					<path fill="#E2E3ED" d="M319.1,256.5c0,0,5-0.9,2.7-2.7c-2.4-1.9-5.3-2.4-5.3-2.4s0.2-1.1,1.9-1.6c1.7-0.5,1.3-4.4-5.3-4.7
						c-1.6,0-3.1,0-4.5,0.2c-0.5,0.9-0.3,1.9,0.8,3.1c4.9,4.9,0,8.6,6,13.3c4.7,3.8-2,9.9-8,14c-0.9,1.1-0.6,3.1-1.4,5.2
						c4.1,1.4,7.1,1.7,7.1,1.7C329,273.9,326.3,260.6,319.1,256.5z"/>
				</g>
				<g opacity="0.62">
					<path fill="#CA6C29" d="M303.4,279.9c3.4-3.8,8.9-11.1,1.9-14.6c-7.1-3.3-10.7,4.2-12.1,8.3
						C296.7,276.6,300.3,278.6,303.4,279.9z"/>
				</g>
				<g opacity="0.62">
					<path fill="#CA6C29" d="M303.4,279.9c3.4-3.8,8.9-11.1,1.9-14.6c-7.1-3.3-10.7,4.2-12.1,8.3
						C296.7,276.6,300.3,278.6,303.4,279.9z"/>
				</g>
			</g>
			<g>
				<path fill="#A21D21" d="M310.5,416.3l0.5,0.8c0,0-6.9,16.5-8.2,17.7L302,435C301.8,434.8,309.5,418.2,310.5,416.3z"/>
			</g>
			<g>
				<polygon fill="#0C0C0C" points="322.1,297.6 325.1,294.2 325.4,294.5 322.4,297.9 				"/>
			</g>
			<g>
				<polygon fill="#3E3E3E" points="322.5,298.1 325.5,294.6 325.4,294.5 322.4,297.9 				"/>
			</g>
			<g opacity="0.15">
				<path fill="#CA6C29" d="M327.7,303.6c-4.9-7.5-8.6-8.9-25.2-7.5c-38.1,3.3-67.3,17.6-84.8,24.5l-14.4,23
					c10.7,3.4,19.9,0.6,31-1.7c11.3-2.4,23.5-10,38.9-13.2c15.2-3.1,29.3-5.8,41.4-9.3C326.5,316,332.6,311.1,327.7,303.6z
					 M268.3,328c-15.5,5.3-57.4,23.8-55.4,4.1c0.8-7.2,21-18.8,47.8-25.9c26.8-7.1,60.1-12.4,63.5-1.9
					C329.9,322.5,283.8,322.7,268.3,328z"/>
			</g>
			<g opacity="0.1">
				<path fill="#262728" d="M231.9,379c-32,2.7-43.3-9.7-49.2-16.3c4.9,26.3,31.7,30.9,90.3,19.1C266.7,377.9,255,377.1,231.9,379z"
					/>
			</g>
			<g opacity="0.2">
				<path fill="#525050" d="M335.9,295.3c8-8.2,32.5-34.2,35.3-37.2c3-3.1,8.3,0.2,11.8,4.5c0,0-5.8-4.9-10-2
					C369,263.4,340.1,292.7,335.9,295.3z"/>
			</g>
			<g opacity="0.2">
				<path fill="#C32026" d="M308.9,455.3c7.1-1.1,11.1-2.7,11.1-2.7c0.6-9.3-3.9-18.7-6.1-22.4C313.9,436.4,313.4,447.8,308.9,455.3
					z"/>
			</g>
			<g>
				<g>
					<polyline fill="#C32026" points="413.3,376.6 427.8,385.4 411.8,396.2 413.3,376.9 					"/>
				</g>
				<g>
					<g>
						<polygon fill="#8C181B" points="407.7,375.2 411.8,395.9 415.5,372.6 414.1,371.8 						"/>
					</g>
					<g>
						<path fill="#8C181B" d="M430.4,381.2c-3.1,2.7-14.4,11.6-18.5,15.1l19.9-7.2l-0.6-7.4L430.4,381.2z"/>
					</g>
				</g>
				<g>
					<path fill="#C32026" d="M409.4,400.5l-5.2-27l10.2-5.2l20.1,11.4l0.8,11.3L409.4,400.5z M411.3,376.9l3,15.1l14.3-5.2l-0.3-3.1
						l-14.1-8.2L411.3,376.9z"/>
				</g>
				<g>
					<path fill="#A91F23" d="M431.5,388.9l-0.5-7.2l-17.1-9.7l-6.4,3.3C411.1,377.1,428.2,386.8,431.5,388.9z"/>
				</g>
				<g>
					<g>
						<path fill="#C32026" d="M414.6,379l8-2.4l-8.5-4.9l-0.2,0.2l0.2,6.9C414.3,378.8,414.4,379,414.6,379z"/>
					</g>
					<g>
						<path fill="#C32026" d="M431.2,381.5l-8-4.5c0.3,1.4,1.3,6.3,1.6,7.8c0.2,0.2,0.3,0.2,0.5,0.3L431.2,381.5z"/>
					</g>
				</g>
			</g>
			<g>
				<g>
					<polyline fill="#C32026" points="147.6,333.4 165.3,326.6 163.9,348.4 147.7,333.7 					"/>
				</g>
				<g>
					<g>
						<polygon fill="#8C181B" points="142.2,337.4 163.7,348.3 145.2,328.7 143.6,329.3 						"/>
					</g>
					<g>
						<path fill="#8C181B" d="M163.4,321.3c0.2,4.5,0.5,21,0.6,27l7.2-22.9l-6.9-4.5L163.4,321.3z"/>
					</g>
				</g>
				<g>
					<path fill="#C32026" d="M165.9,353l-27.3-13.6l2.2-12.2l23.7-9.9l10.3,6.7L165.9,353z M145.8,335.7l16.2,8.2l5.3-17.1l-3.4-2.4
						l-17.4,7.2L145.8,335.7z"/>
				</g>
				<g>
					<path fill="#A91F23" d="M170.9,325.5L164,321l-20.5,8.5l-1.4,8C146.3,335.7,167,327.2,170.9,325.5z"/>
				</g>
				<g>
					<g>
						<path fill="#C32026" d="M150.5,334l3.4-8.8l-10.2,4.2v0.2l6.3,4.5C150.2,334.1,150.4,334,150.5,334z"/>
					</g>
					<g>
						<path fill="#C32026" d="M164.2,320.8l-9.6,4.1c1.6,0.6,6.4,3.1,8.2,4.1c0.2-0.2,0.5-0.2,0.6-0.3L164.2,320.8z"/>
					</g>
				</g>
			</g>
		</g>
	</g>
</g>
</svg>
