<?xml version="1.0" encoding="utf-8"?>
<!-- Generator: Adobe Illustrator 18.0.0, SVG Export Plug-In . SVG Version: 6.00 Build 0)  -->
<!DOCTYPE svg PUBLIC "-//W3C//DTD SVG 1.1//EN" "http://www.w3.org/Graphics/SVG/1.1/DTD/svg11.dtd">
<svg version="1.1" id="Layer_1" xmlns="http://www.w3.org/2000/svg" xmlns:xlink="http://www.w3.org/1999/xlink" x="0px" y="0px"
	 viewBox="0 178.5 612 612" enable-background="new 0 178.5 612 612" xml:space="preserve">
<rect y="178.5" fill="#E5E5E5" width="612" height="612"/>
<g>
	<defs>
		<filter id="Adobe_OpacityMaskFilter" filterUnits="userSpaceOnUse" x="82.1" y="245.7" width="454.4" height="454.3">
			<feColorMatrix  type="matrix" values="1 0 0 0 0  0 1 0 0 0  0 0 1 0 0  0 0 0 1 0"/>
		</filter>
	</defs>
	<mask maskUnits="userSpaceOnUse" x="82.1" y="245.7" width="454.4" height="454.3" id="SVGID_1_">
		<g filter="url(#Adobe_OpacityMaskFilter)">
			
				<radialGradient id="SVGID_2_" cx="239.9439" cy="182.5896" r="144.8361" gradientTransform="matrix(-8.120316e-02 -1.566 1.4818 -7.683858e-02 56.6522 876.9285)" gradientUnits="userSpaceOnUse">
				<stop  offset="0" style="stop-color:#FFFFFF"/>
				<stop  offset="1" style="stop-color:#000000"/>
			</radialGradient>
			<polygon fill="url(#SVGID_2_)" points="309.4,517.9 370.2,245.7 475.6,306.4 332.4,531.2 536.5,411.9 536.5,533.6 332.4,558 
				475.6,638.9 370.2,699.9 309.4,571.4 248.4,699.9 143.1,638.9 286.2,558 82.1,533.6 82.1,411.9 286.2,531.2 143.1,306.4 
				248.4,245.7 			"/>
		</g>
	</mask>
	<polygon opacity="0.3" mask="url(#SVGID_1_)" fill="#C1C1C1" enable-background="new    " points="309.4,517.9 370.2,245.7 
		475.6,306.4 332.4,531.2 536.5,411.9 536.5,533.6 332.4,558 475.6,638.9 370.2,699.9 309.4,571.4 248.4,699.9 143.1,638.9 
		286.2,558 82.1,533.6 82.1,411.9 286.2,531.2 143.1,306.4 248.4,245.7 	"/>
	<path fill="#C1C1C1" d="M498.4,535.6c-0.7-5.3-2.6-10.4-6.6-14.1c-9.2-8.4-5.2-30-0.2-41.8c1.9-4.5,1.9-9.6,0.6-14.2
		c-1.9-6.7-6.5-12.5-12.5-14.4c-0.6-0.2-1.2-0.4-1.7-0.5l58.5-38.8l-66,38.5c-4.3,0.6-8.3,2.7-11.3,6.6l-3.3,2
		c-5.1-10.8-11-21.3-17.7-31.3c1.4-0.7,2.8-1.7,4.1-2.8c22.1-25.7,1.9-52.1,1.9-52.1s-0.7-1.5-2.7-3.5c-0.2-0.2-0.6-0.6-0.8-0.8v0.1
		c-0.8-0.7-1.9-1.5-3.1-2.2l38.1-59.7L443.2,352c-2.8-1.2-12.2-4-32.3-1.9c-15.7-13.1-37.8-2.6-37.8-2.6s-6.9,3.7-2.8,8.2
		c-3.1,3.1-8.3,6.3-12.4,10.4c-2.6-0.7-5.3-1.4-8-2l20.3-118.2L344.1,363c-8.3-1.4-16.9-2.2-26.1-2.2c-0.1,0-0.2,0-0.5,0
		c-0.2,0-0.6,0-0.8,0c-14.2,0-28,1.5-41.4,4.6l-26.8-119.5l20.9,120.9c-0.4,0.1-0.8,0.2-1.2,0.4c-3.9-4-9-7-12.2-10
		c0.7-0.8,0.9-1.5,1.1-2.2c0.5-3.2-3.7-5.3-3.7-5.3s-2.2-1.1-5.8-2c0.1,0.1,0.1,0.2,0.1,0.4c-7.2-2.1-20.2-4.1-30.3,4.4
		c-23.4-2.4-31.6,2.2-31.6,2.2s9.5,4.6,11.5,10.5c-4.4,1.3-7.2,3.4-9,5.2l-45.2-63.5l42.6,66.9c-1.2,1.7-17.3,24.6,0.1,47.4
		c-8.9,11-16.8,23.6-23.5,38.1l-80.1-46.8l77.9,51.5c-7.8,17.7-13.8,37.9-17.7,60.8c-2.8,3.3-4.8,7.7-6.4,12.3l-53.9-3l53,6.4
		c-2,8.4-2,17.4-0.1,23.5c0.6,1.9,1.5,3.7,2.6,5.3c0,1.2-0.1,2.4-0.1,3.5c0,0,1.4,0.4,4,0.9c8.5,7.9,22.2,11.8,29.8,10.5
		c2.4-0.4,5.6-1.3,9-2.8c14.7,2.5,32.6,5,53.1,7l-90.2,51.1l106.5-49.6c11.9,0.9,24.7,1.7,37.9,2l-39.1,108.4L299.7,592
		c3.4,0,7,0.1,10.5,0.1c3,0,5.8,0,8.7,0l51.1,108l-38.9-108.3c12.5-0.4,25.3-0.9,38.4-1.9l105.8,49.3l-89.6-51.1
		c14.9-1.5,30.1-3.5,45.6-6.1c3.2,2.2,7.1,3.7,11.5,3c11.8-1.9,10.5,2.4,30-3.3c19.5-5.8,21.9-15.7,24.1-26
		c1.1-5.1,2.1-11.5,1.7-17.7l37.8-4.5L498.4,535.6z M442,353.7l-7.8,11c-0.7-0.2-1.4-0.6-2.2-0.8C433.7,359.3,439.1,355.5,442,353.7
		z"/>
</g>
<g>
	<path d="M185.7,462.1h-10.9l-22.2-37.7h-0.3v37.4h-10.9v-55.1h10.9l22.2,37.4h0.3v-37.4h10.9V462.1z"/>
	<path d="M240.2,439.9c0,6.8-2.3,12.2-6.4,16.7c-4.2,4.5-9.7,6.8-16.7,6.8c-6.8,0-12.2-2.3-16.4-6.8c-4.2-4.5-6.4-10-6.4-16.7v-10
		c0-6.8,2.3-12.2,6.4-16.7s9.7-6.8,16.4-6.8s12.2,2.3,16.7,6.8c4.5,4.5,6.4,10,6.4,16.7V439.9z M229.2,429.9c0-4.2-1-7.7-3.2-10.6
		c-2.3-2.9-5.2-4.2-8.7-4.2s-6.8,1.3-8.7,4.2c-1.9,2.6-3.2,6.1-3.2,10.6v10c0,4.5,1,8.1,3.2,10.6c1.9,2.9,5.2,4.2,8.7,4.2
		c3.9,0,6.8-1.3,8.7-4.2c2.3-2.9,3.2-6.4,3.2-10.6V429.9z"/>
	<path d="M279.8,462.1h-10.9V407h10.9V462.1z"/>
	<path d="M305.2,407.3l13.8,40.6h0.3l14.2-40.6H348v55.1h-10.9V446l1-24.2h-0.3l-14.8,40.6h-7.4L301,421.8h-0.3l1,24.2v16.4h-10.9
		v-55.1H305.2z"/>
	<path d="M387.6,450.5h-19.3l-3.9,11.9h-11.3l19-55.1h11.3l18.7,55.1h-10.6L387.6,450.5z M371.2,441.8h13.8l-6.8-21.6H378
		L371.2,441.8z"/>
	<path d="M449.8,454.7c-1.6,2.3-4.2,4.2-7.7,5.8c-3.5,1.6-7.7,2.6-13.2,2.6c-6.8,0-12.2-1.9-16.4-6.1c-4.2-4.2-6.4-9.7-6.4-16.4
		v-11.6c0-6.8,1.9-11.9,6.1-16.1c4.2-4.2,9.3-6.4,15.8-6.4c6.8,0,11.9,1.6,15.5,4.8s5.5,7.4,5.5,12.9v0.3h-10.3
		c-0.3-2.9-1.3-5.2-2.9-7.1s-4.2-2.6-7.4-2.6s-6.1,1.3-8.1,3.9c-1.9,2.6-3.2,5.8-3.2,10v11.6c0,4.2,1,7.4,3.2,10.3
		c2.3,2.6,5.2,3.9,8.7,3.9c2.6,0,4.5-0.3,6.1-0.6c1.6-0.6,2.9-1.3,3.5-1.9v-10.3h-9.7v-7.7h20.6v20.9H449.8z"/>
	<path d="M493.3,437.9h-22.9v15.8h26.7v8.4h-37.7V407h37.7v8.4h-26.4v13.8h22.9L493.3,437.9L493.3,437.9z"/>
	<path d="M155.5,543.2h-19.3l-3.9,11.9H121l19-55.1h11.3l18.7,55.1h-11.3L155.5,543.2z M138.7,534.5h13.8l-6.8-21.6h-0.3
		L138.7,534.5z"/>
	<path d="M194.1,540.3l0.6,2.9h0.3l0.6-2.9l11.9-40.6h11.6l-18.7,55.1h-11.3l-18.7-55.1h11.6L194.1,540.3z"/>
	<path d="M248.5,543.2h-19.3l-3.9,11.9h-10.9l19-55.1h11.3l18.7,55.1h-11.3L248.5,543.2z M232.1,534.5H246l-6.8-21.6h-0.3
		L232.1,534.5z"/>
	<path d="M280.4,554.8h-10.9v-55.1h10.9V554.8z"/>
	<path d="M302.3,546.5h24.5v8.4h-35.4v-55.1h10.9V546.5z"/>
	<path d="M363.5,543.2h-19.3l-3.9,11.9H329l19-55.1h11.3l18.7,55.1h-11.3L363.5,543.2z M347.1,534.5h13.8l-6.8-21.6h-0.3
		L347.1,534.5z"/>
	<path d="M383.5,554.8v-55.1h18.7c6.4,0,11.6,1.3,15.1,3.9s5.5,6.1,5.5,11.3c0,2.6-0.6,4.8-1.9,6.8s-3.2,3.5-5.8,4.5
		c3.2,0.6,5.8,2.3,7.4,4.5c1.6,2.3,2.6,5.2,2.6,8.1c0,5.2-1.6,9.3-5.2,11.9c-3.5,2.6-8.4,4.2-14.8,4.2H383.5z M394.4,523h8.1
		c2.9,0,5.2-0.6,6.8-1.9s2.3-2.9,2.3-5.2c0-2.6-0.6-4.5-2.3-5.5s-3.9-1.9-7.1-1.9h-7.4V523L394.4,523L394.4,523z M394.4,530.7v15.8
		h10.3c2.9,0,5.2-0.6,6.8-1.9c1.6-1.3,2.3-3.2,2.3-5.5c0-2.6-0.6-4.8-1.9-6.1c-1.3-1.3-3.2-2.3-6.1-2.3L394.4,530.7L394.4,530.7z"/>
	<path d="M444,546.5h24.5v8.4h-35.4v-55.1H444V546.5z"/>
	<path d="M508.7,530.7h-22.9v15.8h26.7v8.4h-37.7v-55.1h37.7v8.4h-26.4V522h22.9L508.7,530.7L508.7,530.7z"/>
</g>
</svg>
