<?xml version="1.0" encoding="utf-8"?>
<!-- Generator: Adobe Illustrator 18.0.0, SVG Export Plug-In . SVG Version: 6.00 Build 0)  -->
<!DOCTYPE svg PUBLIC "-//W3C//DTD SVG 1.1//EN" "http://www.w3.org/Graphics/SVG/1.1/DTD/svg11.dtd">
<svg version="1.1" id="Layer_1" xmlns="http://www.w3.org/2000/svg" xmlns:xlink="http://www.w3.org/1999/xlink" x="0px" y="0px"
	 viewBox="0 89.5 612 612.9" enable-background="new 0 89.5 612 612.9" xml:space="preserve">
<rect y="89.5" fill="#E78924" width="612" height="612"/>
<g>
	<g>
		<g>
			<rect x="122" y="171.1" fill="none" width="408.8" height="408.8"/>
		</g>
		<defs>
			<filter id="Adobe_OpacityMaskFilter" filterUnits="userSpaceOnUse" x="147.1" y="209.8" width="358.8" height="358.9">
				<feColorMatrix  type="matrix" values="1 0 0 0 0  0 1 0 0 0  0 0 1 0 0  0 0 0 1 0"/>
			</filter>
		</defs>
		<mask maskUnits="userSpaceOnUse" x="147.1" y="209.8" width="358.8" height="358.9" id="SVGID_1_">
			<g filter="url(#Adobe_OpacityMaskFilter)">
				
					<radialGradient id="SVGID_2_" cx="207.3993" cy="595.8831" r="114.4272" gradientTransform="matrix(-8.120316e-02 -1.566 -1.4818 7.683858e-02 1225.0239 679.6362)" gradientUnits="userSpaceOnUse">
					<stop  offset="0" style="stop-color:#FFFFFF"/>
					<stop  offset="1" style="stop-color:#000000"/>
				</radialGradient>
				<polygon fill="url(#SVGID_2_)" points="326.5,424.9 374.6,209.8 457.9,257.9 344.7,435.6 505.8,341.2 505.8,437.3 344.7,456.6 
					457.9,520.6 374.6,568.7 326.5,467.1 278.3,568.7 195.1,520.6 308.3,456.6 147.1,437.3 147.1,341.2 308.3,435.6 195.1,257.9 
					278.3,209.8 				"/>
			</g>
		</mask>
		<g opacity="0.3" mask="url(#SVGID_1_)">
			<polygon fill="#F15C2C" points="326.5,424.9 374.6,209.8 457.9,257.9 344.7,435.6 505.8,341.2 505.8,437.3 344.7,456.6 
				457.9,520.6 374.6,568.7 326.5,467.1 278.3,568.7 195.1,520.6 308.3,456.6 147.1,437.3 147.1,341.2 308.3,435.6 195.1,257.9 
				278.3,209.8 			"/>
		</g>
		<g opacity="0.3">
			<g>
				<polygon fill="#F69325" points="326.5,424.9 374.6,209.8 337,427.9 457.9,257.9 344.7,435.6 505.8,341.2 347.5,446.1 
					505.8,437.3 344.7,456.6 457.9,520.6 337,464.3 374.6,568.7 326.5,467.1 278.3,568.7 316,464.3 195.1,520.6 308.3,456.6 
					147.1,437.3 305.5,446.1 147.1,341.2 308.3,435.6 195.1,257.9 316,427.9 278.3,209.8 				"/>
			</g>
		</g>
		<g opacity="0.2">
			<path fill="#825F3D" d="M452.5,496.6c7.2-7.4,10.8-15.1,9.7-22.4c-3.8-26.2-62.6-39.7-131.2-30.4s-121.2,38.1-117.4,64.1
				c1.6,10.8,12.5,19.3,29.5,25.1c-1.9,2.7-2.8,5.3-2.5,7.8c1.7,11.6,27.8,17.6,58,13.5c19.4-2.7,35.9-8.8,44.8-15.8
				c0.5-0.2,0.9-0.2,1.4-0.2c11.4-1.6,22.3-3.6,32.8-6.3c8,0.6,17.1,0.3,26.7-1.1c30.4-4.1,53.6-16.8,51.9-28.4
				C455.8,500.5,454.6,498.5,452.5,496.6z"/>
		</g>
		<g>
			<g>
				<path fill="#FAC76D" d="M330.1,533.1c-0.5,0-0.8,1.3-1.3,1.3l-0.5,0.6c-0.2,0-0.5-0.8-0.6-0.8c-0.5,0-1.1-0.8-1.6-0.6l-0.2,0.6
					c-0.6,0-1.4,0.8-2,0.8c0,0,0,0-0.2,0c-0.6,0-1.3,0.3-1.9,0.3c0,0,0,0.2-0.2,0.2c-0.6,0-1.4,0-2,0h-0.2c-0.8,0-1.4-0.3-2.2-0.3
					c-0.8,0-1.6-0.3-2.4-0.3h-0.2c-0.6,0-1.4,0.2-2.2,0.2l-0.2,0.2c-0.8,0-1.6-0.2-2.4-0.2h-0.5c-1.7,0-3.4-0.5-5.2-1.1
					c-0.3,0-0.6,0-0.9,0s-0.5,0-0.6,0c-0.6,0-1.3-0.2-1.9-0.2h-0.2c-0.6-0.2-1.1-0.2-1.7-0.3l-0.5-0.2c-0.5-0.2-0.9-0.2-1.4-0.3
					l-0.5-0.2c-0.6-0.2-1.1-0.3-1.6-0.5h-0.2c-0.5-0.2-1.1-0.3-1.6-0.6c0,0-0.8-0.3-0.9-0.3l-0.8-0.2l-0.8-0.2
					c-0.3,0-0.5-0.2-0.8-0.2c-2.7-0.6-5-1.4-7.2-2.5c-1.6,0-2.8-0.5-3.9-1.1c-0.2,0-0.5,0-0.6-0.2c-2.4-0.5-4.1-1.7-5.2-2.4
					c-0.2-0.2-0.3-0.3-0.5-0.3c-0.2,0-0.3-0.2-0.6-0.3c0,0-0.3-1.3-0.3-1.4c-0.3-0.2-0.8-1.7-0.9-1.7c-0.2,0-0.3,0-0.3,0
					c-0.8,0.2-1.6,1.3-2.4,1.1c-2-0.5-3.9-0.9-5.8-2.8c-0.3,0.2-0.6,0.5-0.9,0.5c-0.2,0-0.5,0.2-0.6,0.2c-2,0-3.9-0.6-5.3-2
					l-0.6-0.6c-0.3-0.5-0.8-0.8-1.3-1.3c-0.3,0-0.3,3.1-0.6,3c-0.6,0.3-1.1,3.8-2,3.9c-0.2,0-0.3,0-0.5,0c-3.6,0.5-6.3-4.2-7.4-5
					c-0.2,0-0.2,1.9-0.5,1.9c-4.4,1.6-9.3,5-14.4,5.6l0,0c-0.3,0-0.6,0-0.9,0.2c-0.5,0-1.3-3.4-1.7-3.4c-1.9,0.2-4.4-1.6-6.9-2.4
					c-2.2-0.8-3.9-3-5-4.1c-0.9,0-1.7-0.5-2.5-0.6c-3.6-0.8-7.5-3.3-11-5.5c-2.7-1.6-3.9-3.6-4.7-5.3c-0.5,0.2-1.1,0.2-1.6,0.2
					c-0.3,0-0.6,0-0.9,0c-4.1,0.2-7.5-2.8-7.8-6.9c0-0.5-0.2-1.1-0.5-1.6l-0.2-0.2c-2.7-3.1-3.9-5-4.5-9.9c0-0.5-0.2-0.8-0.2-1.3
					c0-0.2,0-0.2,0-0.3c-0.2-1.1-2-2.5-2.4-4.9c-0.6-4.2,1.7-7.5,3.1-9.4c0.2-0.3,0.5-0.6,0.6-0.9c0-0.2,0-0.2,0-0.3v-0.3l0.2-2.4
					v-0.6v-0.5c0-0.2,0-0.3,0-0.6v-0.3c0-0.3,0-0.5,0.2-0.8c0-0.2,0-0.3,0.2-0.5c0-0.3,0.2-0.6,0.2-0.9c0-0.2,0-0.2,0.2-0.3
					c0.2-0.5,0.3-0.8,0.5-1.3c0-0.2,0.2-0.3,0.2-0.5c0.2-0.3,0.3-0.6,0.5-0.9c0.2-0.2,0.2-0.3,0.3-0.5c0.2-0.3,0.3-0.6,0.6-0.9
					c0.2-0.2,0.3-0.3,0.3-0.5c0.3-0.3,0.5-0.6,0.8-0.8c0.2-0.2,0.3-0.3,0.5-0.5c0.3-0.3,0.6-0.5,0.9-0.8c0.2-0.2,0.3-0.2,0.5-0.3
					c0.5-0.3,0.3-0.5,0.8-0.8c0.5-0.2,0.8-0.3,0.6-0.5c0,0,0,0,0-0.2c0-0.5,0.5-0.9,0.5-1.3c-0.3-1.6,0-3.1,0-4.7
					c-0.2-0.3-0.2-0.8-0.3-1.3c-1.1-3.8-0.6-7.1-0.3-9.7c0.2-1.4,0.3-2.7,0.3-3.6c0-0.6,0-1.1,0-1.4c0-0.2,0-0.3,0-0.6
					c0-0.2,0-0.3,0-0.6s0-0.5,0-0.8c-0.2-0.5-0.3-0.9-0.5-1.4c-0.2-1.1-0.2-2-0.2-2.8c-0.3-0.8-0.5-1.6-0.5-2.4c0-0.9,0-1.7,0.2-2.5
					c-0.2-0.6-0.3-1.1-0.5-1.7c-0.3-2.4,0.3-4.2,0.8-5.3c0-0.5-0.2-0.9,0-1.4c0-1.9,0.3-3.6,0.5-5c0.2-0.9,0.3-1.7,0.3-2.5
					c0-0.2-0.2-0.6-0.2-0.8c-0.8-1.3-1.3-3.1-0.8-5.5c0.5-2.5,1.7-4.4,2.5-5.5l0,0c0-0.2,0-0.2,0-0.3c0-0.6-0.2-1.4-0.2-2.2
					c0-1.6,0.3-3,0.8-4.1c-0.3-0.8-0.5-1.6-0.5-2.4c-0.2-3.8,2-6.6,3.6-8.3c0.2-0.2,0.3-0.3,0.5-0.6c-0.3-1.6-0.2-3.1,0.6-4.5
					c0.3-0.8,0.8-1.4,1.1-2c0.2-0.6,0.3-1.3,0.5-1.7c0.6-1.4,1.4-2.7,2-3.8c0.2-0.2,0.3-0.5,0.5-0.6c0.3-0.5,0.5-0.8,0.9-1.3
					c0-0.2,0.2-0.2,0.2-0.3c0.2-0.2,0.3-0.5,0.6-0.6c0,0-0.5-0.3-0.5-0.5c0.2-0.5-0.3-0.8-0.3-1.3c0,0,0,0,0-0.2
					c0-1.6,1.7-2.8,2.2-3.8c0-0.2,0.5-0.3,0.5-0.5c0.2-4.2,3.4-7.2,5.5-9.1c0.2-0.2,0.5-0.5,0.6-0.6c0.2-0.8,0.5-1.6,0.8-2.4
					c0.2-0.2,0.3-0.5,0.5-0.8s0.3-0.6,0.6-1.1c0.2-0.2,0.3-0.5,0.5-0.6s0.3-0.5,0.6-0.6c0.2-0.2,0.3-0.3,0.5-0.5
					c0.2-0.2,0.3-0.3,0.5-0.3c-0.3-0.2-0.5-0.3-0.8-0.5l-0.5-0.3c-0.8-0.5-1.4-0.9-2-1.6l-0.3-0.3c-0.6-0.5-1.3-0.9-1.9-1.4
					l-0.3-0.3c-0.6-0.6-1.3-1.1-1.9-1.7c-0.2-0.2-0.3-0.3-0.3-0.3c-0.6-0.6-1.1-1.1-1.6-1.7l-0.2-0.2c-0.6-0.6-1.1-1.3-1.7-1.9
					l-0.3-0.5c-0.6-0.8-1.1-1.4-1.4-1.9c0,0,0,0,0-0.2c-0.5-0.6-0.9-1.3-1.4-2l-0.3-0.5c-0.5-0.8-0.9-1.4-1.3-2.2l-0.2-0.3
					c-0.3-0.6-0.6-1.3-0.9-2l-0.2-0.5c-0.3-0.8-0.6-1.6-0.9-2.2l-0.2-0.5c-0.3-0.6-0.5-1.4-0.8-2l-0.2-0.3c-0.3-0.8-0.5-1.6-0.8-2.4
					l-0.2-0.5c-0.2-0.8-0.3-1.6-0.5-2.2c0-0.2,0-0.2,0-0.3c-0.2-0.8-0.3-1.6-0.5-2.4c0-0.2,0-0.5-0.2-0.6c-0.2-0.9-0.2-1.7-0.3-2.5
					c0,0,0-0.2,0-0.3c0-0.8-0.2-1.6-0.2-2.2v-0.6c0-0.8,0-1.7,0-2.5v-0.5c0-0.8,0-1.6,0.2-2.2v-0.5c0.2-0.8,0.2-1.6,0.3-2.5l0.2-0.6
					c0.2-0.8,0.3-1.4,0.3-2.2v-0.3c0.2-0.9,0.3-1.7,0.6-2.5c0-0.3,0.2-0.5,0.2-0.8c0.2-0.6,0.3-1.3,0.6-1.9l0.2-0.5
					c0.2-0.3,0.2-0.6,0.3-0.9c2.5-8.2,7.7-15.7,14.7-22.3c7.1-6.4,14.7-10.2,22.7-11.1c15.1-1.7,27,6.9,34.2,14.6
					c1.3-0.9,2.5-1.6,3.6-1.9c0.3-0.3,0.6-0.5,0.9-0.6c1.7-0.9,3.3-1.6,4.7-2.2c1.6-1.3,3.4-1.9,5.2-2.4c0.5-0.3,1.1-0.6,1.6-0.9
					c2-1.6,4.2-2,5.6-2.2c0.5-0.3,1.1-0.5,1.6-0.6c0.9-0.3,1.9-0.5,2.8-0.6c1.6-0.8,3.3-1.1,4.5-1.3c0.9-0.2,1.9,0.2,2.7,0.2
					c0.6-0.2,1.4,0.2,1.9,0.2c0.2,0,0.2,0,0.3,0c0.8-0.2,1.6-0.9,2.4-1.1c0.6-0.3,1.4-0.8,2-0.9c0.3,0,0.6-0.2,1.1-0.2
					c1.4-0.2,2.7-0.2,3.9,0c0.2,0,0.5-0.2,0.6-0.2s0.3,1.1,0.3,1.1c0.6-0.3,1.4,0.6,2.2,0.6l0,0c1.7,0,3.4-0.8,5-0.3
					c0.3,0,0.6-0.8,0.9-0.8l0.2-0.2c1.3-0.2,2.2-0.3,3.1-0.2c0.5,0,1.1-0.2,1.6-0.2c0.2-0.6,0.5-1.4,0.6-2c0.2-0.3,0.2-0.6,0.3-0.8
					c0.3-0.6,0.5-1.4,0.8-2c0,0,0.2-0.5,0.3-0.6c0.3-0.8,0.8-1.6,1.1-2.4c0.2-0.2,0.3-0.6,0.3-0.6c0.3-0.6,0.6-1.1,0.9-1.7
					c0.2-0.3,0.3-0.5,0.5-0.6c0.5-0.6,0.8-1.3,1.3-1.7c0.2-0.2,0.2-0.3,0.3-0.3c0.5-0.6,0.9-1.3,1.6-1.9c0.2-0.2,0.3-0.3,0.3-0.5
					l0.2-0.2c0.5-0.5,0.8-0.9,1.3-1.3l0.2-0.2c0.2-0.2,0.3-0.3,0.5-0.5c0.6-0.6,1.3-1.1,1.7-1.6c0.2-0.2,0.2-0.2,0.3-0.3
					c0.5-0.5,1.1-0.8,1.6-1.3c0.2-0.2,0.5-0.3,0.6-0.5c0.5-0.3,0.9-0.6,1.6-0.9c0,0,0.5-0.3,0.6-0.3c0.6-0.5,1.4-0.8,2-1.1
					c0.2-0.2,0.3-0.2,0.5-0.2c0.6-0.3,1.1-0.5,1.7-0.8c0.3-0.2,0.5-0.2,0.8-0.3c0.6-0.2,1.1-0.3,1.6-0.6c0.3-0.2,0.5-0.2,0.6-0.2
					c0.6-0.2,1.6,1.6,2.4,1.3c0.2,0,0.6,1.7,0.8,1.7h0.2c0.5,0,0.8-2,1.3-2.2c0.3,0,0.3-2,0.6-2.2c0.5-0.2,0.8-2.2,1.4-2.2l0.8-0.2
					c0.6,0,1.4-0.6,2-0.6c0.3,0,0.5-0.6,0.8-0.6h0.2c0.5,0,1.1,1.6,1.6,1.6l0.2,0.8c0.3,0,0.5,0.5,0.8,0.5c0.8,0,1.4,0.3,2.2,0.3
					c0.2,0,0.3,0.2,0.5,0.2h0.2c0.6,0,1.1,0.2,1.6,0.2c0.3,0,0.6,0.2,0.9,0.2c0.3,0,0.5,0,0.6,0.2c0.2,0,0.3,0,0.6,0.2
					c0.6,0.2,1.1,0.2,1.7,0.3c0.3,0,0.6,0.2,0.9,0.2c0.5,0.2,1.1,0.3,1.6,0.5c0.3,0.2,0.6,0.2,0.9,0.3c0.5,0.2,1.1,0.3,1.6,0.5
					c0.3,0.2,0.6,0.2,1.1,0.3c0.5,0.2,0.9,0.5,1.6,0.6h0.2c0.3,0.2,0.6,0.2,0.8,0.3c0.5,0.2,0.9,0.5,1.6,0.6l0.2,0.2
					c0.3,0.2,0.5,0.3,0.8,0.3c0.5,0.3,0.9,0.5,1.4,0.8l0.3,0.2c0.3,0.2,0.5,0.3,0.8,0.5c0.5,0.3,1.1,0.6,1.6,0.9l0.2,0.2
					c0.2,0.2,0.5,0.3,0.6,0.5c0.8,0.5,1.6,1.1,2.4,1.6c8.2,6,12.5,14.3,12.9,24c0.3,9.9-3.8,20.7-11,29.2c0,0.2,0.2,0.2,0.2,0.3
					c0.2,0.2,0.2,0.3,0.2,0.5c0.3,0.3,0.5,0.6,0.8,0.9c0.3,0.5,0.5,0.8,0.6,1.3c0,0,0,0,0,0.2c0.2,0,0.3,0.2,0.5,0.2
					c2.7,1.3,4.5,3.9,5.8,8.3c0.3,1.3,0.6,2.5,0.8,3.4c0.5,0.8,0.8,1.6,1.3,2.5c0.6,0.6,1.3,1.4,1.6,2c1.1,0.9,1.9,2.2,2.2,3.6
					c0.5,1.7,0.5,3.3,0.3,4.5c0.3,0.9,0.5,1.7,0.6,2.4c0.5,1.4,0.8,3,1.1,4.4c0.2,0.5,0.5,1.1,0.6,1.6c0.5,0.8,0.8,1.7,1.1,2.7
					c0,0.3,0.2,0.8,0.2,1.1c0.8,1.1,1.1,2.5,1.1,3.9c1.1,1.1,1.7,2.4,2,3.9l2.5,14c3.1,1.4,6,3.6,7.2,5.8c0.9,1.7,1.4,3.6,1.6,5
					c0.2,0,0.2,0,0.3,0c4.7,0.9,11.6,2.8,15.8,9.1c2.8,4.2,4.5,9.6,5,11.1c0.8,2.8,0.9,5.5,1.1,7.8c0,1.1,0.2,2.2,0.2,3
					c0.2,1.7,0.2,3.4,0.2,4.9c0,0.9,0,1.9,0,2.5c0,0.5,0.2,1.1,0,2c0,0.5,0,1.1-0.2,1.9c-1.3,7.1-5.5,10.7-8.9,13.2
					c6.7,0.9,12.5,5.3,16.6,12.4c0,0,0,0,0,0.2c0.8,1.3,1.4,2.7,2,4.1v0.2c0.6,1.4,1.1,2.8,1.6,4.2c0,0.2,0,0.2,0,0.2
					c0.5,1.4,0.9,3,1.3,4.5v0.2c0.2,0.6,0.3,1.3,0.5,2v0.3c0.2,0.6,0.2,1.3,0.3,1.7c0,0.2,0.2,0.5,0.2,0.6c0,0-0.9,0.6-0.9,0.8
					c0.2,0.6-0.9,1.3-0.8,1.9v0.2c0.2,1.6,1.3,3,1.4,4.4l0.6,0.3c0,0.3,0.3,0.6,0.3,0.9c0,1.4,0.2,2.7,0.2,4.1l-0.5,0.3
					c0,0.8-0.6,1.6-0.6,2.4c0,0,0,0,0,0.2c0.2,0.8,0.3,1.4,0.3,2.2l0.2,0.3c0,0.8,0,1.6-0.2,2.4v0.3c-0.2,0.8-0.2,1.4-0.3,2v0.3
					c-0.2,0.8-0.3,1.6-0.3,2.2v0.5c-0.2,0.8-0.3,1.4-0.5,2v0.2c-0.2,0.8-0.3,1.4-0.6,2.2l-0.2,0.5c-0.5,1.4-0.9,2.8-1.4,4.2
					l-0.2,0.5c-0.3,0.6-0.5,1.4-0.8,2l-0.2,0.3c-0.3,0.6-0.5,1.1-0.8,1.7l-0.2,0.5c-0.3,0.6-0.6,1.3-0.9,1.9l-0.2,0.3
					c-0.3,0.6-0.6,1.1-0.9,1.6l-0.2,0.3c-0.3,0.6-0.8,1.1-1.3,1.7l-0.3,0.3c-0.3,0.5-0.8,0.9-1.1,1.4c-0.2,0.2-0.2,0.2-0.2,0.3
					c-0.5,0.5-0.9,1.1-1.4,1.6c-0.2,0.2-0.2,0.2-0.3,0.3c-0.6,0.6-1.1,0.9-1.6,1.4c-0.6,0.5-1.3,0.9-1.9,1.4
					c-0.2,0.2-0.3,0.3-0.5,0.3c-0.5,0.3-1.1,0.6-1.6,0.9c-0.2,0.2-0.3,0.2-0.5,0.3c-0.6,0.3-1.3,0.8-1.9,1.1c-0.2,0-0.3,0.2-0.3,0.2
					c-0.6,0.3-1.1,0.5-1.6,0.8c-0.2,0.2-0.5,0.2-0.6,0.3c-0.5,0.2-1.1,0.3-1.7,0.6c-0.2,0-0.3,0.2-0.3,0.2c-0.6,0.2-1.3,0.3-2,0.5
					c-0.2,0-0.2,1.9-0.3,1.9c-0.6,0.2-0.8,2-1.3,2c0,0-0.5,0-0.6,0c-0.8,0.2-1.6-1.7-2.2-1.7c-0.2,0-0.3-0.9-0.5-0.9
					c-0.5,0-1.1-0.5-1.6-0.5c-0.2,0-0.5-0.3-0.6-0.3c-0.5,0-0.9-0.3-1.4-0.3c-0.2,0-0.3-0.2-0.5-0.2c-0.6-0.2-1.3-0.3-1.7-0.5
					c-0.2,0-0.3-0.2-0.5-0.2h-0.2c-0.2,0-0.5-0.2-0.6-0.2c-0.2,0-0.3-0.2-0.5-0.2c-4.4-1.7-8.5-4.7-11.6-8.6l-14.1,20.4l-0.3,0.6
					v0.2c-0.2,0.5-0.3,0.8-0.5,1.1c-0.3,0.6-0.6,1.3-1.1,1.7l-0.2,0.2c-2.2,3.3-6,5.6-10,6c-2.5,0.3-5.2-0.2-7.4-1.4l-12.9-2.4
					c-0.2,0.2-0.3,0.8-0.3,0.8c0,0.2-0.2,0.3-0.3,0.6s-0.3,0.6-0.5,0.9l-0.2,0.2c-0.2,0.2-0.2,0.5-0.3,0.6c-0.2,0.3-0.3,0.6-0.6,0.9
					v0.2c-0.2,0.2-0.2,0.3-0.3,0.5c-0.2,0.3-0.5,0.6-0.6,0.9v0.2c-0.2,0.2-0.2,0.3-0.3,0.5c-0.3,0.3-0.5,0.6-0.8,0.9
					c-0.2,0.2-0.3,0.3-0.3,0.5c-0.3,0.3-0.5,0.6-0.8,0.9c-0.2,0.2-0.2,0.3-0.3,0.3c-0.3,0.3-0.6,0.6-0.9,0.9
					c-0.2,0.2-0.3,0.3-0.3,0.3c-0.3,0.3-0.6,0.6-0.9,0.9c-0.2,0.2-0.2,0.2-0.3,0.3c-0.3,0.3-0.8,0.6-1.1,0.9
					c-0.2,0.2-0.2,0.2-0.3,0.3c-0.5,0.3-0.8,0.5-1.3,0.8c-0.2,0-0.2,0.2-0.3,0.2c-0.5,0.3-0.9,0.5-1.3,0.8c-0.2,0-0.2,0.2-0.3,0.2
					c-0.5,0.3-0.9,0.5-1.3,0.6c-0.2,0-0.2,0.2-0.3,0.2c-0.5,0.2-0.9,0.5-1.4,0.6c-0.2,0-0.2,0.2-0.3,0.2c-0.5,0.2-0.9,0.3-1.4,0.6
					h-0.2c-0.5,0.2-1.1,0.3-1.6,0.5c0,0-0.2,0-0.3,0.2c-0.5,0.2-1.1,0.3-1.6,0.5h-0.2c-0.5,0.2-1.1,0.3-1.6,0.5c-0.2,0-0.2,0-0.3,0
					c-0.5,0.2-1.1,0.2-1.6,0.3h-0.3c-0.5,0-0.9,0.2-1.4,0.3c-0.2,0-0.3,0-0.6,0.2l-0.5-1.1C331.3,534.2,330.7,533.1,330.1,533.1
					L330.1,533.1z"/>
			</g>
			<g>
				<path fill="#FAC76D" d="M443.1,482.2c0-0.2,0.2-0.2,0.2-0.3c0.3-0.5,0.5-0.8,0.8-1.3c0-0.2,0.2-0.2,0.2-0.3
					c0.3-0.5,0.5-0.9,0.8-1.6c0-0.2,0.2-0.2,0.2-0.3c0.3-0.5,0.5-0.9,0.6-1.4c0,0,0-0.2,0.2-0.2c0.3-0.5,0.5-1.1,0.6-1.7
					c0-0.2,0.2-0.3,0.2-0.5c0.5-1.3,0.8-2.4,1.3-3.6c0-0.2,0-0.3,0.2-0.5c0.2-0.6,0.3-1.3,0.5-1.9v-0.2c0.2-0.6,0.3-1.3,0.5-1.9
					c0-0.2,0-0.3,0-0.3c0.2-0.6,0.3-1.3,0.3-2c0-0.2,0-0.2,0-0.3c0.2-0.6,0.2-1.3,0.3-1.9c0-0.2,0-0.2,0-0.3c0.2-0.6,0.2-1.4,0.2-2
					c0-0.2-1.7-0.2-1.7-0.3c0-0.6-1.6-1.4-1.6-2l0,0c0-0.8,1.9-1.4,1.9-2.2c0-0.2,0.9-0.2,0.9-0.3c0-1.4,0.5-2.8,0.5-4.2l-0.2-0.2
					c0-1.4-0.5-2.8-0.6-4.2v-0.2c-0.2-0.8,0.3-1.4,0.2-2.2c0,0,0.2,0,0.2-0.2c-0.2-0.8-0.2-1.4-0.3-2.2h-0.2c-0.2-0.6-0.6-1.4-0.6-2
					c0,0,0,0,0-0.2c-0.2-1.4-0.5-2.7-0.8-3.9c0,0,0.2-0.2,0-0.2c-0.5-1.3-0.8-2.5-1.3-3.6l0.9-0.2c-0.5-1.1-0.6-2.4-0.6-3.4l0,0
					c-4.7-5.5-9.3-9.4-15.8-8.8c-4.7,0.5-8.8,2.4-11.8,5l-1.7-8.5l-0.5-2c1.3-0.2,2.5-0.5,3.6-0.8c3.4-1.1,5.6-4.1,8.8-6.3
					c3.3-2.4,6.1-4.4,6.9-9.1c0-0.3,0-0.6,0-0.9c0-0.3,0-0.6,0-0.8l0,0l0,0c-0.3-2.4,0-4.9-0.3-7.2c-0.5-3.1-0.2-6.6-1.1-9.6
					c-0.9-3-2.4-6.7-4.1-9.1c-2.7-3.9-7.1-5.2-11-6c-1.7-0.3-4.9-0.5-5.8-2.5c-0.8-1.9,0.2-4.2-1.1-6.1c-0.6-1.1-5.5-3.9-7.2-3.8
					l-3.3-18.3l-0.3-0.2v-0.5l-0.9,0.2l-0.9,1.6l-0.6,0.2c-0.3-0.9,0.3-3,0.3-3.9s0.2-1.6,0.3-2.5c-0.3,0.2-0.5,0.5-0.6,0.8
					c-0.3-1.6-0.3-3.1-0.5-4.5c-0.2,0.2-0.2,0-0.3,0.2c-0.2-1.4-0.5-2.4-0.9-3.4c-0.3-1.7-0.8-3.3-1.4-5c-0.2-0.8-0.3-1.4-0.6-2
					c-0.2-0.3-0.3-0.8-0.3-1.1c0.2-1.1,0.5-2.4,0.2-3.4c-0.2,0-0.3,0.2-0.3,0.2c-0.6-0.8-0.8-1.7-1.6-2.5c-0.3-0.3-0.6-0.5-0.8-0.8
					c-0.6-1.6-1.4-3.1-2.2-4.5c-0.2-1.1-0.3-2.4-0.6-3.6c-0.3-0.9-1.1-3.4-1.9-3.8c0,0-0.2,0.3-0.5,0.3s-0.5-0.3-0.8-0.5
					c-0.5-0.2-0.8-0.6-1.3-0.8c-0.3-0.5-0.6-0.9-0.8-1.4c-0.2,0-0.2,0.2-0.3,0.2c-0.3-0.5-0.5-1.3-0.8-1.7s-0.9-0.6-1.1-0.9
					c-0.3-0.5-0.3-1.1-0.5-1.7c-0.5-1.1-1.9-2.5-2.8-2.5c-0.2-0.5-0.3-0.8-0.6-1.3c12.4-10.5,21.3-33.7,3.8-46.7
					c-0.6-0.5-1.3-0.9-1.9-1.4c-0.2-0.2-0.5-0.3-0.6-0.5c-0.5-0.3-0.9-0.6-1.4-0.8c-0.3-0.2-0.5-0.3-0.8-0.5
					c-0.5-0.2-0.8-0.5-1.3-0.6c-0.3-0.2-0.6-0.3-0.8-0.5c-0.5-0.2-0.8-0.5-1.3-0.6c-0.3-0.2-0.6-0.3-0.9-0.3
					c-0.5-0.2-0.8-0.3-1.3-0.5c-0.3-0.2-0.6-0.2-0.8-0.3c-0.5-0.2-0.9-0.3-1.4-0.5c-0.3-0.2-0.6-0.2-0.8-0.3
					c-0.5-0.2-0.9-0.3-1.4-0.3c-0.3,0-0.6-0.2-0.8-0.2c-0.5-0.2-0.9-0.2-1.4-0.3c-0.2,0-0.3,0-0.5-0.2c-0.2,0-0.3,0-0.5,0
					c-0.3,0-0.5,0-0.8-0.2c-0.5-0.2-0.9-0.2-1.3-0.2c-0.2,0-0.3,0-0.6,0c-0.6,0-1.3-0.2-1.7-0.2c-0.2,0-0.5,0-0.6,0
					c-0.5,0-0.8,0-1.3,0c-0.3,0-0.6-1.7-0.9-1.7c-0.6,0-1.3-1.7-1.9-1.6c-0.2,0-0.3,0-0.5,0c-0.5,0-0.8,1.9-1.3,1.9
					c-0.2,0-0.3,0.9-0.6,0.9c-0.5,0-0.8,0.6-1.3,0.6c-0.2,0-0.3,0.3-0.6,0.3c-0.6,0.2-1.1,0.5-1.7,0.6c-0.2,0-0.3,0.2-0.5,0.2
					c-0.5,0.2-0.8,0.3-1.3,0.5c-0.2,0.2-0.5,0.2-0.6,0.3c-0.5,0.2-0.8,0.3-1.3,0.5c-0.2,0-0.3,0.2-0.5,0.2c-0.5,0.3-1.1,0.5-1.6,0.8
					c-0.2,0.2-0.3,0.2-0.5,0.3c-0.3,0.2-0.8,0.5-1.1,0.8c-0.2,0.2-0.3,0.2-0.5,0.3c-0.5,0.3-0.9,0.6-1.3,0.9c-0.2,0-0.2,0.2-0.2,0.2
					c-0.5,0.5-0.9,0.8-1.4,1.3c-0.2,0.2-0.3,0.3-0.5,0.5c-0.3,0.3-0.6,0.6-0.9,1.1c-0.2,0.2-0.3,0.3-0.5,0.5
					c-0.5,0.5-0.8,0.9-1.3,1.4c0,0.2-0.2,0.2-0.2,0.3c-0.3,0.5-0.6,0.9-0.9,1.4c-0.2,0.2-0.3,0.3-0.3,0.5c-0.3,0.5-0.5,0.9-0.8,1.4
					c-0.2,0.2-0.2,0.3-0.3,0.5c-0.3,0.6-0.6,1.3-0.9,1.9c0,0.2-0.2,0.3-0.2,0.5c-0.2,0.5-0.5,1.1-0.6,1.6c-0.2,0.2-0.2,0.5-0.3,0.6
					c-0.2,0.6-0.5,1.3-0.6,1.9c0,0.2,0,0.3-0.2,0.3c-0.2,0.8-0.5,1.6-0.6,2.4c0,0.2-0.2,0.5-0.2,0.6c-0.2,0.6-0.3,1.3-0.3,1.9
					c0,0.2,0,0.3-0.2,0.5c-0.3-0.2-0.5-0.2-0.8-0.2c-0.5-0.2-0.6,0-1.1,0c-0.8-0.2-1.4-0.6-2-0.8c0,0.3,0,0.6,0,0.8
					c-0.9-0.2-2-0.8-3-0.6c0,0.2,0,0.3,0,0.5c-1.1,0-2-0.8-3.1-0.6c0,0.2,0,0.2,0.2,0.3c-0.6,0-0.8,0.5-0.6,0.5c-0.2,0-0.3,0-0.5,0
					c-1.3,0-3.3-1.6-4.9-1.4c0.6,0.5,1.6,0.6,2.4,0.9c-1.7,0.3-3.9-0.8-5.6,0c-1.4-0.2-2.8-0.3-4.1-0.2c0.2,0.3,0.3,0.3,0.5,0.3
					c-0.9,0.2-1.9,0.3-3,0.5c0,0.2,0.2,0.3,0.3,0.3c-1.4,0.5-3.3,0.3-4.7,0.8c-1.7,0-4.1,0-5,0.8c0.3,0,0.6,0.2,0.9,0.2
					c-1.7,0.2-3.4,0.5-5,0.9c0.2,0,0.3,0.2,0.6,0.2c-1.6,0.8-4.1,0.5-5.3,1.6c0.9,0,1.9-0.3,2.8-0.2c-1.4,0.3-3.6,0.5-4.7,1.4
					c0.5,0.2,1.1,0,1.4,0.2c-0.2,0.2-0.3,0.2-0.5,0.2c-1.9,0.3-4.4,0.5-5.6,1.6c0.5,0,0.8,0,1.3,0c-2.4,0.9-4.4,1.3-6.6,2.7
					c0.3,0.2,0.9,0,1.3,0.2c-1.4,1.1-4.2,0.8-5.3,2.2c0.9,0.8-2,1.6-2.4,1.9c0,0.2,0.2,0.3,0,0.5c-0.2,0.2-0.3,0.6-0.5,0.8
					c-0.3,0.5-0.5,0.8-0.6,1.3c-0.2,0.2,0,0.3,0,0.5c-0.2,0.2-0.5,0.3-0.6,0.5h-0.2c-11-15.2-31.2-28.4-51.9-9.6
					c-6.4,5.8-10.8,12.7-12.9,19.9l0,0h-0.2c-0.2,0.6-0.5,1.4-0.6,2c0,0.2-0.2,0.3-0.2,0.5c-0.2,0.6-0.3,1.4-0.5,2
					c0,0.2,0,0.2-0.2,0.3c-0.2,0.6-0.2,1.3-0.3,1.9c0,0.2,0,0.3,0,0.5c-0.2,0.8-0.2,1.4-0.3,2c0,0.2,0,0.3,0,0.5
					c0,0.6-0.2,1.3-0.2,1.9c0,0.2,0,0.3,0,0.5c0,0.6,0,1.4,0,2c0,0.2-0.6,0.5-0.6,0.6c0,0.6-0.6,1.4-0.6,2v0.2
					c0.2,0.6,0.8,1.3,0.9,2c0,0.2,0.5,0.3,0.5,0.5c0.2,0.6,0.5,1.4,0.5,2l0.2,0.2c0.2,0.6,0.3,1.3,0.5,1.9c0,0.2,0.2,0.3,0.2,0.5
					c0.2,0.6,0.5,1.3,0.6,2c0,0.2,0.2,0.3,0.2,0.3c0.2,0.6,0.5,1.1,0.6,1.7c0,0.2,0.2,0.3,0.2,0.3c0.3,0.6,0.5,1.3,0.8,1.9
					c0,0.2,0.2,0.3,0.2,0.5c0.3,0.6,0.6,1.1,0.8,1.7c0,0.2,0.2,0.2,0.2,0.3c0.3,0.6,0.6,1.3,1.1,1.7c0.2,0.2,3.8,0,3.9,0.2
					c0.3,0.6,4.9,0.8,4.9,1.4l0,0c0,0.6-2.8,1.4-2.4,2c0.2,0.2-1.6,0.5-1.6,0.5c0.5,0.5,0,1.1,0.5,1.7c0,0-0.3,0.2-0.3,0.3
					c0.5,0.5,0.6,0.9,1.1,1.4c0.2,0.2,0.2,0.3,0.2,0.3c0.5,0.5,0.9,0.9,1.6,1.4c0.2,0.2,0.2,0.2,0.3,0.3c0.5,0.5,0.9,0.8,1.4,1.3
					c0.2,0.2,0.2,0.2,0.3,0.2c0.6,0.5,1.1,0.8,1.7,1.3c0.2,0.2,0.3,0.2,0.5,0.3c0.6,0.3,1.1,0.8,1.7,1.1c0,0,0.2,0,0.2,0.2
					c0.6,0.3,1.3,0.8,2,1.1c0.2,0,0.3,0.2,0.5,0.2c0.6,0.3,1.4,0.6,2,0.9c0,0,0.2,0,0.2,0.2c0.6,0.3,1.4,0.5,2,0.8
					c0.2,0,0.2,0.2,0.3,0.2c-0.6,0.5-1.4,0.8-2,1.1l0,0c-0.2,0.2-0.3,0.2-0.5,0.3c0,0-0.2,0-0.2,0.2c-0.2,0.2-0.3,0.2-0.3,0.3
					l-0.2,0.2c-0.2,0.2-0.3,0.3-0.5,0.5c0.2,0,0.8,0.2,0.9,0.2c0,0.2,0.2,0.3,0.2,0.5c0,0.2-0.2,0.2-0.2,0.3c-0.8,0.9-1.6,1.9-2.2,3
					l0,0c0,0,0,0-0.2,0c-0.2,0.2-0.3,0.2-0.3,0.3c-0.2,0.2-0.3,0.2-0.5,0.3s-0.3,0.2-0.3,0.3c-0.2,0-0.2,0.2-0.3,0.2
					c-0.2,0-0.2,0.2-0.3,0.2c-0.2,0.2-0.2,0.2-0.3,0.2c-0.2,0-0.2,0.2-0.3,0.2c-0.2,0.2-0.2,0.2-0.3,0.3l-0.2,0.2
					c-0.2,0.2-0.2,0.2-0.3,0.3l-0.2,0.2c0,0.2-0.2,0.2-0.2,0.3c0,0,0,0.2-0.2,0.2c0,0.2-0.2,0.3-0.2,0.5c1.7,0.2-0.6,2.4-1.3,3
					c-1.1,1.4-4.4,3.9-4.5,5.8c0.2,0,0.3,0,0.5,0c0.6,2-1.6,3.1-1.9,5c0.2,0,0.3,0,0.5,0c0,0,0,0,0,0.2c-0.6,1.4-1.3,2.7-1.9,4.1
					c0,0.2-0.2,0.3-0.2,0.5c-0.2,0.2-0.5,0.5-0.6,0.6s-0.3,0.3-0.5,0.5c0,0,0,0,0,0.2c-0.2,0.2-0.3,0.3-0.3,0.5c0,0,0,0.2-0.2,0.2
					c-0.2,0.2-0.3,0.3-0.3,0.5c-0.6,1.1-1.6,2.2-2,3.4c-0.2,0.2,0.3,0.5,0.2,0.8c-0.5,1.1-1.4,1.9-1.9,3c0.2,0,0.3,0,0.5,0
					c0.3,1.6-0.6,3.6-1.3,4.9c-0.6,1.3-3.3,3.6-3.3,5c0,0.9,0.8,0.5,1.1,0.9c0.6,2.2-1.4,4.1-1.3,5.8c0,1.3,0.5,2.7,0.3,4.2
					c-0.3,2-2.4,3.4-2.7,5.3c-0.2,1.1,0.3,0.5,0.5,1.3c0.2,1.3,0.8,2.5,0.8,3.8c-0.2,2.5-0.8,5-0.8,7.7c0,0.6,0.2,1.3,0.2,1.7
					c0,1.4-0.9,2.8-0.9,4.1c0.2-0.2,0.5-0.2,0.8-0.2c0.3,1.7-0.5,3.3-0.5,5c1.4,0.6-0.2,3.3,0.2,4.4c0.2,0,0.3,0.2,0.3,0.2l0,0
					c0,0.2,0.3,0,0.3,0.2c0,0.6,0.2,1.3,0.3,1.9c0,0.6,0,1.1,0,1.7c0,0.2,0,0.3,0,0.3c0,0.2,0,0.2,0,0.3c0,0.3,0,0.5,0,0.8
					c0.3,4.1-1.1,8,0,11.9c0.2-0.3,0.5-0.6,0.8-0.9c0,2.4-0.2,5,0.2,7.4c0.3,1.6,0.6,4.4,1.3,6c0.5,0.9,1.6,1.9,2,3.1l0,0
					c-3-0.9-5.2-0.8-8.6,0.8c-0.3,0.2-0.5,0.3-0.6,0.3l-0.2,0.2c-0.2,0.2-0.3,0.2-0.3,0.3l-0.2,0.2c-0.2,0.2-0.2,0.2-0.3,0.3
					l-0.2,0.2c-0.2,0.2-0.2,0.2-0.2,0.3l-0.2,0.2c-0.2,0.2-0.2,0.3-0.2,0.5v0.2c0,0.2-0.2,0.3-0.2,0.6v0.2c0,0.2-0.2,0.3-0.2,0.5
					v0.2c0,0.2,0,0.3,0,0.5c0,0.2,0,0.2,0,0.3s0,0.3,0,0.5c0,0.2,0,0.2,0,0.3c0,0.2,0,0.3,0,0.5c0,0.2,0,0.2,0,0.3s-0.5,0.3-0.5,0.5
					c0,0.3-0.6,0.6-0.6,0.9l0,0c0,0.2,0.5,0.5,0.5,0.6l0.3,0.2c0,0.2,0.2,0.3,0.2,0.5c0,0.2,0,0.3,0,0.5c0,0.2,0,0.2,0,0.3
					c0,0.3,0,0.5-0.2,0.8c-0.6,2.5-3.9,5-3.6,7.2c0.2,0.8,1.4,1.6,1.9,2.4c0.6,1.3,0.6,2.8,0.8,4.2c0.3,3.1,0.8,3.6,2.8,6
					c1.4,1.6,2,3.6,2.2,5.8c2.5-0.2,6.4-1.7,8.2,0.5c1.6,2,0.5,3.8,3.3,5.5c2.4,1.4,6.1,3.8,8.6,4.2c0.8,0.2,1.7-0.5,2.5-0.3
					c2.4,0.5,3.8,3,5.8,3.8c1.7,0.6,3.8,0.2,5.6,0c5.3-0.6,10.5-2.4,15.5-4.2c0.5,0.2,0.8,0.5,1.1,0.6c0.8,0.3,1.3,0,2.2,0.5
					c1.7,0.8,1.9,1.7,3.8,1.6c0.5,0,1.4-0.8,2-0.9c0.3,0,0.9,3.4,1.3,3.4c1.6,0.3,3.4,4.5,5,4.4l0,0c1.1-0.2,2-1.6,3.6,0
					c0.2-0.2,0-2,0.2-2.2v-0.9c0-0.2,0-0.6,0.2-0.8v-0.3c0.2-0.2,0.2-0.5,0.2-0.6c0-0.2,0-0.2,0.2-0.3c0-0.2,0.2-0.2,0.2-0.3
					l0.2-0.2l0.2-0.2l0.2-0.2l0.2-0.2c0.2-0.2,0.3-0.2,0.5-0.2s0.2,0.2,0.3,0.2l0,0c0.8,0.6,1.7,1.4,2.4,2c0.2,0.2,0.2,0.2,0.3,0.3
					l0,0c0.2,0,0.2,0.2,0.2,0.2s0,0,0.2,0l0.2,0.2c0.8,1.1,2.2,3,3.6,3.3c0.5,0.2,0.9,2.2,0.8,2c0,0,0.3,2.8,0.2,2.8l2.5-0.3l0,0
					l-1.3,0.2h-0.6h-0.6l0,0l-0.9-2.8L270,517v-0.6l0.9,2.4c0.5,0,1.9,2.5,2,2.5l0,0c0.2,0,0.2,0,0.3,0l0,0c0.8,0-2.2-3-2.2-2.4
					v-0.2c0,0.2,3-0.2,3-0.2c1.3,0.6,3.6,1.6,5,1.9c0-0.2,0.8-0.5,0.9-0.8c1.3,0.6,3.4,2.4,4.5,1.1c2.5,1.6,5.2,2.5,7.8,3.1
					c0.2,0,0.5,0,0.6,0.2c0.2,0,0.2,0,0.3,0s0.3,0,0.5,0c0.2,0,0.2,0,0.3,0c0.2,0,0.3,0,0.3,0c0.2,0,0.3,0,0.3,0h0.2c0,0,0,0,0.2,0
					c0.5,0.2,0.8,0.3,1.3,0.5c0.2,0,0.2,0.3,0.3,0.3c0.5,0.2,0.9,0.8,1.4,0.8l0,0c0.5,0,0.9,0,1.4,0.2c0.2,0,0.3,0,0.3,0
					c0.3,0.2,0.6,0.2,1.1,0.2c0.2,0,0.2-2.7,0.3-2.7c0.5,0.2,0.8-2.5,1.3-2.5l0,0c0.5,0,1.1,2.8,1.4,2.8c0.2,0,0.3,1.4,0.5,1.4
					c0.3,0,0.6,0.6,0.9,0.6c0.2,0,0.3,0.3,0.3,0.3c0.2,0,0.5,0.2,0.6,0.2c1.4,0.6,3,1.3,4.5,1.4c0.2,0,0.2,0,0.3,0l0,0
					c0,0,0,0,0.2,0c0.8,0,1.6,0.2,2.2,0.2c0,0,0,0.3,0.2,0.3c0.8,0,1.4,0.5,2.2,0.5c0,0,0,0,0.2,0c0.8,0,1.4-0.3,2.2-0.2l0,0
					c0.6,0,1.4,0.2,2,0.2l0,0c0.6,0,1.4-0.2,2-0.2v0.2c0.6,0,1.3,0.2,1.9,0.2l0,0c0.6,0,1.3-0.8,1.9-0.8v-0.3c0.6,0,1.3,0.2,1.9,0.2
					v-0.3c0.6,0,1.1-0.5,1.7-0.5c0,0,0,0,0.2,0c0.6,0,1.1,0.3,1.7,0.3l0.2,0.2c0.5,0,1.1,0,1.6-0.2h0.2c0.5-0.2,0.9-0.2,1.6-0.3h0.2
					c0.5-0.2,0.9-0.2,1.4-0.3h0.2c0.5-0.2,0.9-0.3,1.4-0.3h0.2c0.5-0.2,0.9-0.3,1.3-0.5h0.2c0.5-0.2,0.8-0.3,1.3-0.5h0.2
					c0.5-0.2,0.8-0.3,1.1-0.5c0,0,0.2,0,0.2-0.2c0.3-0.2,0.8-0.3,1.1-0.6l0.2-0.2c0.3-0.2,0.6-0.3,0.9-0.6c0,0,0.2,0,0.2-0.2
					c0.3-0.2,0.6-0.5,0.9-0.6l0.2-0.2c0.3-0.2,0.6-0.5,0.8-0.6l0.2-0.2c0.3-0.2,0.5-0.5,0.8-0.6c0.2-0.2,0.2-0.2,0.2-0.2
					c0.3-0.2,0.5-0.5,0.6-0.6c0.2-0.2,0.2-0.2,0.2-0.3c0.2-0.3,0.5-0.5,0.6-0.8c0.2-0.2,0.2-0.2,0.3-0.3c0.2-0.3,0.3-0.5,0.6-0.8
					c0.2-0.2,0.2-0.2,0.3-0.3c0.2-0.3,0.3-0.5,0.5-0.8c0.2-0.2,0.2-0.3,0.2-0.3c0.2-0.3,0.3-0.5,0.5-0.8c0-0.2,0.2-0.3,0.2-0.5
					c0.2-0.3,0.3-0.5,0.5-0.8c0-0.2,0.2-0.3,0.2-0.5c0.2-0.3,0.2-0.5,0.3-0.8c0.2-0.2,0.2-0.5,0.3-0.6c0-0.3,0.2-0.5,0.3-0.8
					c0.2-0.3,0.2-0.6,0.3-0.8c0-0.2,0.2-0.3,0.2-0.6c0.2-0.5,0.3-0.9,0.3-1.4c0.2-0.5,0.2-0.8,0.3-1.3l19.3,3.9
					c3.1,2.4,7.4,0.5,7.4-2.2l0,0c0-0.2,1.7-0.3,1.7-0.5l0.8-0.2c0-0.2,0.5-0.2,0.5-0.3c0-0.2,0.3-0.3,0.3-0.5
					c0-0.3,0.2-0.5,0.2-0.5l0,0l1.1-1.6l22.4-30.7c1.7,6.7,10.3,13.5,15.1,16l0,0c0,0.2-0.9,0.3-0.8,0.3c0.2,0-0.5,0.2-0.3,0.2
					c0.3,0.2,0.5,0.3,0.9,0.3c0.2,0,0,0,0.2,0c0.3,0,0.6,0.2,0.9,0.2c0.2,0,0.2,0,0.3,0c0.3,0,0.6,0,1.1,0c0.2,0,0.5,2.5,0.5,2.5
					c0.5,0,1.1,2.5,1.6,2.4c0.2,0,0.3,0,0.5,0c0.3,0,0.5-2.5,0.8-2.7c0.2,0,0.2-1.3,0.3-1.3c0.5-0.2,0.8-0.8,1.3-0.9l0.2-0.3
					c0.5-0.2,0.8-0.5,1.3-0.6c0.2,0,0.3-0.2,0.5-0.3c0.5-0.2,0.8-0.3,1.3-0.6c0.2,0,0.2-0.2,0.3-0.2c0.5-0.3,0.9-0.5,1.4-0.8
					c0.2,0,0.3-0.2,0.3-0.3c0.5-0.3,0.8-0.5,1.3-0.8c0.2-0.2,0.3-0.2,0.5-0.3c0.5-0.3,1.1-0.8,1.6-1.1s0.8-0.6,1.1-1.1
					c0.2-0.2,0.2-0.2,0.3-0.3c0.3-0.3,0.8-0.8,1.1-1.1l0.2-0.2c0.3-0.3,0.6-0.8,0.9-1.1c0.2-0.2,0.2-0.2,0.2-0.3
					C442.5,483.1,442.8,482.6,443.1,482.2z"/>
			</g>
			<g>
				<g>
					<path fill="#C86D2A" d="M226.4,335.6c-1.6,1.1-3.6,1.7-4.7,3.1c0.2,0,0.8,0.2,0.9,0.2c0.9,3.1-5.5,4.7-6,7.2
						c1.7,0.2-0.6,2.4-1.3,3c-1.1,1.4-4.4,3.9-4.5,5.8c0.2,0,0.3,0,0.5,0c0.6,2-1.6,3.1-1.9,5c0.2,0,0.3,0,0.5,0
						c0.8,2.5-3.1,5-4.2,6.7c-0.6,1.1-1.6,2.2-2,3.4c-0.2,0.2,0.3,0.5,0.2,0.8c-0.5,1.1-1.4,1.9-1.9,3c0.2,0,0.3,0,0.5,0
						c0.3,1.6-0.6,3.6-1.3,4.9s-3.3,3.6-3.3,5c0,0.9,0.8,0.5,1.1,0.9c0.6,2.2-1.4,4.1-1.3,5.8c0,1.3,0.5,2.7,0.3,4.2
						c-0.3,2-2.4,3.4-2.7,5.3c-0.2,1.1,0.3,0.5,0.5,1.3c0.2,1.3,0.8,2.5,0.8,3.8c-0.2,2.5-0.8,5-0.8,7.7c0,0.6,0.2,1.3,0.2,1.7
						c0,1.4-0.9,2.8-0.9,4.1c0.2-0.2,0.5-0.2,0.8-0.2c0.3,1.7-0.5,3.3-0.5,5c1.4,0.6,0.2,3,0.5,4.1c0.2,0,0.5,0,0.6,0
						c0.5,1.9-0.2,3.8,0,5.6c0.3,4.1-1.1,8,0,11.9c0.2-0.3,0.6-0.6,0.8-0.9c0,2.4-0.3,5,0.2,7.4c0.3,1.6,0.6,4.4,1.3,6
						c0.5,0.9,1.6,1.9,2,3.1c0.8,1.9,1.6,3.8,2.2,5.6c0.9,2.2,1.9,4.9,3.1,6.7c1.3,1.9,2.8,3.4,3.9,5.6c2,4.2,3.8,7.7,7.1,11.1
						c2-1.3,11.4,9.3,13.5,11c1.9,1.6,3.4,3.3,5.5,4.4c2.2,1.3,2.7,0.8,4.5,1.1c0.9,0.2,2,1.1,3,1.4c0.8,0.3,1.3,0,2.2,0.5
						c1.7,0.8,1.9,1.7,3.8,1.6c0.5,0,1.4-0.8,2-0.9c4.5-1.1,6.1,0.8,9.6,4.2c0.9-0.9,0.9-3,2.8-2.8c0.3-3.4-7.7-6.6-10-7.7
						c-7.7-3.6-15.5-7.1-22.6-11.9c-13.3-9.3-20.9-24.6-27.9-38.9c-3.8-7.4-5.3-16-4.4-24.1c0.2-1.4,0.8-8.3,2-8.9"/>
				</g>
				<g>
					<path fill="#E2E2EC" d="M329.6,259c2.8-32.8,33.4-36.4,52.8-22c19.4,14.4,6.4,41.4-7.7,49.7l-34.3-20.9L329.6,259z"/>
				</g>
				<g>
					<path fill="#EEF3F4" d="M382.4,237.1c-5.2-3.9-11.3-6.4-17.4-7.5c-1.7,1.7-2.8,3.8-1.9,6.3c2,4.9,13.5,7.7,9.9,11.6
						c-9.3,8.8-22.1,16-35.1,16.9l2.4,1.6l34.3,20.9C388.7,278.5,401.9,251.5,382.4,237.1z"/>
				</g>
				<g>
					<path fill="#F7F9F9" d="M373,247.4c3.6-3.9-7.8-6.7-9.9-11.6c-0.9-2.5,0.2-4.4,1.9-6.3c-16.6-2.8-33.4,5.5-35.4,29.5l36.2,22.9
						C378.7,281,363.8,256.1,373,247.4z"/>
				</g>
				<g>
					<path fill="#E2E2EC" d="M226.6,511.2c5.6-0.6,11.3-2.5,16.5-4.5c4.5-1.7,4.5-4.7,2.5-9.1c-1.9-3.9-3.6-7.5-5.3-11.6
						c-1.7-3.9-3.9-7.2-7.8-9.3c-3.1-1.7-6.6-2.5-9.7-4.2c-2.5-1.6-4.5-3.6-7.1-5.3c-4.2-3-8.9-4.2-13.6-6.1
						c-3.8-1.6-6.1-1.6-10,0.3c-4.1,1.9-2.5,6.6-3.3,10.3c-0.6,2.5-3.9,5-3.6,7.2c0.2,0.8,1.4,1.6,1.9,2.4c0.6,1.3,0.6,2.8,0.8,4.2
						c0.3,3.1,0.8,3.6,2.8,6c1.4,1.6,2,3.6,2.2,5.8c2.5-0.2,6.4-1.7,8.2,0.5c1.6,2,0.5,3.8,3.3,5.5c2.4,1.4,6.1,3.8,8.6,4.2
						c0.8,0.2,1.7-0.5,2.5-0.3c2.4,0.5,3.8,3,5.8,3.8C222.7,511.8,224.9,511.3,226.6,511.2z"/>
				</g>
				<g>
					<path fill="#C86D2A" d="M399.2,329.6c-2.4-16.2-8.8-36.1-29.8-52.1c-21-16-37.3-24.8-67.9-20.1c-30.7,4.7-51.6,32.3-52.7,33.2
						c-0.9,0.9-10.8,26-10.8,26s11.3,3.8,2.4,7.4c-20.1,8.5-39.8,48.9-42.5,72.1c-7.8,66.6,16,92,35.3,105.1
						c19.4,12.9,61.2,8.3,61.2,8.3s46.7-26.2,46.4-25.7c-0.3,0.6,49.5-74.6,49.5-74.6l7.7-58.2L399.2,329.6z"/>
				</g>
				<g>
					<path fill="#C86D2A" d="M319.6,256.8c-1.1-0.9-3.6-2.2-5.6-2c0.6,0.5,1.6,0.5,2.4,0.9c-1.7,0.3-4.1-0.8-5.6,0
						c0.2,0,0.5,0,0.6,0c-1.6-0.3-3.1-0.5-4.7-0.2c0.2,0.3,0.5,0.5,0.8,0.3c-1.1,0.2-2.2,0.3-3.3,0.5c0,0.2,0.2,0.3,0.3,0.3
						c-1.6,0.6-3.4,0.3-4.9,0.8c0.5,0,0.8,0,1.3-0.2c-1.6,0.2-5-0.2-6.1,0.8c0.3,0,0.6,0.2,0.9,0.2c-1.7,0.2-3.4,0.5-5,0.9
						c0.2,0,0.3,0.2,0.6,0.2c-1.6,0.8-4.1,0.5-5.3,1.6c0.9,0,1.9-0.3,2.8-0.2c-1.4,0.3-3.6,0.5-4.7,1.4c0.5,0.2,1.3,0,1.7,0.3
						c-1.7,0.5-4.9,0.5-6.3,1.6c0.5,0,0.8,0,1.3,0c-2.4,0.9-4.4,1.3-6.6,2.7c0.3,0.2,0.9,0,1.3,0.2c-1.4,1.1-4.2,0.8-5.3,2.2
						c0.9,0.8-2,1.6-2.4,1.9c0,0.2,0.2,0.3,0,0.5c-0.2,0.2-0.3,0.6-0.5,0.8c-0.3,0.5-0.5,0.8-0.6,1.3c-0.2,0.3,0.2,0.3-0.2,0.6
						c-0.3,0.5-1.4,0.5-1.7,0.9c-0.5,0.3-0.9,1.3-0.5,1.7c1.3,1.1,6.6-1.4,7.5-1.7c5.3-1.7,10.8-3.3,16-5.5c8.6-3.6,17.7-6.9,27-8.5
						c1.4-0.3,6.3,0.2,6.7-1.6c0.2-0.8-3.1-3.8-0.9-3.6c0-0.2,0-0.5-0.2-0.6c1.1-0.2,2,0.8,3.1,0.6c0-0.2,0-0.3,0-0.5
						c0.9-0.2,2,0.5,3,0.6c0-0.3,0-0.6,0-0.8c0.6,0.2,1.3,0.6,2,0.8c0.5,0-0.3-0.2,0,0c1.1,0.2,2.4,0.9,2.4,1.1V257
						c0,0.3,2.4,0.8,3,0.9c0-0.2,0.5-0.2,0.3-0.3c0.9,0.2,2.2,0.8,3.1,0.9c0-0.2,0.2-0.2,0.2-0.3c1.7,0.6,3.3,1.1,4.7,2
						c0,0,0-0.2,0.2-0.2c0.6,0.3,1.3,0.6,1.7,0.9c0-0.2,0-0.2,0-0.3c0.8,0.6,1.6,1.3,2.5,1.6c0-0.2-1.3-0.2-1.3-0.3
						c1.9,0.8,4.1,1.9,4.1,2.5v-0.2c4.7,0.6,2.7,1.3,3.4,1.9l0.6-0.2c0.8,0.6,2.2,1.3,3,1.9c0-0.2,0.2-0.3,0.2-0.3
						c0.9,0.5,1.7,1.3,2.8,1.6c0.5,0.2,0.8,0.2,1.3,0.3c0.9,0.3,1.4,1.7,2.4,2c0.5,0.2,0.5-0.3,1.1-0.2c0.9,0.3,1.7,1.7,2.5,2.4
						c0.8,0.6,1.9,1.3,2.7,2c1.6,1.4,2.7,3.6,4.4,4.7c0-0.2,0-0.3,0-0.3c0.8,0.5,1.7,1.1,2.4,1.9c0-0.2,0-0.5-0.2-0.6
						c0.8,0.5,1.4,1.9,2,2c0-0.2,0.2-0.5,0.2-0.6c0.5,0.8,0.9,1.7,1.4,2.7c1.1,0.2,2.4,1.6,2.8,2.5c0.3,0.5,0.2,1.1,0.5,1.7
						c0.2,0.3,0.8,0.6,1.1,0.9c0.3,0.5,0.5,1.3,0.8,1.7c0.2,0,0.2,0,0.3-0.2c0.3,1.3,1.7,2.2,1.7,3.6c-1.3,0.5-3-1.9-3.8-2.7
						c-3.4-3.1-8-5-12.1-7.4c-3.9-2.4-7.7-4.9-11.6-7.2c-5.5-3.3-11.3-5.3-16.9-8c-5.3-2.5-11.1-3.6-16.3-6.6c-1.6-0.9-2.8-2-4.4-3
						c-1.3-0.8-3.1-1.1-4.1-2"/>
				</g>
				<g>
					<path fill="#F7F9F9" d="M302.3,362.2c14.7-22.4,51-33.1,80-26.7c29,6.4-17.4,50.2-17.4,50.2L333,378c0,0-14.7-0.2-23.7-3.3
						C302.5,372.1,299.5,366.4,302.3,362.2z"/>
				</g>
				<g>
					<path fill="#F7F9F9" d="M309.8,353.3c0.9,0.2,1.7,0.6,2.7,1.3c2.8,2.2,0.3,7.1,3,8.3c6.6,4.9,14.1-0.5,21.3,5.2
						c1.7,1.4,4.5-0.5,7.4-1.9c3-0.8,6.6,0.3,9.4-1.1c1.6-0.2,2.2-2.8,3.3-2.8c15.8,2.5,14.1-18.3,19.8-27.9
						C353,331.2,326,338.4,309.8,353.3z"/>
				</g>
				<g>
					<path fill="#F3ECE4" d="M401.7,335.7l0.3-0.8l-5.8-0.6l-6.1,5l1.4-5.6l-4.4,0.5l-25.1,43c0,0-50.5-17.4-79.5-17.1l-1.9,2.5
						l-2.5,1.7l-3,4.7l82.2,17.2l7.2-1.7c0,0,15.2-10.3,15.5-10.8s20.7-30.6,20.7-30.6"/>
				</g>
				<g>
					<path fill="#E4D8CF" d="M401.7,335.7l0.3-0.8l-2.7-0.3c-9.6,11-33.4,43.7-35.1,47.5c-14.6-4.7-78.6-14.3-87.5-15.7l-1.7,2.7
						l82.2,17.2l7.2-1.7c0,0,15.2-10.3,15.5-10.8c0.3-0.5,20.7-30.6,20.7-30.6L401.7,335.7z"/>
				</g>
				<g>
					<path fill="#343738" d="M357.5,321c0.6,5.2-0.9,9.6-3.4,9.9c-2.5,0.3-5-3.8-5.5-8.8c-0.6-5.2,0.9-9.6,3.4-9.9
						C354.4,311.9,356.9,315.8,357.5,321z"/>
				</g>
				<g>
					<path fill="#515453" d="M356.3,318c0.3,2.5-0.6,4.7-2.2,4.9c-1.4,0.2-3-1.7-3.1-4.2c-0.3-2.5,0.6-4.7,2.2-4.9
						C354.5,313.4,355.9,315.3,356.3,318z"/>
				</g>
				<g>
					<path fill="#343738" d="M319.7,332.9c0.6,5.5-1.1,10.2-3.8,10.5c-2.7,0.3-5.3-3.9-6-9.4c-0.6-5.5,1.1-10.2,3.8-10.5
						S319.1,327.4,319.7,332.9z"/>
				</g>
				<g>
					<path fill="#515453" d="M318.3,329.6c0.3,2.7-0.8,5-2.4,5.2c-1.6,0.2-3.1-1.9-3.4-4.5c-0.3-2.7,0.8-5,2.4-5.2
						C316.4,324.7,318,326.9,318.3,329.6z"/>
				</g>
				<g>
					<path fill="#343738" d="M365.7,340.4c1.4,5.2-5.3,14.6-14,17.1c-8.6,2.5-22.9-0.6-24.3-5.6c-1.4-5.2,9.7-10.5,18.3-13
						C354.2,336.3,364.3,335.2,365.7,340.4z"/>
				</g>
				<g>
					<path fill="#515453" d="M360.8,339c0.5,1.7-5.3,6.1-11.8,8c-6.4,1.9-16.5,2.2-16.9,0.5c-0.5-1.7,8.2-5,14.6-6.9
						C353,338.7,360.2,337.1,360.8,339z"/>
				</g>
				<g>
					<path fill="#D45454" d="M402,332.6l-0.9,0.2l-35.8,48.1l9.3-5.8c0,0,16.8-18.8,16.9-18.7c0.2,0.2,6.9-11.9,6.9-11.9
						s2.5-5.3,2.5-5.6C400.9,338.5,402,332.6,402,332.6z"/>
				</g>
				<g>
					<polygon fill="#8A181B" points="423.5,451.6 384.5,507.9 368.3,378.8 402.4,333.2 					"/>
				</g>
				<g>
					<polygon fill="#8A181B" points="423.5,451.6 384.5,507.9 368.3,378.8 402.4,333.2 					"/>
				</g>
				<g>
					<polygon fill="#8A181B" points="423.5,451.6 384.5,507.9 368.3,378.8 402.4,333.2 					"/>
				</g>
				<g>
					<path fill="#821618" d="M414.4,400.9c-2-0.6-4.5-0.5-6.4-0.2c-0.9,0.2-2.4,0.2-3,0.8c-1.4,0.6-1.9,3.1-1.7,4.4
						c0.2,2.7,2.5,3.9,3.1,6.3c0.6,2-0.3,3.9,0,6c0.5,2.7,1.4,5.2,1.9,7.8c0.8,4.1,0.9,8.2,1.4,12.2c0.2,1.1,0.5,3.1,1.7,3.4
						c2,0.6,3.6-2.5,4.9-3.6c1.1-1.1,2.7-2.2,4.1-3.4L414.4,400.9z"/>
				</g>
				<g>
					<polygon fill="#620F10" points="368,379.6 369.4,377.6 385.6,506.3 384,508.8 					"/>
				</g>
				<g>
					<polygon fill="#D45454" points="268.8,368.2 270.5,367.2 363.2,381.8 355.3,383.5 273,372.4 					"/>
				</g>
				<g>
					<polygon fill="#A12221" points="286.6,496 375.1,511.6 357.7,382.1 268.8,368.2 					"/>
				</g>
				<g>
					<path fill="#721012" d="M357.7,382.1c0,0,7.5,1.1,10.7-3.1l16.2,128.9c-0.3,3.6-5.6,6.6-9.6,3.9L357.7,382.1z"/>
				</g>
				<g>
					<path fill="#F2E2A0" d="M357.7,382.1l0.5-0.9c0.2,0,6,1.3,8.5-1.7l1.6-0.5c0,0,0.3,2.2-3.9,3.3
						C360.3,383.2,358.3,383.1,357.7,382.1z"/>
				</g>
				<g>
					<path fill="#CEB136" d="M371.5,485.1l3.6,26.7c3.8,2.7,9.3-0.2,9.6-3.9l-3.3-25.9C377.4,485.1,373.8,485.5,371.5,485.1z"/>
				</g>
				<g>
					<g>
						<path fill="#CEB136" d="M361,406l0.3,2.5c1.7,0.2,6.6,0.3,10.5-2.7l-0.3-2.2C369.9,404.2,366.4,405.6,361,406z"/>
					</g>
					<g>
						<path fill="#CEB136" d="M370.7,397.8l-2.4-19c-2.4,4.9-10.7,3.1-10.7,3.1l2.5,18.2C361.6,400.2,366.4,399.8,370.7,397.8z"/>
					</g>
					<g>
						<path fill="#CEB136" d="M371.3,402.4l-0.3-2.8c-1.7,0.8-5.5,2.2-10.7,2l0.5,3.1C362.4,404.7,367.2,404.5,371.3,402.4z"/>
					</g>
				</g>
				<g>
					<path fill="#9B1C20" d="M269.2,371.8L286.6,496l88.3,15.8l-6.9-51.4C334.3,423.2,287.1,385.7,269.2,371.8z"/>
				</g>
				<g>
					<path fill="#87171A" d="M346.8,477.3c0,0,7.7,7.5,10.3,32.1l-6.9-1.3L346.8,477.3z"/>
				</g>
				<g>
					<path fill="#87171A" d="M299.2,439c-0.2,0.3,0.3,2.7,0.3,3.4c0.2,1.3-0.2,1.6-0.6,2.8c-0.6,1.7-0.5,5.2-1.6,6.7
						c-1.4,2-3.8,3.9-5.6,5.5c-1.6,1.3-3.9,1.9-5.3,3.1c-0.8,0.8-1.6,0.8-2.4,1.4c-0.6,0.6-1.6,1.4-1.6,2.4
						c-0.2-1.1-0.3-2.4-0.5-3.3c-0.3-1.1-0.8-2.5-0.5-3.6c0.2-0.6,0.6-1.1,1.1-1.6c1.4-1.6,3.1-3.1,4.7-4.5c2.2-1.9,5.3-3.1,6.7-5.8
						c0.6-0.9,1.1-2,1.6-3c0.3-0.6,0.8-1.4,1.1-2c0.3-0.6,0.2-1.3,0.6-1.9c0.6-0.9,1.3-0.6,1.6,0.3"/>
				</g>
				<g>
					<path fill="#F7F9F9" d="M404.9,352.3c-0.2-2.4,7.2,1.7,8,3.1c1.1,2,0.2,4.4,1.1,6.1c0.9,2,4.2,2.2,5.8,2.5
						c3.9,0.8,8.5,2.2,11,6c1.7,2.5,3.3,6.1,4.1,9.1c0.9,3,0.6,6.4,1.1,9.6c0.5,3,0.6,6,0.2,8.9c-0.8,4.7-3.6,6.7-6.9,9.1
						c-3,2-5.3,5.2-8.8,6.3c-2,0.6-4.2,1.1-6.4,0.9c-3.8-0.2-6.1-3.9-8.5-6.9c-3.1-4.1-5.3-8.9-7.1-14.1c-1.3-3.9-3-9.1-1.3-13
						c1.4-3.3,4.5-6,6.7-8.5c1.6-1.9,2-2.4,1.9-4.9c-0.2-2.2-0.3-4.4-0.3-6.6c-0.2-2.2-2.2-7.4-0.5-8.5L404.9,352.3z"/>
				</g>
				<g>
					<path fill="#F8F2EB" d="M405,351.9c0,0.2-0.2,0.3-0.2,0.5L405,351.9z"/>
				</g>
				<g>
					<path fill="#EEF3F4" d="M405.8,394.8c-1.9-4.1-6-6.6-9.3-9.6c0.2,2.7,1.1,5.5,1.9,7.8c1.7,5.2,3.9,9.9,7.1,14.1
						c2.4,3,4.7,6.7,8.5,6.9c2.2,0.2,4.4-0.3,6.4-0.9c3.4-1.1,5.6-4.1,8.8-6.3c3.3-2.4,6.1-4.4,6.9-9.1c0.2-0.6,0.2-1.3,0.2-1.7
						c-6,3.1-11.3,7.8-17.7,9.1C412.7,406.3,408.5,400.2,405.8,394.8z"/>
				</g>
				<g>
					<path fill="#F7F9F9" d="M429.8,419.4c24-2.4,26.8,53.2,8.6,68.1c-18.2,14.9-33.7-5.6-32.5-18.3
						C407.5,456.4,406.9,421.6,429.8,419.4z"/>
				</g>
				<g>
					<path fill="#C86D2A" d="M269.7,479.5c0-0.3-0.2-0.6,0-0.9c3.8-1.3,7.8-2,11.8-2.4c0.3,1.6-0.8,3-1.6,4.1
						c1.3,0.2,2.4,0.2,3.6,0.5c-0.3,3.3,2.7,3.4,5.2,3.8c-0.5,3.9,3,1.3,4.9,2.2c1.1,0.5,0.3,2,1.7,2.8c1.4,0.8,2.7-0.5,4.1,0.6
						c3.1,2.2,2.5,8.5,2.7,11.8c0.2,5.5-1.9,10-1.4,15.4c0.6,5,1.7,6.4,5.6,9.1c-5,1.1-12.5-2.7-17.2-4.4c-6.9-2.7-13.8-6-20.5-8.9
						c-1.9-0.8-6.3-2.7-7.5-4.2c-2.7-3.4,0.8-10.7,1.6-14.4c1.1-4.1,2-7.1,4.1-10.7c0.5-0.9,0.8-2.4,1.6-3.3
						c1.3-1.4,3.3-1.6,4.7-3.1"/>
				</g>
				<g>
					<path fill="#C86D2A" d="M279.6,464.9c0,0.2,0,0.3-0.2,0.5c0.9,0,4.9-0.9,5.5-0.2c0.9,0.9-1.4,2.8-1.1,4.1
						c2.7-0.2,0.9,1.7,1.6,2.8c0.8,1.1,3.3,0.2,3,2.4c-3.1,0.5,4.2,2.4,4.7,3c-1.3,1.3-3.3,1.3-1.1,2.8c0.8,0.5,3.8,0.6,3.6,2
						c0,0.9-1.6,0.8-1.9,1.6c-0.6,1.7,1.6,1.6,1.7,2.7c0.2,1.1-0.6,0.8-1.1,1.7c-0.6,1.3,0.2,2.8-1.3,3.6c-1.1,0.6-3.4-0.2-4.5-0.2
						c-3-0.2-6.1,0-9.1-0.8c-5.5-1.4-9.6-4.7-9.6-10.7c0-4.2,2.7-7.1,5.5-10c1.4-1.6,2.5-3.3,4.7-3.8c-0.2-0.3,0.2-0.6,0.2-0.8"/>
				</g>
				<g opacity="0.15">
					<path fill="#C86D2A" d="M306.4,526.4c-3.9-2.8-5-4.1-5.6-9.1c-0.2-1.6-0.2-3,0-4.4c-0.5-0.3-0.9-0.6-1.4-0.8
						c-0.8-0.5-1.6-0.9-2.5-0.9c-0.6,0-1.3,0-1.9-0.2c-0.5-0.2-0.8-0.6-1.4-0.8c-0.8-0.3-1.7-0.2-2.5-0.8c-0.5-0.5-0.6-1.3-1.3-1.6
						c-0.5-0.3-1.1-0.2-1.9,0c-0.8,0.2-0.6,0-1.1-0.5c-0.3-0.5-0.8-0.8-1.3-1.1c-0.8-0.3-1.4-0.5-2-1.1c-0.5-0.5-0.5-1.1-0.6-1.7
						c0-0.6,2.5-1.3,1.7-1.1c-0.2,0,1.6-0.2,1.6,0l0,0l0,0v-0.2c0,0-2.5,0.3-2.5,0.5c-1.9,0.2-6.4,1.4-7.7,0.2
						c-0.6-0.6-0.9-3-1.7-3.9c-1.9-2.4-5.8-3.8-8.2-5.6c-0.8-0.6-1.3-0.5-2-1.3c-0.8-0.9-0.6-2.8-1.4-3.6c-2.2-1.9-5.2,0.6-7.7-0.3
						c-6.6-2.5-0.8-10.7-10.2-9.3c-0.5-3.9-1.7-6.3-4.9-8.6c-2.4-1.9-5.6-2.7-6.4-6c-0.6-2.8,1.6-5.2,0.8-8
						c-1.3-0.2-2.4-0.3-3.4-0.6c-0.2-1.4-0.2-2.8,0.8-4.2c0.8-1.1,1.7-1.9,2.2-3.3c0.6-1.4,0.9-3.3,2.4-4.2c0.5-0.3,0.9-0.5,1.4-0.5
						c1.6,1.6,3,2.2,5.2,3.1c2.8,1.1,5.8,2.5,8,4.5c-0.2-2.2-1.7-4.2-3-6c-1.9-2.7-4.2-5.2-5.6-8c-0.6-1.3-2.2-6.6-4.4-6l0.3,0.2
						c-0.6-0.5-1.6,0.3-2.5,0.2c-0.9-0.2-1.7-0.9-2.7-0.8c-1.1,0.2-0.9,0.8-2.2,0.5c-1.1-0.3-1.4-0.9-2.4-0.3
						c-0.2-0.2-0.5-0.2-0.6-0.3c-0.2-0.2-0.5-0.2-0.6-0.2c-0.2,0-0.3,0-0.3-0.2c-0.3,0-0.6,0-0.8-0.2c-0.2-1.3-0.2-1.7-1.3-2.8
						c-1.1-0.9-3.8-1.1-4.4-2.2c-0.8-1.3,0.9-2.7,0.2-4.1c-0.9-1.7-4.1-0.6-3.9-3.3c0-0.8,2.4-1.6,2.7-2.7c0.3-1.1-0.5-1.1-0.5-1.9
						c0-2-0.2-2,0.5-4.1c0.5-1.3,1.7-0.9,1.4-2.5c-0.3-1.1-2.8-1.3-3.4-1.9c-1.9-1.7-1.7-2.2,0.2-4.4c2.2-2.7,7.2-2.5,4.7-6.1
						c-2.2-3.1-5.5-1.6-0.9-5.2c4.5-3.4,2.4-1.4,1.1-5.5c-1.3-4.4,2.5-4.5,4.5-7.4c1.7-2.4,0.2-2.8-0.3-5.8
						c-0.8-4.5,1.6-3.4,4.2-6.3c2.8-3-0.3-2.5-0.9-5.5c-0.9-4.9,5.3-5.3,8.3-7.4c-1.6-1.3-4.7-1.9-4.2-4.4c0.5-2.8,4.4-2.5,6.1-3.8
						c0.8-0.6,0.9-2.2,2.2-3.1c1.9-1.4,5-1.3,7.1-2.5c-0.2-1.9-0.3-3.1,0.2-5c0.9-4.1,5.3-6,6.6-9.3c0.5-1.3-0.5-2.8-0.3-4.1
						c0.5-3.6,3.4-5.8,6.9-6c-1.1-5.3,6.3-6.9,4.2-11c-1.4-2.5-5.8-0.6-2.2-4.2c1.7-1.7,5.6,5.3,5.6-0.9l-1.3,0.2
						c0.5,0,0.8-3,1.4-3.1c-0.2,0.8,0.3,0.6,0.2,1.4c1.7-0.2,4.4-2.4,5-4.1c1.6-3.9-3.1-8.3-6.3-9.3c-4.5-1.4-9.7-2.7-14.4-2
						c-0.3,0-0.6,0-0.8,0.2c-2.8,6.6-4.9,8-5.2,8.2c-0.9,0.9-10.8,27.1-10.8,27.1s11.3,4.2,2.4,8c-5.2,2.2-10.2,6.6-15.1,12.1
						c-1.3,0.8-2.8,1.4-3.8,2.7c0.2,0,0.8,0.2,1.1,0.2c0,0.2,0.2,0.3,0.2,0.5c-0.8,1.1-1.7,2.2-2.5,3.3c-1.6,1.1-3.4,2.2-3.6,3.4
						c1.7,0.2-0.6,2.4-1.3,3c-1.1,1.6-4.4,3.9-4.5,5.8c0.2,0,0.3,0,0.5,0c0.6,2-1.6,3.1-1.9,5c0.2,0,0.3,0,0.5,0
						c-0.8,1.6-1.6,3-2.2,4.5c-0.8,0.8-1.6,1.6-2,2.2c-0.6,1.1-1.6,2.2-2,3.4c-0.2,0.2,0.3,0.5,0.2,0.8c-0.5,1.1-1.4,1.9-1.9,3
						c0.2,0,0.3,0,0.5,0c0.3,1.6-0.6,3.6-1.3,4.9c-0.6,1.3-3.3,3.6-3.3,5c0,0.9,0.8,0.5,1.1,0.9c0.6,2.2-1.4,4.1-1.3,5.8
						c0,1.3,0.5,2.7,0.3,4.2c-0.3,2-2.4,3.4-2.7,5.3c-0.2,1.1,0.3,0.5,0.5,1.3c0.2,1.3,0.8,2.5,0.8,3.8c-0.2,2.5-0.8,5-0.8,7.7
						c0,0.6,0.2,1.3,0.2,1.7c0,1.4-0.9,2.8-0.9,4.1c0.2-0.2,0.5-0.2,0.8-0.2c0.3,1.7-0.5,3.3-0.5,5c1.4,0.6-0.2,3.3,0.2,4.4
						c0.2,0,0.3,0.2,0.3,0.2l0,0c0,0.8,0.5,1.3,0.5,2c0,1.1,0,2,0,3.3c0.3,4.1-1.1,7.8,0,11.9c0.2-0.3,0.6-0.6,0.8-0.9
						c0,2.4-0.2,5,0.2,7.4c0.3,1.6,0.6,4.4,1.3,6c0.5,1.1,1.6,1.9,2,3.1c0.8,1.9,1.4,3.8,2.2,5.6c0.9,2.2,1.9,4.9,3.1,6.7
						s2.8,3.4,3.9,5.6c2,4.2,3.8,7.7,7.1,11.1c0.6-0.5,2,0.5,3.8,1.9c1.4,1.4,3,2.8,4.4,4.1c2.4,2.2,4.4,4.4,5.2,5.2
						c1.9,1.6,3.4,3.3,5.5,4.4c2.2,1.3,2.7,0.8,4.5,1.1c0.9,0.2,2,1.1,3,1.4c0.8,0.3,1.3,0,2.2,0.5c1.7,0.8,1.9,1.7,3.8,1.6
						c0.5,0,1.4-0.8,2-0.9c0.3,0,0.6-0.2,0.8-0.2c1.6,0.3,3.1,0.6,4.7,0.8c1.3,0.8,2.5,2,4.1,3.6c0.8-0.9,0.9-2.4,2.2-2.8
						c0.2,0,0.2,0.2,0.3,0.2c1.3,0.9,2.7,2.4,3.3,2.7c0.8,1.1,2.2,3,3.6,3.3c0.5,0.2,0.6-0.6,0.6-0.6c-0.5-0.2,1.3,0,1.3,0
						c0.8,0.2,3.4,1.9,4.4,2.4c1.3,0.6,2.4,1.7,3.8,2c0-0.2,0.2-0.3,0.3-0.6c1.3,0.6,3.1,2.4,4.2,1.3c2.5,1.6,5,2.5,7.7,3.1
						c0.6,0.2,1.6,0.3,2.5,0.5C298.6,525.6,303.1,527,306.4,526.4z"/>
				</g>
				<g>
					<path fill="#F7F9F9" d="M240.2,416.5c-1.3,4.1-3.1,8.9-2.8,13.2c0.2,2.7,1.7,4.4,3,6.4c1.7,2.8,2.7,5.6,4.5,8.3
						c2.8,4.2,6.4,7.4,10.3,10.7c3.3,2.8,6,3.6,10,4.4c3.3,0.6,6,1.9,9.4,1.4c5.3-0.8,13-2.7,16.8-6.9c2.8-3.3,4.4-7.7,6.4-11.3
						c1.9-3.1,3.3-6,3-9.9c-0.3-3.8-2-10.7-4.9-13.2c-2.7-2.5-8.5-2.2-11.9-3c-2.8-0.6-7.5-0.9-9.1-3.6c-1.6-2.7-0.2-6.6-1.3-8.9
						c-1.1-2.2-3.1,0.2-5-0.2c-2.7-0.3-5-1.3-7.8-1.3c-3.4,0-7.7,0.5-11,1.7c-1.3,0.5-2.2,1.1-3,2.2
						C247.1,406.6,241.8,410.8,240.2,416.5z"/>
				</g>
				<g>
					<path fill="#EEF3F4" d="M255.3,454.9c3.3,2.8,6,3.6,10,4.4c3.3,0.6,6,1.9,9.4,1.4c5.3-0.8,13-2.7,16.8-6.9
						c2.8-3.3,4.2-9.3,6.4-12.9c0.6-1.1,1.7,0,1.6-4.7l0,0c-11.8,4.7-23.2,19.3-38.1,12.7c-5.8-2.4-10.7-4.5-16-7.5
						c-0.9-0.6-1.9-0.9-2.7-1.7c0.6,1.4,1.4,3,2.4,4.4C247.7,448.3,251.5,451.6,255.3,454.9z"/>
				</g>
				<g>
					<path fill="#8D411F" d="M260.9,326.1c0,0,2-9.1,8.8-13c6.7-3.9-3.3-17.1-3.6-17.9c-0.5-0.8-17.4-20.4-19-21.3
						c-1.6-0.9-11.4-1.7-14-0.8c-2.4,0.9-12.2,13.3-12.4,14.3c-0.2,0.9-0.9,16.3-0.8,16.9c0,0.5,10.3,11.6,11.1,12.1
						c0.9,0.5,12.1,8.9,12.1,8.9s7.8,1.7,8.8,1.9c0.8,0.2,5.3,0.2,5.3,0.2L260.9,326.1z"/>
				</g>
				<g>
					<path fill="#80381D" d="M227.2,279.9l-2.5,2c-2.2,2.8-4.1,5.2-4.1,5.5c-0.2,0.9-0.9,16.3-0.8,16.9c0,0.5,10.3,11.6,11.1,12.1
						c0.9,0.5,12.1,8.9,12.1,8.9s1.7,0.3,3.6,0.8c-28.5-25.7,0.8-45.9,1.4-45.9v-3.1c0,0-8.5-0.9-9.9-1.1
						C236.8,275.7,227.2,279.9,227.2,279.9z"/>
				</g>
				<g>
					<path fill="#F7F9F9" d="M272.2,286.8c-6.6-17.9-32.5-45.9-58.8-21.8c-29.3,26.7-14.1,75,28.9,73.7c0,0,12.2-3.9,18.5-12.4
						c0,0-45.3-8.2-33.2-34.3c11.9-26.2,38.6,6.6,41.4,21.6C268.9,313.4,280.7,309.7,272.2,286.8z"/>
				</g>
				<g>
					<path fill="#EEF3F4" d="M254.6,328.5c-0.5,0-1.1-1.4-1.7-1.3c-8.5,0.9-19.4,6.7-26-2.2c-2.5-3.8-9.3-2-10.8-6
						c-2-5.3-4.7-6.6-8.3-10.7c-2.4-2.8,0.2-8.2-2.7-10.8c-3.6-3.3-4.9-8-4.7-12.9c-8.3,25.6,8.3,54.9,41.9,53.8
						c0,0,10.7-3.3,17.1-10.7C257.8,328.3,256.1,328.7,254.6,328.5z"/>
				</g>
				<g>
					<path fill="#F7F9F9" d="M330.9,454.4c17.9-0.5,26.7,38.9,22.9,54.7c-3.6,15.8-17.7,21.2-43.4,18.5
						C284.9,525.1,291.5,455.3,330.9,454.4z"/>
				</g>
				<g>
					<path fill="#F7F9F9" d="M296.5,489.5c-0.5,2-0.8,4.1-0.9,6.1c0.3-2,0.6-3.9,0.9-6C296.5,489.7,296.5,489.5,296.5,489.5z"/>
				</g>
				<g>
					<path fill="#C86D2A" d="M275.3,307.3c0.2,0.3,0.2,0.8,0.2,1.1c-1.1-2.8-3.4-0.2-3.3,1.7c-1.1,0.2-2,0-3.1,0.3
						c0.5,0.5,1.3,0.6,1.7,0.9c-1.1,0.6-2.8,0.2-3.8,1.1c0.2,0.2,0.5,0.5,0.6,0.6c-0.2,0.2-0.9,1.4-0.9,1.4
						c-0.6,0.5-3.6,0.5-2.4,1.7c-1.1,0.5-0.6,1.1-1.1,1.6c-0.9,1.1-2.2,1.6-3.1,2.7c1.7,0.5,2.7-0.5,1.9,1.3
						c-0.6,1.6-2.7,2.2-4.1,3.1c0.3-0.2,1.1-0.2,1.6,0c-0.3,0.6-0.9,0.9-1.3,1.6c0.3,0,0.8,0.2,1.1,0.2c-1.3,0.5-4.4,1.1-4.4,2.5
						c0.5,0,0.9,0.3,1.3,0.3c-0.5,1.1-2.2,0.9-3,1.6c0.2,0.2,0.5,0.5,0.6,0.6c-0.6,1.1-2.4,1.3-3.3,2.2c-0.2,0.2,0,0.8-0.3,1.1
						c-0.8,0.9-2,0.9-2.5,2c0.5-0.2,1.1,0,1.4,0c-0.6,0.6-2.5,1.3-1.4,2.4c1.3,1.3,4.2-1.3,5.2-1.7c3.9-2,7.7-3.8,10.8-7.1
						c2.2-2.4,4.7-4.9,6.7-7.5c2.2-2.8,5.3-7.4,5.2-11.1c0-1.6-0.8-1.9-1.1-3"/>
				</g>
				<g>
					<path fill="#D8C5B2" d="M278,364.6c2.5,0.2,17.1,1.1,16.9,1.1s-10.3-2.4-14.1-3.1l-0.2,0.3L278,364.6L278,364.6z"/>
				</g>
				<g>
					<path fill="#D8C5B2" d="M373.5,365.7c0.9-2.4,7.5-13,9.4-15.4C382.9,350.3,375.4,363.3,373.5,365.7z"/>
				</g>
				<g>
					<path fill="#D8C5B2" d="M332,373.2c0,0-15.4-6.6-26-6.3C309.2,367.9,325.4,370.7,332,373.2z"/>
				</g>
				<g>
					<path fill="#EEF3F4" d="M442.7,425.4c-19-2.2-19.3,30.9-22.3,66.5c5.2,1.9,11.4,1.1,18-4.4C452.7,476,454.1,439.8,442.7,425.4z
						"/>
				</g>
				<g>
					<path fill="#EEF3F4" d="M310.8,527.8c25.4,2.5,39.5-2.8,43.1-18.5c2-8.9,0.2-25.2-5-37.6c-3.6-3.6-8.5-5.6-14.6-5
						C304.7,469.3,305.8,505.1,310.8,527.8z"/>
				</g>
				<g opacity="0.5">
					<path fill="#F7EBEB" d="M367.7,379.6l0.6-0.6l16.2,129c0,0-0.2,0.9-0.5,1.6L367.7,379.6z"/>
				</g>
				<g>
					<path fill="#C86D2A" d="M261.7,509.4c-0.2-0.2-0.8,0.2-0.3-0.2c1.6,0.5,3.9,3.1,4.9,3.6c0.8,1.1,2.2,3,3.6,3.3
						c0.5,0.2,0.6-0.6,0.6-0.6c-0.6-0.2,1.6,0,1.3,0c0.8,0.2,3.4,1.9,4.4,2.4c1.3,0.6,2.4,1.7,3.8,2c0-0.2,0.2-0.3,0.3-0.6
						c1.3,0.6,3.1,2.4,4.2,1.3c2.5,1.6,5,2.5,7.7,3.1c1.4,0.3,4.2,0.8,5.6,0.5c-7.1-2.4-13.3-5.3-20.1-8.5c-1.9-0.9-4.4-1.3-6.1-2.4
						c-1.4-0.9-2.7-2.5-3.8-3.8c-1.6-1.7-3.4-3.4-6-3.9c-1.3-0.3-3.8-0.2-3.1,1.7"/>
				</g>
				<g opacity="0.15">
					<path fill="#C86D2A" d="M261.7,509.4c-0.2-0.2-0.8,0.2-0.3-0.2c1.6,0.5,3.9,3.1,4.9,3.6c0.8,1.1,2.2,3,3.6,3.3
						c0.5,0.2,0.6-0.6,0.6-0.6c-0.6-0.2,1.6,0,1.3,0c0.8,0.2,3.4,1.9,4.4,2.4c1.3,0.6,2.4,1.7,3.8,2c0-0.2,0.2-0.3,0.3-0.6
						c1.3,0.6,3.1,2.4,4.2,1.3c2.5,1.6,5,2.5,7.7,3.1c1.4,0.3,4.2,0.8,5.6,0.5c-7.1-2.4-13.3-5.3-20.1-8.5c-1.9-0.9-4.4-1.3-6.1-2.4
						c-1.4-0.9-2.7-2.5-3.8-3.8c-1.6-1.7-3.4-3.4-6-3.9c-1.3-0.3-3.8-0.2-3.1,1.7"/>
				</g>
				<g>
					<path fill="#EEF3F4" d="M233.2,501.4c-3.9-2.7-8-5.6-11.9-9.6c-5.6-1.1-11.3-3.8-16.2-6c-6.7-3.1-8.9-13.8-16.3-16.2
						c0,0.6-0.2,1.3-0.3,1.7c-0.6,2.5-3.9,5-3.6,7.2c0.2,0.8,1.4,1.6,1.9,2.4c0.6,1.3,0.6,2.8,0.8,4.2c0.3,3.1,0.8,3.6,2.8,6
						c1.4,1.6,2,3.6,2.2,5.8c2.5-0.2,6.4-1.7,8.2,0.5c1.6,2,0.5,3.8,3.3,5.5c2.4,1.4,6.1,3.8,8.6,4.2c0.8,0.2,1.7-0.5,2.5-0.3
						c2.4,0.5,3.8,3,5.8,3.8c1.7,0.6,3.8,0.2,5.6,0c5.6-0.6,11.3-2.5,16.5-4.5c0.2,0,0.3-0.2,0.5-0.2
						C239.8,505.1,236.1,503.5,233.2,501.4z"/>
				</g>
				<g>
					<path fill="#F7F9F9" d="M202.1,461L202.1,461c-3.8-1.6-6.1-1.6-10.2,0.3c-3.4,1.6-2.8,5.2-3.1,8.6c7.4,2.2,9.6,13,16.3,16.2
						c4.9,2.2,10.5,4.9,16.2,6C213.9,484.7,206.8,475,202.1,461z"/>
				</g>
				<g opacity="0.4">
					<path fill="#BD9467" d="M322.7,316.7c0.3-0.3,0.5-0.6,0.8-0.8c-0.5,0.8-1.3,1.4-2,1.9c0.2-0.6-0.3-1.6-0.3-2.2
						c-1.6,0.2-2.5-0.6-3.9,0.2c0-0.6-0.8-1.3-0.8-1.9c-1.9,1.1-3,2.7-5.3,2c0.6,0.5,0.9,1.4,1.3,1.9c-0.6,0.2-11,0.2-7.2,3.4
						c-1.4,1.4-4.5,1.4-6.7,1.6c0.5,1.1,1.4,1.7,1.7,2.8c-0.5,0-0.9,0.2-1.3,0.2c0.5,0.8,2,2,1.7,3.1c-0.5,1.4-2.8,0.8-3.1,2.4
						c3.1,0.5,1.1,2.4,1.1,4.1c4.2-0.6,1.4,3,1.1,4.4c1.1,0,2,0,3.1,0c-0.8,2.7,1.3,3,1.7,5.2c0.6,2.7-1.7,2.2-2.4,4.2
						c0.9,0.3,1.1,0.9,1.6,1.3c-2.2,1.1-3.1,1.7-3.3,3.8c0,1.1,0,1.3,0.2,2.2c0,0.5,1.4,0.5,1.7,1.4c-4.4,0.8,0.2,2.5,0.8,3
						c0.6,0.6,0,1.9,0.6,2.7c1.1,1.6,3.4,2.2,5.3,2.5c11.8,1.6,24.8-3.9,35.8-7.2c6.9-2,13.6-4.7,20.5-6.4
						c6.6-1.7,19.9-8.5,18.5-16.5c-1.9-0.8-5.2-0.2-4.1-3.3c-1.7,0.3-1.7-1.6-1.7-3c-2.4,0.2-1.9-2.4-1.4-3.9c-0.8,0-1.9-0.2-2.7,0
						c0.3-3-3.9-2.4-6-2.2c0.2-0.6-0.3-1.9,0-2.5c-0.5,0.2-0.9,0-1.4,0.2c0.2-1.3,0.6-2.7,0.6-4.1c-0.3,0-0.5,0-0.8,0
						c-0.2-0.9-0.2-2,0.2-3.1c-0.8-0.9-1.1-2.4-1.4-3.8c-0.3,0-0.9-0.2-1.4,0c0-0.8-0.3-1.7,0-2.5c-2.2,0.5-2.8-3.9-4.9-1.6
						c-1.3-0.5-2.7-1.4-3.4-0.2c-2.5-1.7-3.3-2.8-4.5,0.3c-0.2-0.2-0.3-0.3-0.3-0.5c-2.7,0.8-4.5-2-7.2-1.4c0.2,0.6-0.2,1.7-0.2,2.5
						c-5.8-0.2-10.2,4.9-12.4,9.9c-0.2-0.2-0.6-0.5-0.9-0.9c-0.6,0.5-1.1,0.3-1.4,1.4c-1.6-2.2-3.4,1.3-5.3-1.6"/>
				</g>
				<g>
					<path fill="#C86D2A" d="M399.7,334.8c-0.5-0.9,0.3-3.1,0.3-4.2c0-0.9,0.2-1.7,0.3-2.5c-0.3,0.2-0.5,0.5-0.6,0.8
						c-0.3-1.6-0.3-3.1-0.5-4.5c-0.2,0.2-0.2,0-0.3,0.2c-0.3-2-1.1-3.3-1.7-5.3c-0.6-1.9-0.3-4.2-1.6-5.8c-0.2,0-0.2,0-0.2,0.2
						c0.2-1.3,0.6-3,0.3-4.1c-0.2,0-0.3,0.2-0.3,0.2c-0.6-0.8-0.8-1.7-1.6-2.5c-0.6-0.6-1.3-0.9-1.7-1.7c-1.6-2.2-1.3-4.7-2-7.2
						c-0.3-0.9-1.1-3.4-1.9-3.8c0,0-0.2,0.3-0.5,0.3s-0.5-0.3-0.8-0.5c-0.6-0.3-1.1-0.9-1.9-0.8c0.2,1.7,0.9,3.1,1.7,4.7
						c1.9,3.6,3.4,7.1,4.2,11.1c0.6,3.3,1.9,6.4,2.4,9.7c0.3,2.2,0.8,4.4,1.1,6.4c0.3,2.2,1.3,3.9,2.7,5.6c1.1,1.3,1.6,2.4,1.7,4.1"
						/>
				</g>
			</g>
		</g>
	</g>
	<g>
		
			<ellipse transform="matrix(-0.1894 -0.9819 0.9819 -0.1894 38.6996 721.2221)" opacity="0.7" fill="#BAE0EE" enable-background="new    " cx="317" cy="344.6" rx="7.4" ry="12.5"/>
		<path opacity="0.7" fill="#9EC9D6" enable-background="new    " d="M304.7,347c-0.8-4.1,4.1-8.6,11.6-9.6c2.5-0.3,4.9-0.5,6.9,0
			c-2.8-1.1-6.4-1.3-10.5-0.5c-7.5,1.6-10.5,6.4-9.9,10.8c0.8,4.4,5,6.6,12.5,5c0.9-0.2,2-0.5,2.8-0.8
			C312.2,353.1,305.3,350.9,304.7,347z"/>
		<path opacity="0.4" fill="#F7F9F9" enable-background="new    " d="M317.2,352l6.4-14.6c-1.1-0.3-2.4-0.5-3.8-0.5l-7.2,15.1
			C314.1,352.3,315.6,352.3,317.2,352z"/>
	</g>
	<g>
		<path opacity="0.7" fill="#BAE0EE" enable-background="new    " d="M372.6,324.9c0.9,3-2.4,6.7-7.5,8.5c-5.2,1.7-10,0.6-11.1-2.4
			c-0.9-3,2.4-6.7,7.5-8.5C366.6,320.8,371.5,321.9,372.6,324.9z"/>
		<path opacity="0.7" fill="#9EC9D6" enable-background="new    " d="M353.9,331c-0.9-3,2.4-7.1,7.8-8.6c1.9-0.5,3.8-0.9,5.3-0.6
			c-2.2-0.5-5.2-0.3-8,0.6c-5.6,2-7.5,6-6.4,9.3c1.1,3.3,4.5,4.5,10.2,2.7c0.8-0.3,1.4-0.6,2.2-0.9C360.5,334.9,354.8,334,353.9,331
			z"/>
		<path opacity="0.4" fill="#F7F9F9" enable-background="new    " d="M364.1,333.7l3.4-11.8c-0.9-0.2-1.9-0.2-2.8,0l-4.1,12.4
			C361.7,334.1,362.8,334,364.1,333.7z"/>
	</g>
	<ellipse fill="#ECBC1F" cx="327.1" cy="342.6" rx="1.3" ry="1.4"/>
	<ellipse fill="#ECBC1F" cx="357.8" cy="329.9" rx="1.1" ry="1.1"/>
	<path fill="#343738" d="M326.5,342.1c0,0,4.1-9.3,14.9-12.2c10.8-3.1,16.5,0,16.5,0c-6.7,0.3-17.1-2.7-30.7,12.7
		C327.1,342.6,326.5,343.1,326.5,342.1z"/>
</g>
</svg>
